<?xml version="1.0" encoding="UTF-8" standalone="no"?>
<!-- Created with Inkscape (http://www.inkscape.org/) -->
<svg
   xmlns:dc="http://purl.org/dc/elements/1.1/"
   xmlns:cc="http://creativecommons.org/ns#"
   xmlns:rdf="http://www.w3.org/1999/02/22-rdf-syntax-ns#"
   xmlns:svg="http://www.w3.org/2000/svg"
   xmlns="http://www.w3.org/2000/svg"
   xmlns:xlink="http://www.w3.org/1999/xlink"
   xmlns:sodipodi="http://sodipodi.sourceforge.net/DTD/sodipodi-0.dtd"
   xmlns:inkscape="http://www.inkscape.org/namespaces/inkscape"
   width="744.09448819"
   height="1052.3622047"
   id="svg2"
   inkscape:label="Pozadie"
   sodipodi:version="0.32"
   inkscape:version="0.46"
   sodipodi:docname="slovensky_znak_vektor.svg"
   inkscape:output_extension="org.inkscape.output.svg.inkscape">
  <defs
     id="defs3">
    <inkscape:perspective
       sodipodi:type="inkscape:persp3d"
       inkscape:vp_x="0 : 526.18109 : 1"
       inkscape:vp_y="0 : 1000 : 0"
       inkscape:vp_z="744.09448 : 526.18109 : 1"
       inkscape:persp3d-origin="372.04724 : 350.78739 : 1"
       id="perspective9" />
    <inkscape:perspective
       id="perspective3218"
       inkscape:persp3d-origin="372.04724 : 350.78739 : 1"
       inkscape:vp_z="744.09448 : 526.18109 : 1"
       inkscape:vp_y="0 : 1000 : 0"
       inkscape:vp_x="0 : 526.18109 : 1"
       sodipodi:type="inkscape:persp3d" />
    <inkscape:perspective
       id="perspective3270"
       inkscape:persp3d-origin="372.04724 : 350.78739 : 1"
       inkscape:vp_z="744.09448 : 526.18109 : 1"
       inkscape:vp_y="0 : 1000 : 0"
       inkscape:vp_x="0 : 526.18109 : 1"
       sodipodi:type="inkscape:persp3d" />
  </defs>
  <sodipodi:namedview
     id="base"
     pagecolor="#ffffff"
     bordercolor="#666666"
     borderopacity="1.0"
     inkscape:pageopacity="0.0"
     inkscape:pageshadow="2"
     inkscape:zoom="0.35"
     inkscape:cx="-350.33823"
     inkscape:cy="559.92488"
     inkscape:document-units="px"
     inkscape:current-layer="layer1"
     showgrid="false"
     inkscape:window-width="1280"
     inkscape:window-height="968"
     inkscape:window-x="-4"
     inkscape:window-y="-4" />
  <metadata
     id="metadata6">
    <rdf:RDF>
      <cc:Work
         rdf:about="">
        <dc:format>image/svg+xml</dc:format>
        <dc:type
           rdf:resource="http://purl.org/dc/dcmitype/StillImage" />
      </cc:Work>
    </rdf:RDF>
  </metadata>
  <g
     inkscape:label="Vrstva 1"
     inkscape:groupmode="layer"
     id="layer1">
    <image
       y="-59.923527"
       x="-1528.5132"
       id="image3272"
       height="894.85712"
       width="755.21381"
       sodipodi:absref="C:\Documents and Settings\sisilaa.GYMZA.000\Desktop\slovensky_znak.gif"
       xlink:href="slovensky_znak.gif" />
    <g
       id="g3332"
       transform="translate(5.7142857,-28.571429)"
       inkscape:export-filename="C:\Documents and Settings\sisilaa.GYMZA.000\Desktop\slovensky znak raster.bmp.png"
       inkscape:export-xdpi="90"
       inkscape:export-ydpi="90">
      <path
         sodipodi:nodetypes="csssssssccsssssssssc"
         id="path3278"
         d="M -378.27563,843.67625 C -378.27563,843.67625 -464.99961,803.08278 -499.43341,780.95927 C -526.85321,763.34222 -562.72053,737.79397 -584.95655,713.96615 C -617.72845,678.84821 -652.45594,623.94915 -674.75585,581.40528 C -689.02319,554.18598 -704.03317,515.6345 -711.81588,485.90444 C -719.47327,456.65311 -723.77699,416.27739 -726.06974,386.12744 C -729.34476,343.06048 -728.27728,285.3477 -727.49512,242.16348 C -726.48735,186.52339 -721.31599,112.46193 -718.94281,56.863343 C -718.01207,35.058034 -716.09204,-15.831328 -716.09204,-15.831328 L -30.481519,-17.256714 C -30.481519,-17.256714 -22.222791,76.459038 -20.503819,116.72954 C -18.844203,155.60951 -18.731127,207.52581 -19.078434,246.43964 C -19.475498,290.9284 -18.599064,350.44411 -23.35459,394.67976 C -27.074886,429.28576 -35.179629,475.24267 -44.735379,508.71061 C -51.537549,532.53445 -63.794579,563.41929 -74.668479,585.68144 C -87.124599,611.18286 -106.755,643.74902 -123.13159,666.92842 C -136.27416,685.53039 -154.84584,709.93434 -171.5947,725.36924 C -186.94824,739.51829 -211.24627,753.68594 -228.61013,765.28004 C -247.1573,777.66425 -271.6676,794.66133 -291.32709,805.19084 C -316.47303,818.65886 -378.27563,843.67625 -378.27563,843.67625 z"
         style="fill:none;fill-rule:evenodd;stroke:#000000;stroke-width:3;stroke-linecap:butt;stroke-linejoin:miter;stroke-miterlimit:4;stroke-dasharray:none;stroke-opacity:1" />
      <path
         sodipodi:nodetypes="cssssscsssssssscsssssccc"
         id="path3282"
         d="M -641.62121,638.07949 C -631.64351,609.57178 -618.65363,589.65414 -604.91195,575.70374 C -597.08676,567.75969 -584.25963,558.86598 -573.55347,555.74834 C -563.69997,552.87899 -551.60971,549.08683 -541.36452,549.68742 C -534.05746,550.11577 -521.7905,555.60194 -515.11266,558.59911 C -505.71724,562.816 -496.9485,574.34029 -489.45571,581.40528 C -486.81576,583.8945 -480.90339,589.95759 -480.90339,589.95759 C -480.90339,589.95759 -472.8887,556.61815 -465.22416,544.34526 C -458.49721,533.5737 -446.04381,521.16913 -435.29106,514.41216 C -427.61906,509.59112 -417.75725,504.67717 -408.9262,502.64875 C -398.01846,500.14333 -380.90719,499.73807 -369.72331,500.15829 C -358.40957,500.58339 -343.23836,503.24178 -332.66329,507.28522 C -321.01844,511.73769 -305.69608,519.70484 -297.02864,528.66601 C -290.90705,534.99505 -285.85433,546.0739 -282.77479,554.32296 C -279.87094,562.10139 -278.86204,573.29747 -277.07324,581.40528 C -275.8441,586.9764 -272.79709,599.93529 -272.79709,599.93529 C -272.79709,599.93529 -263.94879,575.40806 -255.69246,568.57681 C -246.00265,560.5595 -232.59258,553.5256 -215.78166,551.20265 C -201.47837,549.22621 -188.23042,549.57801 -177.02671,552.71788 C -166.75142,555.59757 -153.86299,562.85621 -145.93776,570.00219 C -138.18466,576.99298 -130.01802,588.88207 -125.98236,598.50991 C -121.44319,609.33898 -116.33005,635.98517 -116.33005,635.98517 L -114.57927,652.99996 L -114.48943,653.68472"
         style="fill:none;fill-rule:evenodd;stroke:#000000;stroke-width:3;stroke-linecap:butt;stroke-linejoin:miter;stroke-miterlimit:4;stroke-dasharray:none;stroke-opacity:1" />
      <path
         sodipodi:nodetypes="ccssscscssssccssccssscssssscsssscssscssscsssscsscssscccccscccccscsssscscc"
         id="path3284"
         d="M -412.48489,503.00907 L -409.63411,379.00051 C -409.63411,379.00051 -454.54848,380.71209 -473.77647,381.85128 C -485.33346,382.53599 -500.77942,383.2236 -512.26189,384.70206 C -528.6494,386.81209 -550.47016,390.39063 -566.42654,394.67976 C -572.56558,396.32995 -586.38194,401.80668 -586.38194,401.80668 C -586.38194,401.80668 -577.01939,364.15337 -576.40424,347.64203 C -575.81175,331.73909 -582.10579,294.90276 -582.10579,294.90276 C -582.10579,294.90276 -556.31191,302.5048 -545.04575,304.88046 C -534.03898,307.20142 -519.10567,308.8842 -507.98572,310.582 C -493.87685,312.73615 -475.09898,315.85147 -460.94799,317.70893 C -449.43012,319.22077 -434.06707,321.45301 -422.46259,321.98508 C -417.33566,322.22015 -405.35796,321.65969 -405.35796,321.65969 L -405.35796,219.35731 C -405.35796,219.35731 -449.3688,217.33524 -468.07492,219.35731 C -482.00107,220.86268 -500.08416,225.99449 -513.68727,229.33501 C -523.15705,231.6605 -545.04575,237.88733 -545.04575,237.88733 L -549.32191,240.7381 C -549.32191,240.7381 -542.93166,212.96761 -542.19499,200.8273 C -541.72807,193.1325 -542.21307,182.86907 -542.61022,175.17036 C -543.07337,166.19219 -543.93886,154.17861 -545.04575,145.23726 C -545.36531,142.65588 -546.47114,136.68494 -546.47114,136.68494 C -546.47114,136.68494 -532.58845,141.93221 -526.51574,143.81188 C -518.49009,146.29603 -507.54848,148.76447 -499.43341,150.9388 C -490.0145,153.46247 -477.73978,158.19681 -468.07492,159.49111 C -460.44595,160.51277 -450.1387,161.45643 -442.41799,161.51142 C -432.99118,161.57855 -420.37403,160.94327 -411.05949,159.49111 C -407.57537,158.94793 -399.65641,156.64034 -399.65641,156.64034 C -399.65641,156.64034 -402.38619,126.67815 -403.93257,113.87877 C -405.22764,103.15948 -407.45361,88.932453 -408.98333,78.244128 C -410.02394,70.973244 -411.0011,61.20611 -412.48489,54.012571 C -413.88819,47.20927 -416.27832,38.233281 -418.51181,31.655616 C -419.82585,27.785738 -423.70828,19.062691 -423.70828,19.062691 C -423.70828,19.062691 -411.98818,23.101925 -406.78334,24.079472 C -396.66196,25.980419 -382.86354,29.027639 -372.57409,29.455624 C -362.74742,29.86436 -349.542,28.208154 -339.79021,26.930243 C -333.20811,26.0677 -318.40943,21.2287 -318.40943,21.2287 C -318.40943,21.2287 -328.23941,49.931534 -331.23789,62.564886 C -333.0399,70.157221 -334.38846,80.500185 -335.51406,88.221833 C -337.00596,98.456313 -338.95659,112.12209 -339.79021,122.43108 C -340.72142,133.94703 -341.21559,160.9165 -341.21559,160.9165 C -341.21559,160.9165 -311.25638,160.41433 -298.45403,159.49111 C -286.86744,158.65556 -271.43529,157.07574 -259.96861,155.21496 C -253.92514,154.23424 -245.96858,152.35967 -240.01321,150.9388 C -231.84127,148.98908 -220.87587,146.54307 -212.93089,143.81188 C -206.77142,141.69448 -191.46026,136.26971 -191.46026,136.26971 C -191.46026,136.26971 -200.86306,160.16652 -203.69986,172.68983 C -206.53667,185.21313 -204.32271,204.0406 -204.32271,207.03391 C -204.32271,213.44815 -195.82626,243.58887 -195.82626,243.58887 C -195.82626,243.58887 -227.11457,230.34184 -241.16907,226.71979 C -250.04052,224.43348 -262.24767,223.03391 -271.37169,222.20808 C -284.58068,221.01251 -302.26648,219.0948 -315.55866,218.76239 C -321.97337,218.60198 -336.93944,219.35731 -336.93944,219.35731 L -338.36483,256.41734 L -338.36483,287.77583 L -338.36483,309.15661 L -338.36483,321.98508 C -338.36483,321.98508 -318.41269,320.91616 -309.85711,320.5597 C -297.03264,320.02538 -267.09554,319.13431 -267.09554,319.13431 L -235.73706,314.85816 L -217.20704,310.582 L -182.99779,302.02968 L -164.46777,293.47737 C -164.46777,293.47737 -174.28797,333.99665 -173.79469,351.67053 C -173.31637,368.80891 -161.617,407.50823 -161.617,407.50823 C -161.617,407.50823 -184.27862,397.69336 -194.40087,394.67976 C -206.69058,391.02086 -223.55979,387.84056 -236.24214,385.94775 C -249.68115,383.94201 -267.79775,382.84276 -281.34939,381.85128 C -289.03779,381.28877 -299.30035,380.63978 -307.00634,380.42589 L -341.21559,380.42589 C -341.21559,380.42589 -339.79021,481.62828 -339.79021,488.75521 C -339.79021,495.88214 -339.79021,504.43446 -339.79021,504.43446 L -339.7934,496.58368"
         style="fill:none;fill-rule:evenodd;stroke:#000000;stroke-width:3;stroke-linecap:butt;stroke-linejoin:miter;stroke-miterlimit:4;stroke-dasharray:none;stroke-opacity:1" />
      <path
         id="path3288"
         d="M -114.57236,641.37671 C -118.6383,608.14316 -130.59236,581.01604 -147.05402,567.66659 C -163.04027,554.70269 -178.19617,549.48331 -199.85442,549.48331 C -217.63725,549.48331 -226.16696,551.28876 -240.34295,558.05336 C -254.61479,564.86375 -260.42185,570.45559 -266.7314,583.46405 C -269.46155,589.09289 -272.15202,593.23204 -272.71017,592.66221 C -273.26833,592.09241 -275.34883,583.44175 -277.33349,573.43856 C -281.16663,554.11859 -287.47322,538.14694 -294.57906,529.76344 C -301.58927,521.49269 -329.03827,505.19759 -335.95996,505.19759 C -338.09973,505.19759 -339.62459,467.55871 -339.62459,414.74242 L -339.62459,380.46101 L -314.26745,381.38404 C -246.81277,383.83942 -212.22487,389.07428 -179.17436,401.83029 C -169.89106,405.41326 -161.97189,408.02108 -161.57629,407.62548 C -161.18066,407.22988 -163.09769,397.99068 -165.83629,387.09391 C -173.87919,355.09154 -173.96372,346.21408 -166.57883,309.08514 C -164.89435,300.61619 -163.83027,293.37285 -164.21419,292.98894 C -164.59813,292.60505 -169.02607,294.19878 -174.05412,296.53062 C -185.75905,301.95899 -229.77139,312.92699 -251.05316,315.71901 C -260.08887,316.90444 -278.08887,318.25046 -291.05316,318.71019 C -304.01745,319.16995 -319.63842,319.92309 -325.76645,320.38389 L -336.90826,321.22176 L -336.48076,271.89829 C -336.24556,244.77039 -335.51719,222.03996 -334.8621,221.38622 C -331.65007,218.18075 -265.1372,222.59114 -244.24303,227.39506 C -237.14912,229.02611 -213.40619,237.50494 -196.56052,244.42299 C -194.56763,245.24145 -194.87289,242.93239 -198.57009,229.22136 C -202.46335,214.78331 -202.9358,210.83989 -202.98883,192.34045 L -203.04823,171.62616 L -196.50735,153.41188 C -192.9099,143.39402 -190.51395,135.19759 -191.183,135.19759 C -191.85207,135.19759 -197.72155,137.14078 -204.22632,139.51578 C -218.66925,144.78914 -245.64082,151.50674 -263.9103,154.38078 C -279.74822,156.87231 -312.68497,159.46916 -328.55316,159.47749 L -339.62459,159.48331 L -339.62459,146.26031 C -339.62459,132.66609 -337.0977,107.31942 -333.1098,80.911881 C -330.93203,66.490753 -325.82552,46.718153 -319.67503,28.891767 C -318.07175,24.24501 -316.95002,20.253124 -317.1822,20.020924 C -317.41437,19.788724 -321.61933,20.848367 -326.52652,22.375653 C -352.47575,30.451981 -386.22296,29.136653 -422.17457,18.647724 L -425.4388,17.695367 L -422.49926,25.15321 C -416.98475,39.143553 -413.82647,53.040153 -409.66467,81.626167 C -406.10166,106.09901 -401.05316,148.81539 -401.05316,154.48944 C -401.05316,156.80399 -406.84182,157.95158 -425.9194,159.41924 C -448.94725,161.19082 -466.2217,159.20452 -493.80006,151.61406 C -506.82495,148.02921 -524.18616,142.87694 -532.38046,140.16464 C -540.57473,137.45232 -547.4297,135.38586 -547.61365,135.57252 C -547.79756,135.75916 -547.36687,138.80474 -546.65652,142.34045 C -545.94613,145.87616 -544.9977,162.26902 -544.54885,178.76902 C -543.78526,206.84011 -543.95599,209.82534 -547.20465,225.19759 C -549.1142,234.23331 -550.49563,241.83825 -550.27452,242.09745 C -550.05339,242.35666 -548.37027,241.62071 -546.53425,240.46201 C -543.17527,238.34209 -502.41665,227.21411 -482.48173,222.97418 C -470.05005,220.33012 -430.37276,218.61138 -416.37385,220.11054 L -406.76745,221.13928 L -406.76745,271.02558 L -406.76745,320.91188 L -415.70473,320.91188 C -437.2871,320.91188 -536.03773,306.15226 -563.54327,298.81541 C -573.94853,296.03989 -582.69879,293.76902 -582.98823,293.76902 C -583.27767,293.76902 -582.62149,299.07259 -581.53002,305.55474 C -580.43856,312.03688 -579.15425,325.69759 -578.67597,335.91188 C -577.90677,352.33868 -578.23967,356.71044 -581.55833,373.76902 C -583.62186,384.37616 -585.91467,395.14402 -586.65342,397.69759 C -588.28933,403.35236 -587.11365,403.56139 -576.71837,399.46396 C -552.52227,389.92676 -505.53937,383.81011 -438.37809,381.45364 L -410.70299,380.48262 L -411.61085,422.48292 C -412.1101,445.58315 -412.90133,473.27036 -413.36907,484.01011 C -414.20047,503.09969 -414.29605,503.55611 -417.63697,504.39462 C -426.28212,506.56439 -441.00235,516.38922 -452.09257,527.39146 C -465.56982,540.76182 -471.34026,551.25679 -477.67365,573.91709 L -481.50813,587.63656 L -495.20922,573.83746 C -507.06446,561.89735 -510.35376,559.43821 -519.62459,555.58408 C -537.72937,548.05741 -542.01462,547.41205 -555.60753,550.16475 C -580.35727,555.17684 -595.94557,563.65936 -609.83789,579.67481 C -622.65193,594.44719 -631.3143,609.25958 -640.527,632.15224 C -641.7967,635.30739 -642.37933,634.72952 -649.1689,623.58081 C -687.76055,560.21194 -709.18353,505.40601 -718.05916,447.34045 C -725.32605,399.79935 -726.05976,385.51232 -725.94576,293.76902 C -725.85055,217.16336 -725.32899,197.51754 -721.35649,120.91188 C -718.89145,73.376167 -716.44423,23.494424 -715.91819,10.063553 L -714.96176,-14.35619 L -373.58237,-15.392305 C -185.8237,-15.962162 -32.015249,-16.223276 -31.785799,-15.972548 C -31.334269,-15.479205 -24.998088,63.60221 -22.248988,103.05474 C -20.01473,135.11832 -20.121288,332.50932 -22.390845,365.91188 C -28.426459,454.74248 -46.255399,525.86156 -78.658949,590.36396 C -86.809829,606.58906 -109.28446,645.32134 -112.40407,648.51954 C -113.03667,649.16801 -114.01236,645.95375 -114.57235,641.37668 L -114.57236,641.37671 z"
         style="opacity:1;fill:#fe0000;fill-opacity:1;fill-rule:nonzero;stroke:#000000;stroke-width:3;stroke-linejoin:round;stroke-miterlimit:4;stroke-dasharray:none;stroke-dashoffset:0;stroke-opacity:1" />
      <path
         id="path3290"
         d="M -425.42729,819.12529 C -476.17836,793.79896 -499.76322,780.26662 -526.05316,761.38889 C -570.08723,729.76982 -590.30559,709.61988 -620.06465,667.69545 C -641.04875,638.13319 -640.48545,639.31559 -637.44389,631.21452 C -629.94245,611.23468 -617.15596,590.43606 -604.39282,577.45329 C -585.18916,557.91919 -551.91237,546.65606 -532.34025,553.06584 C -517.28512,557.99635 -510.52743,562.42426 -495.74286,577.04625 C -487.71506,584.98576 -480.86996,591.19282 -480.53156,590.83968 C -480.19313,590.48652 -477.96982,583.44759 -475.59083,575.19759 C -470.14315,556.30591 -465.91762,547.19206 -457.70017,536.61035 C -446.30209,521.93282 -426.86756,508.87046 -409.57563,504.26472 C -397.13417,500.95094 -363.11187,500.87192 -348.65587,504.12326 C -329.34013,508.46759 -310.70199,517.74014 -299.33946,528.65828 C -290.90263,536.76512 -283.38122,553.78026 -279.71429,573.05474 C -278.06997,581.69759 -275.85329,591.98331 -274.78826,595.91188 C -272.93277,602.75621 -272.79045,602.90261 -271.38332,599.41482 C -266.61633,587.59925 -261.02372,576.75398 -257.63363,572.75138 C -252.32945,566.48878 -239.41319,558.93361 -228.07213,555.45974 C -182.45097,541.48562 -138.36417,563.31364 -124.72979,606.62616 C -121.30006,617.52126 -117.60835,634.93151 -116.2307,646.70752 C -115.35096,654.22774 -116.80622,656.73112 -139.05422,685.96901 C -165.90477,721.25555 -174.4886,728.60145 -236.05316,768.97961 C -279.121,797.22641 -288.47472,802.78949 -309.32082,812.55546 C -322.92787,818.93008 -377.265,842.34188 -378.44766,842.33959 C -378.70212,842.33902 -399.84296,831.89262 -425.42732,819.12526 L -425.42729,819.12529 z"
         style="opacity:1;fill:#2909b6;fill-opacity:1;fill-rule:nonzero;stroke:#000000;stroke-width:3;stroke-linejoin:round;stroke-miterlimit:4;stroke-dasharray:none;stroke-dashoffset:0;stroke-opacity:1" />
    </g>
  </g>
</svg>
