<?xml version="1.0" encoding="UTF-8" standalone="no"?>
<!-- Created with Inkscape (http://www.inkscape.org/) -->
<svg
   xmlns:dc="http://purl.org/dc/elements/1.1/"
   xmlns:cc="http://creativecommons.org/ns#"
   xmlns:rdf="http://www.w3.org/1999/02/22-rdf-syntax-ns#"
   xmlns:svg="http://www.w3.org/2000/svg"
   xmlns="http://www.w3.org/2000/svg"
   xmlns:xlink="http://www.w3.org/1999/xlink"
   xmlns:sodipodi="http://sodipodi.sourceforge.net/DTD/sodipodi-0.dtd"
   xmlns:inkscape="http://www.inkscape.org/namespaces/inkscape"
   width="744.09448819"
   height="1052.3622047"
   id="svg2"
   inkscape:label="Pozadie"
   sodipodi:version="0.32"
   inkscape:version="0.46"
   sodipodi:docname="portret.svg"
   inkscape:output_extension="org.inkscape.output.svg.inkscape">
  <defs
     id="defs3381">
    <inkscape:perspective
       sodipodi:type="inkscape:persp3d"
       inkscape:vp_x="0 : 526.18109 : 1"
       inkscape:vp_y="0 : 1000 : 0"
       inkscape:vp_z="744.09448 : 526.18109 : 1"
       inkscape:persp3d-origin="372.04724 : 350.78739 : 1"
       id="perspective3387" />
    <inkscape:perspective
       id="perspective3396"
       inkscape:persp3d-origin="372.04724 : 350.78739 : 1"
       inkscape:vp_z="744.09448 : 526.18109 : 1"
       inkscape:vp_y="0 : 1000 : 0"
       inkscape:vp_x="0 : 526.18109 : 1"
       sodipodi:type="inkscape:persp3d" />
  </defs>
  <sodipodi:namedview
     id="base"
     pagecolor="#ffffff"
     bordercolor="#666666"
     borderopacity="1.0"
     inkscape:pageopacity="0.0"
     inkscape:pageshadow="2"
     inkscape:zoom="0.24748737"
     inkscape:cx="-796.59728"
     inkscape:cy="1447.9012"
     inkscape:document-units="px"
     inkscape:current-layer="layer1"
     showgrid="false"
     inkscape:window-width="1280"
     inkscape:window-height="968"
     inkscape:window-x="-4"
     inkscape:window-y="-4" />
  <metadata
     id="metadata3384">
    <rdf:RDF>
      <cc:Work
         rdf:about="">
        <dc:format>image/svg+xml</dc:format>
        <dc:type
           rdf:resource="http://purl.org/dc/dcmitype/StillImage" />
      </cc:Work>
    </rdf:RDF>
  </metadata>
  <g
     inkscape:label="Vrstva 1"
     inkscape:groupmode="layer"
     id="layer1">
    <image
       y="-1130.5154"
       x="-2050.532"
       id="image3398"
       height="1091.4286"
       width="873.14288"
       sodipodi:absref="C:\Documents and Settings\sisilaa.GYMZA\Desktop\pastedpic_09212011_082358.png"
       xlink:href="pastedpic_09212011_082358.png" />
    <path
       style="fill:none;fill-rule:evenodd;stroke:#000000;stroke-width:1px;stroke-linecap:butt;stroke-linejoin:miter;stroke-opacity:1"
       d="M -1867.6751,-440.76047 C -1853.013,-414.2334 -1846.0445,-373.78274 -1833.3894,-346.47475 C -1824.6725,-327.66487 -1806.8888,-307.28105 -1792.6751,-292.18904 C -1774.4198,-272.80551 -1750.4916,-250.77911 -1728.7466,-238.26046 C -1702.3131,-223.04271 -1663.4819,-208.24284 -1633.0323,-203.97475 C -1592.1859,-198.24936 -1538.1238,-222.00181 -1499.1037,-235.04618 C -1471.1316,-244.39719 -1438.0891,-268.97112 -1423.0323,-294.3319 C -1408.9837,-317.99439 -1390.5877,-347.47448 -1380.1751,-372.18904 C -1371.8552,-391.93652 -1365.8713,-419.47835 -1362.6751,-440.76047 C -1361.975,-445.42247 -1361.547,-452.30312 -1359.1037,-456.47475 C -1354.5797,-464.19882 -1344.8684,-471.26642 -1339.818,-477.54618 C -1336.1381,-482.1218 -1336.3942,-489.53017 -1334.4609,-497.18904 C -1329.4612,-516.99533 -1316.0982,-545.18969 -1313.7465,-567.18904 C -1310.8364,-594.41239 -1308.5896,-634.0969 -1314.1036,-658.9748 C -1316.0991,-667.9779 -1332.4253,-665.7529 -1335.5323,-662.9033 C -1340.0874,-658.7255 -1317.6367,-797.0354 -1329.1037,-852.9033 C -1339.1453,-901.8272 -1366.12,-962.1711 -1399.1037,-998.6176 C -1428.6416,-1031.2567 -1487.7197,-1058.7564 -1529.1037,-1071.4748 C -1575.6454,-1085.7782 -1637.7326,-1086.0548 -1684.1037,-1081.4748 C -1722.0714,-1077.7247 -1770.9524,-1066.5609 -1803.3894,-1046.4748 C -1834.496,-1027.2125 -1860.6889,-988.5282 -1879.818,-957.9033 C -1898.411,-928.1366 -1914.7103,-882.8293 -1923.3894,-848.6176 C -1931.0298,-818.5002 -1935.0013,-776.8133 -1933.9251,-745.7605 C -1932.826,-714.0489 -1915.8894,-641.8319 -1915.8894,-641.8319 C -1915.8894,-641.8319 -1924.2249,-638.52019 -1927.318,-636.29618 C -1930.3014,-634.15097 -1935.3608,-631.01956 -1934.9965,-627.54618 C -1929.8328,-578.3091 -1920.5049,-503.67386 -1888.7465,-458.61761 C -1883.405,-451.03951 -1872.1601,-448.87489 -1867.6751,-440.76047 z"
       id="path3402"
       sodipodi:nodetypes="csssssssssssssssssssssscssss" />
    <path
       style="fill:none;fill-rule:evenodd;stroke:#000000;stroke-width:1px;stroke-linecap:butt;stroke-linejoin:miter;stroke-opacity:1"
       d="M -1805.5322,-629.33189 C -1808.7465,-632.27833 -1780.3281,-651.509 -1766.9608,-655.7605 C -1753.4817,-660.0475 -1733.1627,-661.1637 -1719.818,-656.4748 C -1706.1765,-651.6815 -1682.6751,-625.76047 -1682.6751,-625.76047 C -1682.6751,-625.76047 -1701.6118,-628.26497 -1708.3894,-625.04618 C -1716.7008,-621.09895 -1735.8614,-614.26111 -1749.1037,-614.33189 C -1766.6199,-614.42552 -1805.5322,-629.33189 -1805.5322,-629.33189 z"
       id="path3404"
       sodipodi:nodetypes="csscsss" />
    <path
       style="fill:none;fill-rule:evenodd;stroke:#000000;stroke-width:1px;stroke-linecap:butt;stroke-linejoin:miter;stroke-opacity:1"
       d="M -1554.4609,-635.40333 C -1554.4609,-635.40333 -1531.4877,-658.0046 -1519.1037,-662.189 C -1505.096,-666.9221 -1483.9693,-666.4737 -1469.818,-662.189 C -1457.9865,-658.6068 -1438.0322,-641.83189 -1438.0322,-641.83189 C -1438.0322,-641.83189 -1459.7853,-627.80104 -1471.2465,-625.04618 C -1484.1643,-621.94121 -1505.0376,-619.97641 -1517.318,-625.04618 C -1527.7805,-629.36547 -1554.4609,-635.40333 -1554.4609,-635.40333 z"
       id="path3406"
       sodipodi:nodetypes="csscssc" />
    <path
       sodipodi:type="arc"
       style="opacity:1;fill:none;fill-opacity:1;fill-rule:nonzero;stroke:#000000;stroke-width:1;stroke-linejoin:round;stroke-miterlimit:4;stroke-dasharray:none;stroke-dashoffset:0;stroke-opacity:1"
       id="path3410"
       sodipodi:cx="-1777.6786"
       sodipodi:cy="-240.67354"
       sodipodi:rx="16.25"
       sodipodi:ry="14.464286"
       d="M -1761.4286,-240.67354 A 16.25,14.464286 0 1 1 -1793.9286,-240.67354 A 16.25,14.464286 0 1 1 -1761.4286,-240.67354 z"
       transform="matrix(1.1798279,0,0,1.2761029,353.25105,-330.42197)" />
    <path
       transform="matrix(0.3173183,0,0,0.3432118,-1179.6566,-556.20772)"
       d="M -1761.4286,-240.67354 A 16.25,14.464286 0 1 1 -1793.9286,-240.67354 A 16.25,14.464286 0 1 1 -1761.4286,-240.67354 z"
       sodipodi:ry="14.464286"
       sodipodi:rx="16.25"
       sodipodi:cy="-240.67354"
       sodipodi:cx="-1777.6786"
       id="path3921"
       style="opacity:1;fill:none;fill-opacity:1;fill-rule:nonzero;stroke:#000000;stroke-width:1;stroke-linejoin:round;stroke-miterlimit:4;stroke-dasharray:none;stroke-dashoffset:0;stroke-opacity:1"
       sodipodi:type="arc" />
    <path
       sodipodi:type="arc"
       style="opacity:1;fill:none;fill-opacity:1;fill-rule:nonzero;stroke:#000000;stroke-width:1;stroke-linejoin:round;stroke-miterlimit:4;stroke-dasharray:none;stroke-dashoffset:0;stroke-opacity:1"
       id="path3923"
       sodipodi:cx="-1777.6786"
       sodipodi:cy="-240.67354"
       sodipodi:rx="16.25"
       sodipodi:ry="14.464286"
       d="M -1761.4286,-240.67354 A 16.25,14.464286 0 1 1 -1793.9286,-240.67354 A 16.25,14.464286 0 1 1 -1761.4286,-240.67354 z"
       transform="matrix(0.3173183,0,0,0.3432118,-932.51374,-565.49343)" />
    <path
       transform="matrix(1.1798279,0,0,1.2761029,601.46535,-338.9934)"
       d="M -1761.4286,-240.67354 A 16.25,14.464286 0 1 1 -1793.9286,-240.67354 A 16.25,14.464286 0 1 1 -1761.4286,-240.67354 z"
       sodipodi:ry="14.464286"
       sodipodi:rx="16.25"
       sodipodi:cy="-240.67354"
       sodipodi:cx="-1777.6786"
       id="path3925"
       style="opacity:1;fill:none;fill-opacity:1;fill-rule:nonzero;stroke:#000000;stroke-width:1;stroke-linejoin:round;stroke-miterlimit:4;stroke-dasharray:none;stroke-dashoffset:0;stroke-opacity:1"
       sodipodi:type="arc" />
    <path
       style="fill:none;fill-rule:evenodd;stroke:#000000;stroke-width:1px;stroke-linecap:butt;stroke-linejoin:miter;stroke-opacity:1"
       d="M -1716.9608,-374.3319 C -1717.4673,-374.19822 -1715.3946,-373.55952 -1715.3946,-373.55952 C -1715.3946,-373.55952 -1682.0062,-355.22026 -1666.6037,-350.04618 C -1654.792,-346.07832 -1638.1767,-339.76213 -1625.8894,-341.8319 C -1621.1057,-342.6377 -1615.7931,-349.95913 -1611.9608,-350.04618 C -1605.631,-350.18996 -1592.6751,-341.47475 -1592.6751,-341.47475 C -1592.6751,-341.47475 -1581.5297,-342.28992 -1576.9608,-343.61761 C -1552.2843,-350.7884 -1531.4765,-363.91119 -1499.1037,-379.3319 C -1493.4441,-382.02783 -1528.0414,-384.00387 -1540.1752,-387.18904 C -1552.5299,-390.43222 -1568.7052,-400.81726 -1580.5322,-400.76047 C -1592.3592,-400.70367 -1614.1037,-388.61761 -1614.1037,-388.61761 C -1614.1037,-388.61761 -1637.2087,-399.56006 -1647.6751,-398.61761 C -1656.4085,-397.83121 -1664.4124,-389.73028 -1674.818,-386.11761 C -1685.2236,-382.50495 -1675.2541,-385.34986 -1716.9608,-374.3319 z"
       id="path3927"
       sodipodi:nodetypes="ccssscssszcszs" />
    <path
       style="fill:none;fill-rule:evenodd;stroke:#000000;stroke-width:1px;stroke-linecap:butt;stroke-linejoin:miter;stroke-opacity:1"
       d="M -1716.2465,-374.3319 L -1499.818,-379.3319"
       id="path3931" />
    <path
       style="fill:none;fill-rule:evenodd;stroke:#000000;stroke-width:1px;stroke-linecap:butt;stroke-linejoin:miter;stroke-opacity:1"
       d="M -1359.5173,-455.88222 L -1351.5841,-613.37936 L -1329.1713,-662.8768"
       id="path3935"
       sodipodi:nodetypes="ccc" />
    <path
       style="fill:none;fill-rule:evenodd;stroke:#000000;stroke-width:1px;stroke-linecap:butt;stroke-linejoin:miter;stroke-opacity:1"
       d="M -1867.267,-441.65343 C -1867.267,-441.65343 -1880.7072,-572.07168 -1902.6223,-622.97581 C -1905.3871,-629.39794 -1916.1738,-641.93784 -1916.1738,-641.93784"
       id="path3937"
       sodipodi:nodetypes="csc" />
    <path
       style="fill:none;fill-rule:evenodd;stroke:#000000;stroke-width:1px;stroke-linecap:butt;stroke-linejoin:miter;stroke-opacity:1"
       d="M -1682.6183,-684.4218 C -1701.2921,-682.1453 -1725.1043,-692.0094 -1744.0284,-693.1814 C -1758.877,-694.101 -1779.8767,-696.0695 -1793.5258,-690.151 C -1810.9317,-682.6033 -1826.1675,-662.124 -1839.4878,-646.7144 C -1843.049,-642.59464 -1845.9611,-648.8498 -1847.0639,-651.2601 C -1851.479,-660.9101 -1841.4968,-679.4867 -1836.003,-687.1818 C -1826.2797,-700.8011 -1806.826,-709.4218 -1797.801,-714.7159 C -1782.4672,-723.7107 -1759.1701,-720.0559 -1742.5131,-719.4708 C -1728.9951,-718.9959 -1711.1434,-716.046 -1698.7807,-710.8232 C -1692.8294,-708.309 -1684.3394,-706.0171 -1681.3989,-700.7576 C -1678.5881,-695.7301 -1676.9008,-685.1188 -1682.6183,-684.4218 z"
       id="path3939"
       sodipodi:nodetypes="cssssssssss" />
    <path
       style="fill:none;fill-rule:evenodd;stroke:#000000;stroke-width:1px;stroke-linecap:butt;stroke-linejoin:miter;stroke-opacity:1"
       d="M -1565.2821,-705.3899 C -1561.1177,-715.0314 -1542.8871,-723.2288 -1529.876,-727.0215 C -1511.5944,-732.3506 -1490.7649,-734.7973 -1471.7415,-733.9447 C -1457.5513,-733.3086 -1438.4828,-731.6108 -1425.9888,-724.8533 C -1418.7316,-720.9282 -1405.4013,-709.6848 -1401.0816,-702.6553 C -1394.7094,-692.2857 -1380.872,-676.3139 -1387.9496,-666.4124 C -1389.7118,-663.947 -1400.9745,-672.4195 -1403.0511,-674.6267 C -1409.4594,-681.4376 -1418.2511,-689.2318 -1426.9989,-694.2275 C -1436.1906,-699.4766 -1446.153,-699.9991 -1456.7012,-700.8801 C -1470.7731,-702.0555 -1473.2673,-703.1277 -1501.8876,-697.8497 C -1515.3622,-695.3647 -1526.1959,-694.2498 -1539.6966,-691.9113 C -1546.9618,-690.6528 -1560.8495,-685.1774 -1567.1544,-687.1564 C -1572.8531,-688.9451 -1565.2821,-705.3899 -1565.2821,-705.3899 z"
       id="path3941"
       sodipodi:nodetypes="cssssssssssss" />
    <path
       style="fill:none;fill-rule:evenodd;stroke:#000000;stroke-width:1px;stroke-linecap:butt;stroke-linejoin:miter;stroke-opacity:1"
       d="M -1657.6751,-655.0462 C -1657.6751,-655.0462 -1651.6067,-622.16718 -1650.5322,-607.90332 C -1649.5664,-595.0825 -1647.286,-577.48677 -1650.5322,-565.04618 C -1653.6326,-553.16413 -1664.592,-540.07943 -1670.5322,-529.33189 C -1677.0263,-517.58217 -1689.7279,-503.28415 -1691.9608,-490.04618 C -1693.0448,-483.61972 -1692.4033,-473.75209 -1688.3894,-468.61761 C -1684.0743,-463.09791 -1675.1534,-457.58666 -1668.3894,-455.76047 C -1659.6392,-453.39803 -1646.7082,-452.21674 -1637.6751,-451.47475 C -1623.5652,-450.31576 -1603.9145,-452.30521 -1589.818,-453.61761 C -1578.6393,-454.65836 -1562.6834,-455.8908 -1553.3894,-462.18904 C -1546.8934,-466.59116 -1540.2269,-475.98871 -1538.3894,-483.61761 C -1536.5656,-491.1894 -1539.0593,-502.10419 -1541.9608,-509.33189 C -1547.2784,-522.57816 -1564.7403,-534.56326 -1569.818,-547.90332 C -1576.5612,-565.61888 -1575.4961,-591.81982 -1576.2465,-610.76047 C -1576.6198,-620.18408 -1577.1486,-632.89758 -1575.5322,-642.18904 C -1574.7192,-646.8623 -1570.5322,-657.189 -1570.5322,-657.189"
       id="path3943"
       sodipodi:nodetypes="cssssssssssssssc" />
    <path
       sodipodi:type="arc"
       style="opacity:1;fill:none;fill-opacity:1;fill-rule:nonzero;stroke:#000000;stroke-width:1;stroke-linejoin:round;stroke-miterlimit:4;stroke-dasharray:none;stroke-dashoffset:0;stroke-opacity:1"
       id="path3945"
       sodipodi:cx="-1689.2858"
       sodipodi:cy="-75.494965"
       sodipodi:rx="13.571428"
       sodipodi:ry="8.5714283"
       d="M -1675.7143,-75.494965 A 13.571428,8.5714283 0 1 1 -1702.8572,-75.494965 A 13.571428,8.5714283 0 1 1 -1675.7143,-75.494965 z"
       transform="matrix(0.9396169,0.3422282,-0.3422282,0.9396169,-95.516049,177.58289)" />
    <path
       d="M -1675.7143,-75.494965 A 13.571428,8.5714283 0 1 1 -1702.8572,-75.494965 A 13.571428,8.5714283 0 1 1 -1675.7143,-75.494965 z"
       sodipodi:ry="8.5714283"
       sodipodi:rx="13.571428"
       sodipodi:cy="-75.494965"
       sodipodi:cx="-1689.2858"
       id="path3947"
       style="opacity:1;fill:none;fill-opacity:1;fill-rule:nonzero;stroke:#000000;stroke-width:1;stroke-linejoin:round;stroke-miterlimit:4;stroke-dasharray:none;stroke-dashoffset:0;stroke-opacity:1"
       sodipodi:type="arc"
       transform="matrix(0.9091519,-0.4164647,0.4164647,0.9091519,-5.4168494,-1108.3305)" />
    <path
       style="fill:none;fill-rule:evenodd;stroke:#000000;stroke-width:1px;stroke-linecap:butt;stroke-linejoin:miter;stroke-opacity:1"
       d="M -1892.1394,-591.83189 C -1892.1394,-591.83189 -1888.025,-675.474 -1877.6751,-713.6176 C -1873.4015,-729.3676 -1860.525,-747.8689 -1856.2465,-763.6176 C -1845.4876,-803.22 -1858.461,-875.5814 -1839.1037,-899.3319 C -1825.8891,-915.5456 -1805.0489,-935.4383 -1784.818,-939.3319 C -1756.0491,-944.8686 -1717.1211,-933.2367 -1688.0322,-931.8319 C -1648.9634,-929.9451 -1596.0656,-932.6957 -1556.9608,-931.8319 C -1539.8168,-931.4532 -1517.1141,-933.1756 -1500.5322,-937.5462 C -1490.8664,-940.0938 -1469.7095,-943.5111 -1460.5322,-942.189 C -1435.4905,-938.5815 -1418.234,-905.3373 -1407.6751,-884.3319 C -1395.2743,-859.6625 -1394.5605,-827.1348 -1390.1751,-793.9748 C -1388.1515,-778.6735 -1374.3287,-760.0347 -1372.6751,-744.689 C -1368.3819,-704.8467 -1351.4251,-613.79618 -1351.4251,-613.79618 L -1351.3805,-613.79618"
       id="path3949"
       sodipodi:nodetypes="cssssssssssscc" />
    <path
       style="fill:none;fill-rule:evenodd;stroke:#000000;stroke-width:1px;stroke-linecap:butt;stroke-linejoin:miter;stroke-opacity:1"
       d="M -1823.3894,-328.97475 L -1821.3358,-254.68904 L -1890.5322,-229.33189 L -2050.5322,-159.33189 L -2049.1037,-37.903324 L -1174.818,-40.760464 L -1176.2465,-207.90332 L -1386.2465,-285.04618 L -1390.7108,-345.04618 L -1391.068,-345.04618"
       id="path3951"
       sodipodi:nodetypes="cccccccccc" />
    <path
       style="fill:none;fill-rule:evenodd;stroke:#000000;stroke-width:1px;stroke-linecap:butt;stroke-linejoin:miter;stroke-opacity:1"
       d="M -1821.4251,-254.68904 C -1821.4251,-254.68904 -1824.1695,-199.75632 -1821.2465,-176.47475 C -1817.399,-145.83014 -1793.5585,-107.13843 -1773.3894,-82.903324 C -1759.5576,-66.283054 -1716.2465,-38.974754 -1716.2465,-38.974754 L -1490.1751,-39.689034 C -1490.1751,-39.689034 -1438.8836,-78.568544 -1424.1037,-100.40333 C -1406.5479,-126.33897 -1385.6505,-166.27827 -1384.1037,-197.18904 C -1382.7309,-224.62262 -1386.4251,-285.40332 -1386.4251,-285.40332 L -1386.4251,-285.5819"
       id="path3953"
       sodipodi:nodetypes="cssccsscc" />
    <image
       xlink:href="pastedpic_09212011_082358.png"
       sodipodi:absref="C:\Documents and Settings\sisilaa.GYMZA\Desktop\pastedpic_09212011_082358.png"
       width="873.14288"
       height="1091.4286"
       id="image3965"
       x="-2970.4456"
       y="-1108.0643" />
    <path
       sodipodi:nodetypes="csssssssssssssssssssssscssss"
       id="path3967"
       d="M -764.58853,-440.76047 C -749.92643,-414.2334 -742.95793,-373.78274 -730.30283,-346.47475 C -721.58593,-327.66487 -703.80223,-307.28105 -689.58853,-292.18904 C -671.33323,-272.80553 -647.40503,-250.77913 -625.66003,-238.26043 C -599.22653,-223.04273 -560.39533,-208.24283 -529.94573,-203.97474 C -489.09933,-198.24934 -435.03723,-222.00183 -396.01713,-235.04613 C -368.04503,-244.39723 -335.00253,-268.97113 -319.94573,-294.3319 C -305.89713,-317.99439 -287.50113,-347.47448 -277.08853,-372.18904 C -268.76863,-391.93652 -262.78473,-419.47835 -259.58853,-440.76047 C -258.88843,-445.42247 -258.46043,-452.30312 -256.01713,-456.47475 C -251.49313,-464.19882 -241.78183,-471.26642 -236.73143,-477.54618 C -233.05153,-482.1218 -233.30763,-489.53017 -231.37433,-497.18904 C -226.37463,-516.99533 -213.01163,-545.18969 -210.65993,-567.18904 C -207.74983,-594.41239 -205.50303,-634.0969 -211.01703,-658.9748 C -213.01253,-667.9779 -229.33873,-665.7529 -232.44573,-662.9033 C -237.00083,-658.7255 -214.55013,-797.0354 -226.01713,-852.9033 C -236.05873,-901.8272 -263.03343,-962.1711 -296.01713,-998.6176 C -325.55503,-1031.2567 -384.63313,-1058.7564 -426.01713,-1071.4748 C -472.55883,-1085.7782 -534.64603,-1086.0548 -581.01713,-1081.4748 C -618.98483,-1077.7247 -667.86583,-1066.5609 -700.30283,-1046.4748 C -731.40943,-1027.2125 -757.60233,-988.5282 -776.73143,-957.9033 C -795.32443,-928.1366 -811.62373,-882.8293 -820.30283,-848.6176 C -827.94323,-818.5002 -831.91473,-776.8133 -830.83853,-745.7605 C -829.73943,-714.0489 -812.80283,-641.8319 -812.80283,-641.8319 C -812.80283,-641.8319 -821.13833,-638.52019 -824.23143,-636.29618 C -827.21483,-634.15097 -832.27423,-631.01956 -831.90993,-627.54618 C -826.74623,-578.3091 -817.41833,-503.67386 -785.65993,-458.61761 C -780.31843,-451.03951 -769.07353,-448.87489 -764.58853,-440.76047 z"
       style="fill:none;fill-rule:evenodd;stroke:#000000;stroke-width:1px;stroke-linecap:butt;stroke-linejoin:miter;stroke-opacity:1" />
    <path
       sodipodi:nodetypes="csscsss"
       id="path3969"
       d="M -702.44563,-629.33189 C -705.65993,-632.27833 -677.24153,-651.509 -663.87423,-655.7605 C -650.39513,-660.0475 -630.07613,-661.1637 -616.73143,-656.4748 C -603.08993,-651.6815 -579.58853,-625.76047 -579.58853,-625.76047 C -579.58853,-625.76047 -598.52523,-628.26497 -605.30283,-625.04618 C -613.61423,-621.09895 -632.77483,-614.26111 -646.01713,-614.33189 C -663.53333,-614.42552 -702.44563,-629.33189 -702.44563,-629.33189 z"
       style="fill:none;fill-rule:evenodd;stroke:#000000;stroke-width:1px;stroke-linecap:butt;stroke-linejoin:miter;stroke-opacity:1" />
    <path
       sodipodi:nodetypes="csscssc"
       id="path3971"
       d="M -451.37433,-635.40333 C -451.37433,-635.40333 -428.40113,-658.0046 -416.01713,-662.189 C -402.00943,-666.9221 -380.88273,-666.4737 -366.73143,-662.189 C -354.89993,-658.6068 -334.94563,-641.83189 -334.94563,-641.83189 C -334.94563,-641.83189 -356.69873,-627.80104 -368.15993,-625.04618 C -381.07773,-621.94121 -401.95103,-619.97641 -414.23143,-625.04618 C -424.69393,-629.36547 -451.37433,-635.40333 -451.37433,-635.40333 z"
       style="fill:none;fill-rule:evenodd;stroke:#000000;stroke-width:1px;stroke-linecap:butt;stroke-linejoin:miter;stroke-opacity:1" />
    <path
       transform="matrix(1.1798279,0,0,1.2761029,1456.3376,-330.42197)"
       d="M -1761.4286,-240.67354 A 16.25,14.464286 0 1 1 -1793.9286,-240.67354 A 16.25,14.464286 0 1 1 -1761.4286,-240.67354 z"
       sodipodi:ry="14.464286"
       sodipodi:rx="16.25"
       sodipodi:cy="-240.67354"
       sodipodi:cx="-1777.6786"
       id="path3973"
       style="opacity:1;fill:none;fill-opacity:1;fill-rule:nonzero;stroke:#000000;stroke-width:1;stroke-linejoin:round;stroke-miterlimit:4;stroke-dasharray:none;stroke-dashoffset:0;stroke-opacity:1"
       sodipodi:type="arc" />
    <path
       sodipodi:type="arc"
       style="opacity:1;fill:none;fill-opacity:1;fill-rule:nonzero;stroke:#000000;stroke-width:1;stroke-linejoin:round;stroke-miterlimit:4;stroke-dasharray:none;stroke-dashoffset:0;stroke-opacity:1"
       id="path3975"
       sodipodi:cx="-1777.6786"
       sodipodi:cy="-240.67354"
       sodipodi:rx="16.25"
       sodipodi:ry="14.464286"
       d="M -1761.4286,-240.67354 A 16.25,14.464286 0 1 1 -1793.9286,-240.67354 A 16.25,14.464286 0 1 1 -1761.4286,-240.67354 z"
       transform="matrix(0.3173183,0,0,0.3432118,-76.570034,-556.20772)" />
    <path
       transform="matrix(0.3173183,0,0,0.3432118,170.57287,-565.49343)"
       d="M -1761.4286,-240.67354 A 16.25,14.464286 0 1 1 -1793.9286,-240.67354 A 16.25,14.464286 0 1 1 -1761.4286,-240.67354 z"
       sodipodi:ry="14.464286"
       sodipodi:rx="16.25"
       sodipodi:cy="-240.67354"
       sodipodi:cx="-1777.6786"
       id="path3977"
       style="opacity:1;fill:none;fill-opacity:1;fill-rule:nonzero;stroke:#000000;stroke-width:1;stroke-linejoin:round;stroke-miterlimit:4;stroke-dasharray:none;stroke-dashoffset:0;stroke-opacity:1"
       sodipodi:type="arc" />
    <path
       sodipodi:type="arc"
       style="opacity:1;fill:none;fill-opacity:1;fill-rule:nonzero;stroke:#000000;stroke-width:1;stroke-linejoin:round;stroke-miterlimit:4;stroke-dasharray:none;stroke-dashoffset:0;stroke-opacity:1"
       id="path3979"
       sodipodi:cx="-1777.6786"
       sodipodi:cy="-240.67354"
       sodipodi:rx="16.25"
       sodipodi:ry="14.464286"
       d="M -1761.4286,-240.67354 A 16.25,14.464286 0 1 1 -1793.9286,-240.67354 A 16.25,14.464286 0 1 1 -1761.4286,-240.67354 z"
       transform="matrix(1.1798279,0,0,1.2761029,1704.5519,-338.9934)" />
    <path
       sodipodi:nodetypes="ccssscssszcszs"
       id="path3981"
       d="M -613.87423,-374.3319 C -614.38073,-374.19822 -612.30803,-373.55952 -612.30803,-373.55952 C -612.30803,-373.55952 -578.91963,-355.22026 -563.51713,-350.04618 C -551.70543,-346.07832 -535.09013,-339.76213 -522.80283,-341.8319 C -518.01913,-342.6377 -512.70653,-349.95913 -508.87423,-350.04618 C -502.54443,-350.18996 -489.58853,-341.47475 -489.58853,-341.47475 C -489.58853,-341.47475 -478.44313,-342.28992 -473.87423,-343.61761 C -449.19773,-350.7884 -428.38993,-363.91119 -396.01713,-379.3319 C -390.35753,-382.02783 -424.95483,-384.00387 -437.08863,-387.18904 C -449.44333,-390.43222 -465.61863,-400.81726 -477.44563,-400.76047 C -489.27263,-400.70367 -511.01713,-388.61761 -511.01713,-388.61761 C -511.01713,-388.61761 -534.12213,-399.56006 -544.58853,-398.61761 C -553.32193,-397.83121 -561.32583,-389.73028 -571.73143,-386.11761 C -582.13703,-382.50495 -572.16753,-385.34986 -613.87423,-374.3319 z"
       style="fill:none;fill-rule:evenodd;stroke:#000000;stroke-width:1px;stroke-linecap:butt;stroke-linejoin:miter;stroke-opacity:1" />
    <path
       id="path3983"
       d="M -613.15993,-374.3319 L -396.73143,-379.3319"
       style="fill:none;fill-rule:evenodd;stroke:#000000;stroke-width:1px;stroke-linecap:butt;stroke-linejoin:miter;stroke-opacity:1" />
    <path
       sodipodi:nodetypes="ccc"
       id="path3985"
       d="M -256.43073,-455.88222 L -248.49753,-613.37936 L -226.08473,-662.8768"
       style="fill:none;fill-rule:evenodd;stroke:#000000;stroke-width:1px;stroke-linecap:butt;stroke-linejoin:miter;stroke-opacity:1" />
    <path
       sodipodi:nodetypes="csc"
       id="path3987"
       d="M -764.18043,-441.65343 C -764.18043,-441.65343 -777.62063,-572.07168 -799.53573,-622.97581 C -802.30053,-629.39794 -813.08723,-641.93784 -813.08723,-641.93784"
       style="fill:none;fill-rule:evenodd;stroke:#000000;stroke-width:1px;stroke-linecap:butt;stroke-linejoin:miter;stroke-opacity:1" />
    <path
       sodipodi:nodetypes="cssssssssss"
       id="path3989"
       d="M -579.53173,-684.4218 C -598.20553,-682.1453 -622.01773,-692.0094 -640.94183,-693.1814 C -655.79043,-694.101 -676.79013,-696.0695 -690.43923,-690.151 C -707.84513,-682.6033 -723.08093,-662.124 -736.40123,-646.7144 C -739.96243,-642.59464 -742.87453,-648.8498 -743.97733,-651.2601 C -748.39243,-660.9101 -738.41023,-679.4867 -732.91643,-687.1818 C -723.19313,-700.8011 -703.73943,-709.4218 -694.71443,-714.7159 C -679.38063,-723.7107 -656.08353,-720.0559 -639.42653,-719.4708 C -625.90853,-718.9959 -608.05683,-716.046 -595.69413,-710.8232 C -589.74283,-708.309 -581.25283,-706.0171 -578.31233,-700.7576 C -575.50153,-695.7301 -573.81423,-685.1188 -579.53173,-684.4218 z"
       style="fill:none;fill-rule:evenodd;stroke:#000000;stroke-width:1px;stroke-linecap:butt;stroke-linejoin:miter;stroke-opacity:1" />
    <path
       sodipodi:nodetypes="cssssssssssss"
       id="path3991"
       d="M -462.19553,-705.3899 C -458.03113,-715.0314 -439.80053,-723.2288 -426.78943,-727.0215 C -408.50783,-732.3506 -387.67833,-734.7973 -368.65493,-733.9447 C -354.46473,-733.3086 -335.39623,-731.6108 -322.90223,-724.8533 C -315.64503,-720.9282 -302.31473,-709.6848 -297.99503,-702.6553 C -291.62283,-692.2857 -277.78543,-676.3139 -284.86303,-666.4124 C -286.62523,-663.947 -297.88793,-672.4195 -299.96453,-674.6267 C -306.37283,-681.4376 -315.16453,-689.2318 -323.91233,-694.2275 C -333.10403,-699.4766 -343.06643,-699.9991 -353.61463,-700.8801 C -367.68653,-702.0555 -370.18073,-703.1277 -398.80103,-697.8497 C -412.27563,-695.3647 -423.10933,-694.2498 -436.61003,-691.9113 C -443.87523,-690.6528 -457.76293,-685.1774 -464.06783,-687.1564 C -469.76653,-688.9451 -462.19553,-705.3899 -462.19553,-705.3899 z"
       style="fill:none;fill-rule:evenodd;stroke:#000000;stroke-width:1px;stroke-linecap:butt;stroke-linejoin:miter;stroke-opacity:1" />
    <path
       sodipodi:nodetypes="cssssssssssssssc"
       id="path3993"
       d="M -554.58853,-655.0462 C -554.58853,-655.0462 -548.52013,-622.16718 -547.44563,-607.90332 C -546.47983,-595.0825 -544.19943,-577.48677 -547.44563,-565.04618 C -550.54603,-553.16413 -561.50543,-540.07943 -567.44563,-529.33189 C -573.93973,-517.58217 -586.64133,-503.28415 -588.87423,-490.04618 C -589.95823,-483.61972 -589.31673,-473.75209 -585.30283,-468.61761 C -580.98773,-463.09791 -572.06683,-457.58666 -565.30283,-455.76047 C -556.55263,-453.39803 -543.62163,-452.21674 -534.58853,-451.47475 C -520.47863,-450.31576 -500.82793,-452.30521 -486.73143,-453.61761 C -475.55273,-454.65836 -459.59683,-455.8908 -450.30283,-462.18904 C -443.80683,-466.59116 -437.14033,-475.98871 -435.30283,-483.61761 C -433.47903,-491.1894 -435.97273,-502.10419 -438.87423,-509.33189 C -444.19183,-522.57816 -461.65373,-534.56326 -466.73143,-547.90332 C -473.47463,-565.61888 -472.40953,-591.81982 -473.15993,-610.76047 C -473.53323,-620.18408 -474.06203,-632.89758 -472.44563,-642.18904 C -471.63263,-646.8623 -467.44563,-657.189 -467.44563,-657.189"
       style="fill:none;fill-rule:evenodd;stroke:#000000;stroke-width:1px;stroke-linecap:butt;stroke-linejoin:miter;stroke-opacity:1" />
    <path
       transform="matrix(0.9396169,0.3422282,-0.3422282,0.9396169,1007.5706,177.58286)"
       d="M -1675.7143,-75.494965 A 13.571428,8.5714283 0 1 1 -1702.8572,-75.494965 A 13.571428,8.5714283 0 1 1 -1675.7143,-75.494965 z"
       sodipodi:ry="8.5714283"
       sodipodi:rx="13.571428"
       sodipodi:cy="-75.494965"
       sodipodi:cx="-1689.2858"
       id="path3995"
       style="opacity:1;fill:none;fill-opacity:1;fill-rule:nonzero;stroke:#000000;stroke-width:1;stroke-linejoin:round;stroke-miterlimit:4;stroke-dasharray:none;stroke-dashoffset:0;stroke-opacity:1"
       sodipodi:type="arc" />
    <path
       transform="matrix(0.9091519,-0.4164647,0.4164647,0.9091519,1097.6698,-1108.3305)"
       sodipodi:type="arc"
       style="opacity:1;fill:none;fill-opacity:1;fill-rule:nonzero;stroke:#000000;stroke-width:1;stroke-linejoin:round;stroke-miterlimit:4;stroke-dasharray:none;stroke-dashoffset:0;stroke-opacity:1"
       id="path3997"
       sodipodi:cx="-1689.2858"
       sodipodi:cy="-75.494965"
       sodipodi:rx="13.571428"
       sodipodi:ry="8.5714283"
       d="M -1675.7143,-75.494965 A 13.571428,8.5714283 0 1 1 -1702.8572,-75.494965 A 13.571428,8.5714283 0 1 1 -1675.7143,-75.494965 z" />
    <path
       sodipodi:nodetypes="cssssssssssscc"
       id="path3999"
       d="M -789.05283,-591.83189 C -789.05283,-591.83189 -784.93843,-675.474 -774.58853,-713.6176 C -770.31493,-729.3676 -757.43843,-747.8689 -753.15993,-763.6176 C -742.40103,-803.22 -755.37443,-875.5814 -736.01713,-899.3319 C -722.80253,-915.5456 -701.96233,-935.4383 -681.73143,-939.3319 C -652.96253,-944.8686 -614.03453,-933.2367 -584.94563,-931.8319 C -545.87683,-929.9451 -492.97903,-932.6957 -453.87423,-931.8319 C -436.73023,-931.4532 -414.02753,-933.1756 -397.44563,-937.5462 C -387.77983,-940.0938 -366.62293,-943.5111 -357.44563,-942.189 C -332.40393,-938.5815 -315.14743,-905.3373 -304.58853,-884.3319 C -292.18773,-859.6625 -291.47393,-827.1348 -287.08853,-793.9748 C -285.06493,-778.6735 -271.24213,-760.0347 -269.58853,-744.689 C -265.29533,-704.8467 -248.33853,-613.79618 -248.33853,-613.79618 L -248.29393,-613.79618"
       style="fill:none;fill-rule:evenodd;stroke:#000000;stroke-width:1px;stroke-linecap:butt;stroke-linejoin:miter;stroke-opacity:1" />
    <path
       sodipodi:nodetypes="cccccccccc"
       id="path4001"
       d="M -720.30283,-328.97475 L -718.24923,-254.68903 L -787.44563,-229.33193 L -947.44563,-159.33194 L -946.01713,-37.903343 L -71.731434,-40.760443 L -73.159934,-207.90334 L -283.15993,-285.04618 L -287.62423,-345.04618 L -287.98143,-345.04618"
       style="fill:none;fill-rule:evenodd;stroke:#000000;stroke-width:1px;stroke-linecap:butt;stroke-linejoin:miter;stroke-opacity:1" />
    <path
       sodipodi:nodetypes="cssccsscc"
       id="path4003"
       d="M -718.33853,-254.68903 C -718.33853,-254.68903 -721.08293,-199.75634 -718.15993,-176.47474 C -714.31243,-145.83014 -690.47193,-107.13844 -670.30283,-82.903343 C -656.47103,-66.283043 -613.15993,-38.974743 -613.15993,-38.974743 L -387.08853,-39.689043 C -387.08853,-39.689043 -335.79703,-78.568543 -321.01713,-100.40334 C -303.46133,-126.33894 -282.56393,-166.27824 -281.01713,-197.18904 C -279.64433,-224.62263 -283.33853,-285.40332 -283.33853,-285.40332 L -283.33853,-285.5819"
       style="fill:none;fill-rule:evenodd;stroke:#000000;stroke-width:1px;stroke-linecap:butt;stroke-linejoin:miter;stroke-opacity:1" />
    <path
       style="opacity:1;fill:#ffffff;fill-opacity:1;fill-rule:nonzero;stroke:#000000;stroke-width:0.71428573;stroke-linejoin:round;stroke-miterlimit:4;stroke-dasharray:none;stroke-dashoffset:0;stroke-opacity:1"
       d="M -654.84583,-615.96902 C -655.63153,-616.16866 -660.29223,-617.28778 -665.20303,-618.45593 C -674.05853,-620.56248 -698.85963,-628.48215 -700.91723,-629.86049 C -703.29333,-631.45211 -686.77073,-643.75408 -672.55653,-650.97659 C -662.33503,-656.17034 -655.05223,-657.81577 -640.56013,-658.20557 C -618.60873,-658.79601 -611.06173,-655.39178 -590.98653,-635.84444 L -582.12733,-627.2181 L -592.05803,-627.25777 L -601.98873,-627.2975 L -610.49763,-623.85755 C -624.28773,-618.28248 -633.19923,-616.16411 -644.13153,-615.86232 C -649.23873,-615.72131 -654.06013,-615.76934 -654.84583,-615.969 L -654.84583,-615.96902 z M -632.68803,-620.07002 C -617.48723,-627.14856 -617.15933,-647.20639 -632.11963,-654.84088 C -634.87963,-656.24941 -636.61963,-656.59409 -640.91723,-656.58367 C -647.29083,-656.56822 -651.49793,-654.92372 -655.37403,-650.93265 C -659.46413,-646.72115 -660.56013,-643.84325 -660.56013,-637.31454 C -660.56013,-632.32207 -660.30363,-631.16394 -658.52983,-628.14615 C -656.44403,-624.59752 -651.85343,-620.81492 -647.83443,-619.33317 C -643.82043,-617.85327 -636.70503,-618.19939 -632.68803,-620.07 L -632.68803,-620.07002 z"
       id="path4009" />
    <path
       style="opacity:1;fill:#ffffff;fill-opacity:1;fill-rule:nonzero;stroke:#000000;stroke-width:0.71428573;stroke-linejoin:round;stroke-miterlimit:4;stroke-dasharray:none;stroke-dashoffset:0;stroke-opacity:1"
       d="M -404.11313,-623.41849 C -406.46023,-623.78722 -411.92453,-625.27475 -416.25603,-626.72411 C -420.58763,-628.17347 -429.87463,-630.84987 -436.89403,-632.67165 L -449.65643,-635.98397 L -442.60823,-642.27125 C -433.26423,-650.60664 -424.61423,-657.03728 -419.23303,-659.64898 C -414.71843,-661.84012 -406.10183,-664.12451 -402.56203,-664.06868 L -400.56013,-664.03712 L -403.06013,-662.70425 C -408.82653,-659.62993 -412.58993,-653.32124 -412.62423,-646.67171 C -412.65393,-640.93345 -411.36113,-637.40705 -407.81923,-633.56443 C -403.92253,-629.3371 -400.16613,-627.5319 -394.40573,-627.11837 C -388.35213,-626.68383 -383.53703,-628.22877 -379.28783,-631.96903 C -374.74373,-635.96904 -372.84273,-640.74475 -373.17513,-647.32664 C -373.49873,-653.73575 -376.04653,-658.30077 -381.29523,-661.87588 L -384.84583,-664.29439 L -379.84583,-663.84809 C -367.13473,-662.71354 -357.14293,-658.0236 -341.47173,-645.83612 C -337.93573,-643.08609 -336.89973,-641.9136 -337.54323,-641.3901 C -339.83093,-639.52922 -356.60373,-630.37634 -361.33783,-628.40555 C -364.27143,-627.18433 -370.03423,-625.56732 -374.14433,-624.81219 C -383.01573,-623.18228 -398.13413,-622.4792 -404.11323,-623.41851 L -404.11313,-623.41849 z"
       id="path4011" />
    <path
       style="opacity:1;fill:#00ffff;fill-opacity:1;fill-rule:nonzero;stroke:#000000;stroke-width:0.71428573;stroke-linejoin:round;stroke-miterlimit:4;stroke-dasharray:none;stroke-dashoffset:0;stroke-opacity:1"
       d="M -644.96303,-620.54417 C -654.13883,-622.40594 -660.45593,-631.63485 -658.74813,-640.68331 C -656.63813,-651.86226 -643.93893,-658.09188 -633.41723,-653.10932 C -624.02683,-648.66243 -620.44923,-638.9058 -624.91973,-629.93481 C -628.47133,-622.80752 -636.82613,-618.89318 -644.96303,-620.54416 L -644.96303,-620.54417 z M -637.08503,-634.86637 C -635.77193,-635.89927 -635.20303,-637.01897 -635.20303,-638.57035 C -635.20303,-644.46122 -643.31013,-646.35302 -645.56573,-640.9885 C -647.88503,-635.47242 -641.85163,-631.11696 -637.08503,-634.86638 L -637.08503,-634.86637 z"
       id="path4013" />
    <path
       style="opacity:1;fill:#00ffff;fill-opacity:1;fill-rule:nonzero;stroke:#000000;stroke-width:0.71428573;stroke-linejoin:round;stroke-miterlimit:4;stroke-dasharray:none;stroke-dashoffset:0;stroke-opacity:1"
       d="M -396.83333,-629.15789 C -408.05873,-631.83342 -413.90573,-643.1063 -409.21493,-653.02882 C -402.21273,-667.8404 -380.64253,-666.54482 -375.48023,-651.0026 C -371.39023,-638.68857 -383.75373,-626.04042 -396.83333,-629.1579 L -396.83333,-629.15789 z M -389.94223,-644.15209 C -388.62903,-645.18498 -388.06013,-646.30469 -388.06013,-647.85606 C -388.06013,-653.74694 -396.16723,-655.63874 -398.42283,-650.27422 C -400.74223,-644.75813 -394.70873,-640.40267 -389.94223,-644.1521 L -389.94223,-644.15209 z"
       id="path4015" />
    <path
       style="opacity:1;fill:#000000;fill-opacity:1;fill-rule:nonzero;stroke:#000000;stroke-width:0.71428573;stroke-linejoin:round;stroke-miterlimit:4;stroke-dasharray:none;stroke-dashoffset:0;stroke-opacity:1"
       d="M -642.39403,-635.07577 C -646.07243,-636.94155 -646.05313,-641.13607 -642.35913,-642.66617 C -640.55523,-643.41335 -639.93353,-643.3737 -638.47563,-642.41848 C -636.14913,-640.89409 -635.54383,-638.70515 -636.88343,-636.66062 C -638.22783,-634.60887 -640.29913,-634.01317 -642.39403,-635.07575 L -642.39403,-635.07577 z"
       id="path4017" />
    <path
       style="opacity:1;fill:#000000;fill-opacity:1;fill-rule:nonzero;stroke:#000000;stroke-width:0.71428573;stroke-linejoin:round;stroke-miterlimit:4;stroke-dasharray:none;stroke-dashoffset:0;stroke-opacity:1"
       d="M -395.25113,-644.36148 C -398.92953,-646.22727 -398.91023,-650.42178 -395.21623,-651.95189 C -393.41243,-652.69906 -392.79063,-652.65942 -391.33273,-651.7042 C -389.00623,-650.1798 -388.40103,-647.99086 -389.74063,-645.94633 C -391.08503,-643.89459 -393.15623,-643.29888 -395.25113,-644.36147 L -395.25113,-644.36148 z"
       id="path4019" />
    <path
       style="opacity:1;fill:#ffaaaa;fill-opacity:1;fill-rule:nonzero;stroke:#000000;stroke-width:2.02030516;stroke-linejoin:round;stroke-miterlimit:4;stroke-dasharray:none;stroke-dashoffset:0;stroke-opacity:1"
       d="M -549.11553,-346.92505 C -556.97463,-349.127 -573.33903,-355.72605 -585.48103,-361.58964 L -607.55743,-372.25063 L -575.23253,-373.5735 C -557.45383,-374.30103 -511.99693,-375.37169 -474.21723,-375.95273 L -405.52693,-377.00915 L -433.81113,-362.84285 C -449.36753,-355.05143 -467.73303,-347.27026 -474.62353,-345.55141 C -486.59153,-342.56596 -487.51363,-342.61095 -495.25113,-346.55833 C -505.32873,-351.69956 -511.16763,-351.7234 -517.65383,-346.64982 C -523.92343,-341.74568 -530.84573,-341.80624 -549.11553,-346.92507 L -549.11553,-346.92505 z"
       id="path4045" />
    <path
       style="opacity:1;fill:#ffccaa;fill-opacity:1;fill-rule:nonzero;stroke:#000000;stroke-width:2.02030516;stroke-linejoin:round;stroke-miterlimit:4;stroke-dasharray:none;stroke-dashoffset:0;stroke-opacity:1"
       d="M -581.29343,-381.63733 C -573.51523,-384.2475 -562.40853,-388.80731 -556.61183,-391.77027 C -543.69093,-398.37469 -541.48623,-398.4081 -524.53703,-392.25589 L -511.03333,-387.35435 L -499.69633,-392.52903 C -483.72083,-399.82096 -471.92413,-399.60291 -452.63543,-391.65917 C -444.09903,-388.14354 -431.37103,-384.56899 -424.35113,-383.71572 L -411.58783,-382.16436 L -423.27053,-380.82941 C -429.69603,-380.09523 -471.06183,-378.90888 -515.19443,-378.19309 L -595.43553,-376.89163 L -581.29343,-381.63733 z"
       id="path4047" />
    <path
       style="opacity:1;fill:#ffccaa;fill-opacity:1;fill-rule:nonzero;stroke:#000000;stroke-width:2.02030516;stroke-linejoin:round;stroke-miterlimit:4;stroke-dasharray:none;stroke-dashoffset:0;stroke-opacity:1"
       d="M -544.92793,-208.31873 C -572.18683,-214.35566 -614.42253,-232.32581 -636.47573,-247.26983 C -662.56543,-264.94923 -703.93873,-307.18816 -720.45323,-333.00438 C -729.07753,-346.48634 -733.53073,-357.31293 -744.34783,-391.09654 C -748.79513,-404.98613 -754.62663,-421.58741 -757.30683,-427.98826 C -760.67293,-436.02748 -763.76593,-451.32498 -767.30933,-477.45979 C -772.66723,-516.97672 -780.59293,-562.5872 -785.16533,-580.21592 C -787.39033,-588.79426 -787.38633,-596.30387 -785.14153,-624.66263 C -780.20973,-686.96529 -775.25333,-712.50792 -763.62443,-735.5495 C -749.95443,-762.63521 -748.71403,-769.46251 -746.00373,-832.5332 C -743.67303,-886.76952 -742.39043,-891.25068 -723.93963,-909.62392 C -716.30483,-917.22657 -704.76183,-926.62891 -698.28833,-930.518 C -687.59913,-936.93978 -684.86263,-937.65482 -668.48543,-938.30526 C -657.43993,-938.74397 -640.96733,-937.56967 -625.97443,-935.2748 C -604.83843,-932.03971 -588.94613,-931.52815 -509.57263,-931.52815 C -420.72593,-931.52815 -416.88103,-931.68812 -394.71493,-936.30698 C -366.09573,-942.27051 -353.50683,-941.6008 -341.80643,-933.49241 C -326.82443,-923.10984 -304.68013,-886.76835 -298.40583,-862.26639 C -296.77903,-855.91368 -293.67753,-836.43111 -291.51353,-818.97186 C -288.17773,-792.05806 -286.46913,-784.68007 -280.28503,-770.48454 C -275.47373,-759.44024 -271.92113,-746.86473 -269.84763,-733.53825 C -268.11873,-722.42657 -263.07983,-691.97047 -258.65003,-665.85803 C -249.59073,-612.45516 -249.82813,-619.50106 -254.05443,-529.48744 C -256.73593,-472.37523 -258.05043,-458.28405 -263.22353,-431.19551 C -272.39643,-383.16241 -278.53233,-367.7107 -309.13873,-315.5702 C -330.53603,-279.1183 -351.06643,-258.33059 -380.27313,-243.5445 C -393.92573,-236.63278 -455.28343,-215.71314 -478.25793,-210.13712 C -501.12013,-204.58824 -525.12703,-203.93354 -544.92793,-208.31875 L -544.92793,-208.31873 z M -514.90543,-344.76874 C -509.24773,-349.21897 -504.59823,-348.83175 -495.63203,-343.16355 C -488.24403,-338.49309 -474.06583,-341.11766 -449.36773,-351.72798 C -421.47593,-363.71025 -393.55283,-378.95018 -395.73743,-380.99845 C -396.67693,-381.87936 -406.62683,-384.02973 -417.84833,-385.77699 C -429.06973,-387.52429 -445.13113,-391.70879 -453.54023,-395.07595 C -472.22883,-402.55918 -481.75673,-402.75562 -498.62983,-396.00529 L -511.60973,-390.81256 L -522.78883,-394.9951 C -538.42063,-400.84376 -547.81273,-400.37432 -561.52093,-393.0592 C -567.82723,-389.69394 -577.58323,-385.66895 -583.20103,-384.11467 C -588.81893,-382.5604 -598.87013,-379.76093 -605.53713,-377.89368 L -617.65893,-374.49868 L -595.43553,-363.27776 C -554.24323,-342.47903 -526.05313,-335.99983 -514.90533,-344.76868 L -514.90543,-344.76874 z M -492.40003,-451.75501 C -462.50353,-454.53474 -450.89313,-458.06591 -443.33093,-466.67878 C -429.16423,-482.81364 -430.23403,-501.24294 -446.57483,-522.56466 C -463.51173,-544.66419 -465.10283,-547.16302 -467.57883,-555.55147 C -470.31983,-564.8374 -471.17853,-642.6858 -468.65073,-652.72605 C -467.19813,-658.49602 -467.29503,-658.44753 -470.67103,-651.71589 C -473.71353,-645.6494 -474.16373,-639.39623 -473.84013,-607.7005 C -473.45153,-569.63227 -471.12073,-551.61959 -465.42933,-542.70045 C -463.62823,-539.87799 -457.35923,-531.69852 -451.49803,-524.52391 C -440.27323,-510.78375 -436.87143,-502.50404 -436.85293,-488.87938 C -436.83793,-477.81619 -445.62813,-465.6008 -456.82953,-461.11886 C -469.30863,-456.12569 -500.29003,-453.17898 -531.34183,-454.03175 C -556.96783,-454.73544 -560.01153,-455.23852 -570.91103,-460.57115 C -583.07693,-466.52337 -588.39043,-473.80754 -588.34473,-484.47076 C -588.31533,-491.35777 -580.56153,-506.53416 -563.50693,-533.08524 C -545.98443,-560.36485 -542.77593,-570.81154 -544.84883,-593.83278 C -547.24223,-620.41284 -552.30303,-652.70477 -554.39503,-654.74635 C -555.80283,-656.12012 -556.07873,-654.82702 -555.25723,-650.70574 C -548.23363,-615.46794 -545.86403,-571.89968 -550.40033,-561.4023 C -551.74343,-558.29428 -560.18283,-543.93262 -569.15463,-529.48744 C -588.72683,-497.97498 -590.38703,-494.37193 -590.37723,-483.43044 C -590.35303,-456.2 -557.79643,-445.67463 -492.40003,-451.75503 L -492.40003,-451.75501 z M -540.27063,-468.13879 C -539.11173,-478.14049 -558.47753,-486.84542 -565.73713,-479.5859 C -572.99473,-472.32826 -562.36003,-461.23941 -549.07813,-462.21546 C -541.91753,-462.74163 -540.80983,-463.48665 -540.27073,-468.13881 L -540.27063,-468.13879 z M -463.79103,-465.716 C -451.87303,-472.98306 -453.27243,-484.03057 -466.11093,-484.03057 C -479.01843,-484.03057 -489.01213,-469.37059 -479.77313,-463.98935 C -474.58353,-460.96673 -470.93313,-461.36105 -463.79103,-465.71598 L -463.79103,-465.716 z M -615.64423,-619.59547 C -602.39373,-623.92504 -593.65733,-625.63703 -587.36643,-625.13668 C -582.35953,-624.73854 -578.26303,-624.99683 -578.26303,-625.71081 C -578.26303,-628.12059 -604.55643,-651.62738 -610.95003,-654.93361 C -626.32653,-662.88511 -655.32463,-661.76265 -673.73823,-652.50311 C -688.05123,-645.30561 -703.52193,-633.81902 -703.52193,-630.38943 C -703.52193,-628.60601 -696.37183,-625.4074 -683.82393,-621.57737 C -650.39163,-611.37268 -641.59163,-611.11691 -615.64413,-619.59541 L -615.64423,-619.59547 z M -351.24863,-631.14662 C -341.65523,-635.90038 -333.80603,-640.57745 -333.80603,-641.54016 C -333.80603,-643.66825 -350.44123,-655.95092 -359.73803,-660.68724 C -368.58063,-665.19214 -388.23353,-667.30857 -404.06653,-665.46088 C -413.74533,-664.33141 -419.24673,-662.28294 -427.30003,-656.80993 C -438.98403,-648.86951 -454.14723,-635.88953 -452.83563,-634.95102 C -452.37273,-634.61979 -442.44793,-631.48106 -430.78073,-627.9762 C -412.22023,-622.40056 -407.01173,-621.65996 -389.12933,-622.05361 C -369.53873,-622.48489 -367.96773,-622.862 -351.24863,-631.14666 L -351.24863,-631.14662 z M -722.66593,-660.20305 C -708.67063,-676.4558 -697.36303,-685.84161 -687.55383,-689.34773 C -676.60173,-693.26236 -644.05583,-692.68578 -620.28683,-688.15597 C -595.56543,-683.44464 -579.02423,-682.47142 -575.94843,-685.54724 C -571.74033,-689.75525 -575.84663,-702.03719 -582.91833,-706.39412 C -600.33863,-717.12713 -654.17343,-725.14522 -679.20803,-720.73545 C -692.01823,-718.47896 -714.27403,-706.8504 -726.75393,-695.89285 C -741.23533,-683.17812 -750.55553,-654.59141 -742.76093,-646.79685 C -738.61103,-642.64699 -736.66643,-643.9443 -722.66603,-660.20299 L -722.66593,-660.20305 z M -281.91103,-669.143 C -278.83863,-677.14957 -295.17103,-704.92218 -310.03013,-716.95835 C -327.23263,-730.8927 -341.08593,-734.5484 -376.68873,-734.5484 C -410.46063,-734.5484 -443.49553,-725.96441 -456.77963,-713.7371 C -462.48403,-708.48653 -467.14623,-698.34029 -467.14623,-691.17673 C -467.14623,-686.61062 -466.33093,-686.06108 -459.55673,-686.06108 C -455.38253,-686.06108 -448.79123,-686.99123 -444.90953,-688.12807 C -441.02773,-689.26486 -422.85103,-692.52204 -404.51673,-695.3661 C -352.90343,-703.37251 -330.95333,-700.36591 -311.22783,-682.58777 C -292.32873,-665.5544 -284.64103,-662.02882 -281.91103,-669.143 L -281.91103,-669.143 z"
       id="path4049" />
    <path
       style="opacity:1;fill:#ffccaa;fill-opacity:1;fill-rule:nonzero;stroke:#000000;stroke-width:2.02030516;stroke-linejoin:round;stroke-miterlimit:4;stroke-dasharray:none;stroke-dashoffset:0;stroke-opacity:1"
       d="M -254.05493,-477.96966 C -253.41043,-487.41458 -251.52843,-521.78236 -249.87283,-554.34246 L -246.86253,-613.54267 L -235.49573,-638.6902 C -224.31273,-663.43124 -221.76073,-666.39658 -215.22663,-662.24247 C -211.31213,-659.75376 -208.12653,-626.458 -209.48373,-602.21842 C -211.28913,-569.97595 -214.07073,-554.59395 -222.81883,-528.47728 C -227.09913,-515.69885 -231.96343,-499.386 -233.62823,-492.22648 C -236.15033,-481.38033 -238.20393,-477.67372 -245.94093,-470.00313 L -255.22673,-460.79706 L -254.05493,-477.96966 z"
       id="path4051" />
    <path
       style="opacity:1;fill:#ffccaa;fill-opacity:1;fill-rule:nonzero;stroke:#000000;stroke-width:2.02030516;stroke-linejoin:round;stroke-miterlimit:4;stroke-dasharray:none;stroke-dashoffset:0;stroke-opacity:1"
       d="M -774.77083,-451.23367 C -790.39513,-461.71246 -808.63773,-501.79558 -818.50053,-547.31804 C -825.45043,-579.3959 -831.17723,-627.61519 -828.43013,-630.92526 C -826.17323,-633.64455 -816.09783,-639.59406 -813.74953,-639.59406 C -813.15003,-639.59406 -809.51323,-634.82109 -805.66763,-628.98746 C -797.52853,-616.64099 -790.58433,-593.97034 -782.30613,-552.72094 C -776.52383,-523.90832 -765.18213,-447.88968 -766.49193,-446.72546 C -766.86023,-446.39813 -770.58573,-448.42682 -774.77073,-451.23363 L -774.77083,-451.23367 z"
       id="path4053" />
    <path
       style="opacity:1;fill:#502d16;fill-opacity:1;fill-rule:nonzero;stroke:#000000;stroke-width:2.02030516;stroke-linejoin:round;stroke-miterlimit:4;stroke-dasharray:none;stroke-dashoffset:0;stroke-opacity:1"
       d="M -794.47583,-612.46322 C -795.94013,-617.69339 -800.52653,-627.07383 -804.66793,-633.30871 C -810.96053,-642.78231 -813.08223,-648.95993 -817.58213,-670.90879 C -829.54243,-729.2473 -831.63133,-764.71097 -825.73873,-809.38778 C -814.42103,-895.19716 -767.35523,-989.21032 -712.74913,-1035.0825 C -685.98103,-1057.5692 -634.64063,-1074.4196 -575.30693,-1080.1924 C -544.29153,-1083.21 -480.32393,-1081.5196 -456.03453,-1077.0406 C -399.65323,-1066.6437 -322.43313,-1027.2775 -295.15783,-995.0268 C -267.74253,-962.61066 -244.94733,-917.52568 -231.33483,-868.7963 C -225.86393,-849.21205 -225.72433,-847.42386 -225.89693,-799.19816 C -226.02373,-763.73795 -227.31003,-737.95522 -230.43223,-708.28444 C -235.62983,-658.89091 -235.54493,-661.81742 -231.78063,-661.81742 C -227.63903,-661.81742 -227.74343,-661.46027 -238.53303,-638.71444 L -248.05443,-618.6419 L -256.52013,-670.02923 C -261.17643,-698.29215 -265.93563,-728.02785 -267.09643,-736.1085 C -268.25713,-744.18912 -270.92743,-755.09878 -273.03033,-760.35216 C -275.13313,-765.6055 -278.72573,-774.60071 -281.01383,-780.34147 C -283.35253,-786.20928 -286.59413,-802.57345 -288.41753,-817.71711 C -294.31783,-866.71807 -299.28593,-881.93271 -319.49463,-912.88926 C -330.26533,-929.38838 -341.87083,-939.37134 -354.11333,-942.66789 C -362.05723,-944.80695 -374.95723,-943.51888 -405.52693,-937.53427 C -430.21943,-932.70023 -590.76103,-932.88899 -620.72353,-937.78732 C -632.37203,-939.6916 -651.01293,-941.33519 -662.14773,-941.43968 C -681.19133,-941.61844 -683.20333,-941.23074 -696.04673,-934.90812 C -710.42393,-927.83044 -734.87193,-905.83997 -740.45813,-894.96103 C -745.77853,-884.59971 -747.93253,-867.86664 -749.92443,-821.42152 C -750.99663,-796.42025 -752.80523,-772.1581 -753.94343,-767.50562 C -755.08173,-762.85316 -760.50893,-749.2161 -766.00383,-737.20104 C -772.52153,-722.94987 -777.08383,-709.38564 -779.12763,-698.18291 C -783.12943,-676.24739 -788.32343,-631.4845 -788.38733,-618.38086 C -788.45933,-603.61891 -791.24223,-600.91413 -794.47573,-612.46328 L -794.47583,-612.46322 z"
       id="path4055" />
    <path
       style="opacity:1;fill:#ffccaa;fill-opacity:1;fill-rule:nonzero;stroke:#000000;stroke-width:2.02030516;stroke-linejoin:round;stroke-miterlimit:4;stroke-dasharray:none;stroke-dashoffset:0;stroke-opacity:1"
       d="M -627.64673,-50.675143 C -650.40703,-66.355243 -666.18013,-79.991543 -675.10063,-91.700543 C -688.28993,-109.01254 -702.58933,-133.80754 -709.55063,-151.43674 C -716.76973,-169.71874 -716.60393,-167.24574 -717.83083,-274.96997 L -718.38353,-323.49832 L -708.43283,-311.33542 C -694.07343,-293.78398 -661.98103,-262.51186 -645.57553,-250.08472 C -618.66283,-229.69842 -573.05673,-210.59484 -536.05833,-204.20994 C -506.40743,-199.09314 -487.82503,-202.30954 -425.95403,-223.26822 C -386.26043,-236.71438 -374.59353,-242.01612 -356.54343,-254.81055 C -337.78133,-268.10974 -323.92273,-284.61613 -305.89303,-315.13826 L -289.44553,-342.98198 L -288.17033,-331.17891 C -285.46153,-306.10493 -282.95863,-253.25781 -282.95183,-220.99012 C -282.94523,-190.20234 -283.40693,-185.78864 -288.23533,-170.48254 C -303.08013,-123.42374 -327.83953,-88.940343 -371.83803,-54.045543 L -386.99033,-42.028443 L -499.98723,-41.301043 L -612.98403,-40.573643 L -627.64673,-50.675143 z"
       id="path4057" />
    <path
       style="opacity:1;fill:#c8b7b7;fill-opacity:1;fill-rule:nonzero;stroke:#000000;stroke-width:2.02030516;stroke-linejoin:round;stroke-miterlimit:4;stroke-dasharray:none;stroke-dashoffset:0;stroke-opacity:1"
       d="M -366.48423,-54.481043 C -347.43573,-69.971843 -328.14033,-88.477743 -320.94963,-98.152343 C -311.05173,-111.46934 -293.51143,-145.62514 -286.71203,-164.82234 L -279.91413,-184.01524 L -280.33023,-233.11557 C -280.73203,-280.53247 -280.61473,-282.17409 -276.90773,-280.99755 C -268.76173,-278.41208 -76.485234,-207.53074 -75.914134,-206.90264 C -75.582134,-206.53744 -74.646234,-169.19124 -73.834534,-123.91114 L -72.358734,-41.583743 L -227.35113,-41.583743 L -382.34343,-41.583743 L -366.48423,-54.481043 z"
       id="path4059" />
    <path
       style="opacity:1;fill:#e3dbdb;fill-opacity:1;fill-rule:nonzero;stroke:#000000;stroke-width:2.02030516;stroke-linejoin:round;stroke-miterlimit:4;stroke-dasharray:none;stroke-dashoffset:0;stroke-opacity:1"
       d="M -944.29693,-55.220843 C -944.29973,-63.832343 -944.89393,-90.480543 -945.61743,-114.43894 L -946.93293,-157.99974 L -865.30523,-193.62184 C -799.77383,-222.21966 -726.52543,-251.69549 -720.99043,-251.69549 C -720.46673,-251.69549 -720.01593,-234.64916 -719.98873,-213.81477 C -719.93363,-171.51034 -718.85843,-164.71424 -708.56273,-141.58884 C -692.43893,-105.37324 -667.06633,-74.223443 -636.19553,-52.744043 C -628.41733,-47.332143 -621.18963,-42.152543 -620.13403,-41.233843 C -619.07843,-40.315143 -691.58213,-39.563443 -781.25343,-39.563443 L -944.29203,-39.563443 L -944.29693,-55.220843 z"
       id="path4061" />
    <path
       style="opacity:1;fill:#e3dbdb;fill-opacity:1;fill-rule:nonzero;stroke:#000000;stroke-width:2.02030516;stroke-linejoin:round;stroke-miterlimit:4;stroke-dasharray:none;stroke-dashoffset:0;stroke-opacity:1"
       d="M -362.44413,-55.114443 C -355.22153,-61.384043 -342.03903,-73.876943 -333.14973,-82.876543 C -314.99823,-101.25294 -301.14713,-124.16894 -286.94873,-159.31324 L -278.60153,-179.97464 L -277.99483,-229.16052 L -277.38813,-278.34652 L -272.94403,-277.16485 C -270.49983,-276.51493 -225.77053,-260.208 -173.54563,-240.92722 L -78.591334,-205.87124 L -77.249434,-170.69954 C -76.511134,-151.35514 -75.571534,-114.84504 -75.161034,-89.566043 L -74.414734,-43.604043 L -224.99533,-43.659543 L -375.57613,-43.715143 L -362.44413,-55.114443 z"
       id="path4063" />
    <path
       style="opacity:1;fill:#ffaaaa;fill-opacity:1;fill-rule:nonzero;stroke:#000000;stroke-width:1.42857146;stroke-linejoin:round;stroke-miterlimit:4;stroke-dasharray:none;stroke-dashoffset:0;stroke-opacity:1"
       d="M -575.16443,-381.88445 C -571.23593,-383.53199 -563.11923,-387.08532 -557.12753,-389.78078 C -551.13573,-392.47626 -543.96903,-394.68161 -541.20133,-394.68161 C -538.43373,-394.68161 -530.63303,-392.66481 -523.86643,-390.19983 L -511.56353,-385.71806 L -499.79263,-390.54621 C -483.10003,-397.39316 -473.87753,-397.17833 -450.16443,-389.39026 C -440.34303,-386.16458 -431.02163,-383.26805 -429.45023,-382.95346 C -425.21863,-382.10636 -473.93523,-380.53525 -531.59303,-379.65941 L -582.30733,-378.88902 L -575.16443,-381.88445 z"
       id="path4087" />
    <path
       style="opacity:1;fill:#6c5353;fill-opacity:1;fill-rule:nonzero;stroke:#000000;stroke-width:2.85714293;stroke-linejoin:round;stroke-miterlimit:4;stroke-dasharray:none;stroke-dashoffset:0;stroke-opacity:1"
       d="M -742.08013,-653.20831 C -747.45503,-667.21528 -725.54353,-696.29828 -699.83993,-709.2734 C -685.20353,-716.66185 -680.36523,-717.61191 -657.37543,-717.61191 C -612.23193,-717.61191 -577.44423,-705.85531 -577.44423,-690.59891 C -577.44423,-684.97965 -589.43993,-684.93768 -614.58703,-690.46905 C -640.20863,-696.1048 -681.10133,-695.99903 -693.18333,-690.2658 C -698.38623,-687.79685 -710.58023,-677.51114 -720.28113,-667.40865 C -729.98203,-657.30625 -738.49553,-649.04048 -739.19993,-649.04048 C -739.90433,-649.04048 -741.20043,-650.91603 -742.08003,-653.20837 L -742.08013,-653.20831 z"
       id="path4097" />
    <path
       style="opacity:1;fill:#6c5353;fill-opacity:1;fill-rule:nonzero;stroke:#000000;stroke-width:2.85714293;stroke-linejoin:round;stroke-miterlimit:4;stroke-dasharray:none;stroke-dashoffset:0;stroke-opacity:1"
       d="M -305.75843,-682.10314 C -326.54433,-699.50397 -328.30053,-700.26265 -352.30203,-702.21051 C -371.62533,-703.77874 -387.54773,-701.85885 -455.30133,-689.79134 C -461.75903,-688.6412 -463.15853,-689.4284 -463.15853,-694.21128 C -463.15853,-705.47777 -450.08443,-716.49917 -428.22363,-723.66125 C -410.88343,-729.34228 -401.76963,-730.44991 -373.15853,-730.35345 C -343.81133,-730.25451 -337.19853,-729.35831 -327.24933,-724.13177 C -308.97543,-714.53205 -286.01563,-686.32157 -286.01563,-673.46808 C -286.01563,-666.74583 -288.94273,-668.02608 -305.75843,-682.10317 L -305.75843,-682.10314 z"
       id="path4099" />
    <path
       style="opacity:1;fill:#916f6f;fill-opacity:1;fill-rule:nonzero;stroke:#000000;stroke-width:0.71428573;stroke-linejoin:round;stroke-miterlimit:4;stroke-dasharray:none;stroke-dashoffset:0;stroke-opacity:1"
       d="M -478.93234,-465.91583 C -482.74391,-468.06331 -482.1497,-472.97103 -477.59377,-476.97122 C -473.90598,-480.20913 -471.04462,-481.42036 -466.1562,-481.81275 C -461.89641,-482.15469 -461.59955,-482.07075 -459.44384,-479.91506 C -456.79734,-477.26855 -456.94227,-475.25885 -460.06077,-471.35855 C -464.19598,-466.18666 -474.26084,-463.28388 -478.93234,-465.91583 L -478.93234,-465.91583 z"
       id="path4101" />
    <path
       style="opacity:1;fill:#916f6f;fill-opacity:1;fill-rule:nonzero;stroke:#000000;stroke-width:0.71428573;stroke-linejoin:round;stroke-miterlimit:4;stroke-dasharray:none;stroke-dashoffset:0;stroke-opacity:1"
       d="M -555.19603,-464.07724 C -565.0915,-467.08731 -569.4704,-475.98059 -562.4926,-478.89611 C -553.66245,-482.58557 -538.98177,-473.69683 -542.2086,-466.61472 C -543.42414,-463.94693 -550.33118,-462.59743 -555.19603,-464.07725 L -555.19603,-464.07724 z"
       id="path4103" />
  </g>
</svg>
