<?xml version="1.0" encoding="UTF-8" standalone="no"?>
<!-- Created with Inkscape (http://www.inkscape.org/) -->

<svg
   xmlns:dc="http://purl.org/dc/elements/1.1/"
   xmlns:cc="http://creativecommons.org/ns#"
   xmlns:rdf="http://www.w3.org/1999/02/22-rdf-syntax-ns#"
   xmlns:svg="http://www.w3.org/2000/svg"
   xmlns="http://www.w3.org/2000/svg"
   xmlns:xlink="http://www.w3.org/1999/xlink"
   xmlns:sodipodi="http://sodipodi.sourceforge.net/DTD/sodipodi-0.dtd"
   xmlns:inkscape="http://www.inkscape.org/namespaces/inkscape"
   width="744.09448819"
   height="1052.3622047"
   id="svg2"
   version="1.1"
   inkscape:version="0.48.2 r9819"
   sodipodi:docname="New document 1">
  <defs
     id="defs4">
    <pattern
       inkscape:collect="always"
       xlink:href="#pattern4520"
       id="pattern4557"
       patternTransform="translate(-752.2083,-136.65389)" />
    <pattern
       inkscape:collect="always"
       xlink:href="#pattern4520"
       id="pattern4547"
       patternTransform="matrix(0.99998585,0.00533483,-0.00533483,0.99998585,581.58347,258.2703)" />
    <pattern
       inkscape:collect="always"
       xlink:href="#pattern4520"
       id="pattern4533"
       patternTransform="matrix(1.0950055,-0.32494458,0.30510769,1.0281587,-726.98796,-44.586845)" />
    <pattern
       inkscape:collect="always"
       xlink:href="#pattern4520"
       id="pattern4529"
       patternTransform="matrix(0.76271073,0.64673983,-0.64673983,0.76271073,-1481.2737,-338.87256)" />
    <pattern
       patternUnits="userSpaceOnUse"
       width="1116.8331"
       height="1174.2612"
       patternTransform="translate(-726.98796,-44.586845)"
       id="pattern4520">
      <path
         transform="translate(1144.1308,636.01543)"
         inkscape:transform-center-y="-3.92896"
         inkscape:transform-center-x="-7.710765"
         d="m -440,169.50504 c -42.81119,29.13539 -88.41828,-210.928432 -139.6312,-203.253429 -51.21293,7.675004 -24.44282,250.561819 -73.91413,235.256309 -49.47131,-15.30552 109.78259,-200.63992075 71.85129,-235.894511 -37.93129,-35.254591 -211.13696,137.112581 -230.01549,88.891517 -18.87852,-48.2210606 225.31493,-39.265458 229.22831,-90.902217 3.91337,-51.636759 -238.84068,-79.585239 -212.9105,-124.410399 25.93017,-44.82516 171.18053,151.6766941 213.99172,122.5413 42.81119,-29.135395 -86.69248,-236.35374 -35.47956,-244.02875 51.21293,-7.675 -11.8563,228.403205 37.61501,243.708721 49.47131,15.305516 130.73692,-215.143061 168.66822,-179.888471 37.93129,35.25459 -185.9651,133.13744 -167.08657,181.358501 18.87852,48.22106 249.71875,-31.925267 245.80538,19.711492 -3.91338,51.636759 -220.03839,-62.383529 -245.96856,-17.558366 C -603.77626,9.8619 -397.18881,140.36964 -440,169.50504 z"
         inkscape:randomized="0"
         inkscape:rounded="0.21"
         inkscape:flatsided="false"
         sodipodi:arg2="1.4220388"
         sodipodi:arg1="0.97323987"
         sodipodi:r2="2.4883401"
         sodipodi:r1="248.83401"
         sodipodi:cy="-36.209248"
         sodipodi:cx="-580"
         sodipodi:sides="7"
         id="path2987"
         style="fill:#ffff00;fill-opacity:1;fill-rule:evenodd;stroke-width:35.43307114;stroke-miterlimit:4;stroke-dasharray:none"
         sodipodi:type="star" />
      <path
         transform="translate(1132.7022,233.15827)"
         inkscape:transform-center-y="8.9345343"
         inkscape:transform-center-x="0.95702446"
         d="m -437.14287,89.50504 c -26.75699,35.08139 -128.28203,-146.679452 -167.6105,-126.681635 -39.32846,19.997818 47.7309,209.114195 3.62045,210.067625 -44.11045,0.95344 34.69607,-191.748072 -5.45975,-210.027869 -40.15582,-18.279797 -133.73233,167.698089 -161.98017,133.805605 -28.24784,-33.892483 171.54733,-92.4264871 160.80231,-135.218838 -10.74503,-42.792352 -214.49239,0.0019 -205.60642,-43.214768 8.88597,-43.21667 179.21995,76.4941312 205.97694,41.412739 26.757,-35.081393 -133.7353,-167.695719 -94.40684,-187.693539 39.32846,-19.99782 51.93629,187.813108 96.04674,186.859679 44.11045,-0.95343 47.7272,-209.115039 87.88302,-190.835249 40.15582,18.2798 -114.45646,157.704986 -86.20862,191.597471 28.24784,33.8924853 193.25014,-93.066471 203.99517,-50.274122 10.74503,42.792351 -194.66115,8.841791 -203.54713,52.058458 -8.88597,43.2166677 193.25179,93.063049 166.4948,128.144443 z"
         inkscape:randomized="0"
         inkscape:rounded="0.21"
         inkscape:flatsided="false"
         sodipodi:arg2="1.1003861"
         sodipodi:arg1="0.65158719"
         sodipodi:r2="2.1200693"
         sodipodi:r1="212.00693"
         sodipodi:cy="-39.066387"
         sodipodi:cx="-605.71429"
         sodipodi:sides="7"
         id="path2989"
         style="fill:#ffff00;fill-opacity:1;fill-rule:evenodd;stroke-width:35.43307114;stroke-miterlimit:4;stroke-dasharray:none"
         sodipodi:type="star" />
      <path
         transform="translate(813.65928,567.08089)"
         inkscape:transform-center-y="8.9345343"
         inkscape:transform-center-x="0.95702446"
         d="m -437.14287,89.50504 c -26.75699,35.08139 -128.28203,-146.679452 -167.6105,-126.681635 -39.32846,19.997818 47.7309,209.114195 3.62045,210.067625 -44.11045,0.95344 34.69607,-191.748072 -5.45975,-210.027869 -40.15582,-18.279797 -133.73233,167.698089 -161.98017,133.805605 -28.24784,-33.892483 171.54733,-92.4264871 160.80231,-135.218838 -10.74503,-42.792352 -214.49239,0.0019 -205.60642,-43.214768 8.88597,-43.21667 179.21995,76.4941312 205.97694,41.412739 26.757,-35.081393 -133.7353,-167.695719 -94.40684,-187.693539 39.32846,-19.99782 51.93629,187.813108 96.04674,186.859679 44.11045,-0.95343 47.7272,-209.115039 87.88302,-190.835249 40.15582,18.2798 -114.45646,157.704986 -86.20862,191.597471 28.24784,33.8924853 193.25014,-93.066471 203.99517,-50.274122 10.74503,42.792351 -194.66115,8.841791 -203.54713,52.058458 -8.88597,43.2166677 193.25179,93.063049 166.4948,128.144443 z"
         inkscape:randomized="0"
         inkscape:rounded="0.21"
         inkscape:flatsided="false"
         sodipodi:arg2="1.1003861"
         sodipodi:arg1="0.65158719"
         sodipodi:r2="2.1200693"
         sodipodi:r1="212.00693"
         sodipodi:cy="-39.066387"
         sodipodi:cx="-605.71429"
         sodipodi:sides="7"
         id="path2989-1"
         style="fill:#ffff00;fill-opacity:1;fill-rule:evenodd;stroke-width:35.43307114;stroke-miterlimit:4;stroke-dasharray:none"
         sodipodi:type="star" />
      <path
         transform="translate(1516.5164,527.08088)"
         inkscape:transform-center-y="8.9345343"
         inkscape:transform-center-x="0.95702446"
         d="m -437.14287,89.50504 c -26.75699,35.08139 -128.28203,-146.679452 -167.6105,-126.681635 -39.32846,19.997818 47.7309,209.114195 3.62045,210.067625 -44.11045,0.95344 34.69607,-191.748072 -5.45975,-210.027869 -40.15582,-18.279797 -133.73233,167.698089 -161.98017,133.805605 -28.24784,-33.892483 171.54733,-92.4264871 160.80231,-135.218838 -10.74503,-42.792352 -214.49239,0.0019 -205.60642,-43.214768 8.88597,-43.21667 179.21995,76.4941312 205.97694,41.412739 26.757,-35.081393 -133.7353,-167.695719 -94.40684,-187.693539 39.32846,-19.99782 51.93629,187.813108 96.04674,186.859679 44.11045,-0.95343 47.7272,-209.115039 87.88302,-190.835249 40.15582,18.2798 -114.45646,157.704986 -86.20862,191.597471 28.24784,33.8924853 193.25014,-93.066471 203.99517,-50.274122 10.74503,42.792351 -194.66115,8.841791 -203.54713,52.058458 -8.88597,43.2166677 193.25179,93.063049 166.4948,128.144443 z"
         inkscape:randomized="0"
         inkscape:rounded="0.21"
         inkscape:flatsided="false"
         sodipodi:arg2="1.1003861"
         sodipodi:arg1="0.65158719"
         sodipodi:r2="2.1200693"
         sodipodi:r1="212.00693"
         sodipodi:cy="-39.066387"
         sodipodi:cx="-605.71429"
         sodipodi:sides="7"
         id="path2989-7"
         style="fill:#ffff00;fill-opacity:1;fill-rule:evenodd;stroke-width:35.43307114;stroke-miterlimit:4;stroke-dasharray:none"
         sodipodi:type="star" />
      <path
         transform="translate(1213.6593,1001.3666)"
         inkscape:transform-center-y="8.9345343"
         inkscape:transform-center-x="0.95702446"
         d="m -437.14287,89.50504 c -26.75699,35.08139 -128.28203,-146.679452 -167.6105,-126.681635 -39.32846,19.997818 47.7309,209.114195 3.62045,210.067625 -44.11045,0.95344 34.69607,-191.748072 -5.45975,-210.027869 -40.15582,-18.279797 -133.73233,167.698089 -161.98017,133.805605 -28.24784,-33.892483 171.54733,-92.4264871 160.80231,-135.218838 -10.74503,-42.792352 -214.49239,0.0019 -205.60642,-43.214768 8.88597,-43.21667 179.21995,76.4941312 205.97694,41.412739 26.757,-35.081393 -133.7353,-167.695719 -94.40684,-187.693539 39.32846,-19.99782 51.93629,187.813108 96.04674,186.859679 44.11045,-0.95343 47.7272,-209.115039 87.88302,-190.835249 40.15582,18.2798 -114.45646,157.704986 -86.20862,191.597471 28.24784,33.8924853 193.25014,-93.066471 203.99517,-50.274122 10.74503,42.792351 -194.66115,8.841791 -203.54713,52.058458 -8.88597,43.2166677 193.25179,93.063049 166.4948,128.144443 z"
         inkscape:randomized="0"
         inkscape:rounded="0.21"
         inkscape:flatsided="false"
         sodipodi:arg2="1.1003861"
         sodipodi:arg1="0.65158719"
         sodipodi:r2="2.1200693"
         sodipodi:r1="212.00693"
         sodipodi:cy="-39.066387"
         sodipodi:cx="-605.71429"
         sodipodi:sides="7"
         id="path2989-4"
         style="fill:#ffff00;fill-opacity:1;fill-rule:evenodd;stroke-width:35.43307114;stroke-miterlimit:4;stroke-dasharray:none"
         sodipodi:type="star" />
    </pattern>
  </defs>
  <sodipodi:namedview
     id="base"
     pagecolor="#ffffff"
     bordercolor="#666666"
     borderopacity="1.0"
     inkscape:pageopacity="0.0"
     inkscape:pageshadow="2"
     inkscape:zoom="0.35"
     inkscape:cx="-204.66782"
     inkscape:cy="-2964.4081"
     inkscape:document-units="px"
     inkscape:current-layer="layer1"
     showgrid="false"
     inkscape:window-width="1440"
     inkscape:window-height="844"
     inkscape:window-x="-4"
     inkscape:window-y="-4"
     inkscape:window-maximized="1" />
  <metadata
     id="metadata7">
    <rdf:RDF>
      <cc:Work
         rdf:about="">
        <dc:format>image/svg+xml</dc:format>
        <dc:type
           rdf:resource="http://purl.org/dc/dcmitype/StillImage" />
        <dc:title></dc:title>
      </cc:Work>
    </rdf:RDF>
  </metadata>
  <g
     inkscape:label="Layer 1"
     inkscape:groupmode="layer"
     id="layer1">
    <rect
       style="fill:url(#pattern4529);stroke:none"
       width="1276.8331"
       height="1291.4041"
       x="-1481.2737"
       y="-338.87256"
       id="rect4527" />
    <path
       sodipodi:type="star"
       style="fill:url(#pattern4547);fill-opacity:1;stroke:#000000;stroke-width:3.54330707;stroke-miterlimit:4;stroke-opacity:1;stroke-dasharray:none"
       id="path4545"
       sodipodi:sides="7"
       sodipodi:cx="94.285713"
       sodipodi:cy="-33.352104"
       sodipodi:r1="835.19523"
       sodipodi:r2="513.19116"
       sodipodi:arg1="0.86773587"
       sodipodi:arg2="1.3463934"
       inkscape:flatsided="false"
       inkscape:rounded="0.21"
       inkscape:randomized="0"
       d="M 634.28574,603.7908 C 560.84071,662.33161 299.38121,443.33392 208.48322,466.97189 122.77955,489.25908 19.160884,805.81548 -67.168157,786.08902 -158.72944,765.16698 -150.52747,424.20689 -225.68236,367.87801 c -70.86018,-53.10999 -382.95913,63.24736 -421.36164,-16.54665 -40.73001,-84.63017 230.95716,-290.802754 228.13855,-384.681693 -2.65754,-88.514257 -288.21989,-259.975417 -249.778,-339.750457 40.77179,-84.61006 371.35819,-0.74298 442.99832,-61.47922 67.54629,-57.26548 23.55481,-387.4314 109.89357,-407.11524 91.5716,-20.87685 232.11893,289.87628 324.27132,308.01836 86.88638,17.10537 317.59225,-223.14364 386.81304,-167.91395 73.41613,58.57706 -81.91062,362.21279 -38.6386,445.57184 40.79927,78.59553 372.47626,109.17583 372.4544,197.729976 -0.0232,93.921239 -334.25979,161.795674 -372.45286,247.600624 -36.01053,80.90166 146.87804,359.28368 77.63,414.4792 z"
       inkscape:transform-center-x="-10.965536"
       inkscape:transform-center-y="-21.60868"
       transform="translate(-611.42857,2191.4286)" />
    <rect
       style="fill:url(#pattern4520);stroke:#000000;stroke-width:3.54330707000000000;stroke-miterlimit:4;stroke-opacity:1;stroke-dasharray:none;fill-opacity:1.0"
       id="rect4549"
       width="2437.1428"
       height="874.28571"
       x="-1408.5714"
       y="3400.9336" />
    <rect
       style="fill:url(#pattern4520);fill-opacity:1;stroke:#000000;stroke-width:3.54330707;stroke-miterlimit:4;stroke-opacity:1;stroke-dasharray:none"
       id="rect4551"
       width="1448.5715"
       height="408.57187"
       x="-297.14285"
       y="2949.5051" />
    <rect
       style="fill:url(#pattern4557);fill-opacity:1;stroke:#000000;stroke-width:3.54330707;stroke-miterlimit:4;stroke-opacity:1;stroke-dasharray:none"
       id="rect4553"
       width="957.14288"
       height="302.85715"
       x="-1405.2192"
       y="2934.582" />
  </g>
</svg>
