<?xml version="1.0" encoding="UTF-8" standalone="no"?>
<!-- Created with Inkscape (http://www.inkscape.org/) -->

<svg
   xmlns:dc="http://purl.org/dc/elements/1.1/"
   xmlns:cc="http://creativecommons.org/ns#"
   xmlns:rdf="http://www.w3.org/1999/02/22-rdf-syntax-ns#"
   xmlns:svg="http://www.w3.org/2000/svg"
   xmlns="http://www.w3.org/2000/svg"
   xmlns:sodipodi="http://sodipodi.sourceforge.net/DTD/sodipodi-0.dtd"
   xmlns:inkscape="http://www.inkscape.org/namespaces/inkscape"
   width="744.09448819"
   height="1052.3622047"
   id="svg2"
   version="1.1"
   inkscape:version="0.48.2 r9819"
   sodipodi:docname="New document 1">
  <defs
     id="defs4" />
  <sodipodi:namedview
     id="base"
     pagecolor="#ffffff"
     bordercolor="#666666"
     borderopacity="1.0"
     inkscape:pageopacity="0.0"
     inkscape:pageshadow="2"
     inkscape:zoom="0.49497475"
     inkscape:cx="-289.81821"
     inkscape:cy="-511.72026"
     inkscape:document-units="px"
     inkscape:current-layer="layer1"
     showgrid="false"
     inkscape:window-width="1440"
     inkscape:window-height="844"
     inkscape:window-x="-4"
     inkscape:window-y="-4"
     inkscape:window-maximized="1" />
  <metadata
     id="metadata7">
    <rdf:RDF>
      <cc:Work
         rdf:about="">
        <dc:format>image/svg+xml</dc:format>
        <dc:type
           rdf:resource="http://purl.org/dc/dcmitype/StillImage" />
        <dc:title></dc:title>
      </cc:Work>
    </rdf:RDF>
  </metadata>
  <g
     inkscape:label="Layer 1"
     inkscape:groupmode="layer"
     id="layer1">
    <path
       sodipodi:type="star"
       style="fill:#ffff00;fill-rule:evenodd;stroke:#000000;stroke-width:1px;stroke-linecap:butt;stroke-linejoin:miter;stroke-opacity:1"
       id="path2985"
       sodipodi:sides="3"
       sodipodi:cx="-1202.8571"
       sodipodi:cy="-113.3521"
       sodipodi:r1="190.65944"
       sodipodi:r2="95.32972"
       sodipodi:arg1="0.51728738"
       sodipodi:arg2="1.5644849"
       inkscape:flatsided="false"
       inkscape:rounded="0"
       inkscape:randomized="0"
       d="m -1037.1428,-19.066381 -165.1126,1.042105 -165.1126,1.042105 81.6538,-143.512779 81.6538,-143.51279 83.4588,142.47068 z"
       inkscape:transform-center-x="-0.60165954"
       inkscape:transform-center-y="-47.142857" />
    <path
       sodipodi:type="star"
       style="fill:#ffff00;fill-rule:evenodd;stroke:#000000;stroke-width:1px;stroke-linecap:butt;stroke-linejoin:miter;stroke-opacity:1"
       id="path2993"
       sodipodi:sides="4"
       sodipodi:cx="-668.57141"
       sodipodi:cy="229.50504"
       sodipodi:r1="303.04575"
       sodipodi:r2="214.28571"
       sodipodi:arg1="0.78539816"
       sodipodi:arg2="1.5707963"
       inkscape:flatsided="true"
       inkscape:rounded="0"
       inkscape:randomized="0"
       d="m -454.28571,443.79074 -428.5714,0 0,-428.571406 428.5714,-10e-7 z"
       transform="translate(-38.652548,-295.5737)" />
    <path
       sodipodi:type="star"
       style="fill:#ffff00;fill-rule:evenodd;stroke:#000000;stroke-width:1px;stroke-linecap:butt;stroke-linejoin:miter;stroke-opacity:1"
       id="path2995"
       sodipodi:sides="5"
       sodipodi:cx="-197.14285"
       sodipodi:cy="152.36218"
       sodipodi:r1="229.26524"
       sodipodi:r2="168.59564"
       sodipodi:arg1="1.0945535"
       sodipodi:arg2="1.722872"
       inkscape:flatsided="true"
       inkscape:rounded="0.23"
       inkscape:randomized="0"
       d="m -92.037731,356.11562 c -55.091099,28.41846 -222.355249,2.78372 -266.406889,-40.82925 -44.05164,-43.61297 -71.35902,-210.6122 -43.49333,-265.984944 27.86569,-55.372748 178.25295,-132.94921 239.52654,-123.558481 61.27358,9.390728 181.5254,128.445066 191.528865,189.621605 10.003466,61.17654 -66.064082,212.33262 -121.155186,240.75107 z"
       transform="translate(60.010204,-183.59544)" />
    <path
       sodipodi:type="star"
       style="fill:#ffff00;fill-rule:evenodd;stroke:#000000;stroke-width:1px;stroke-linecap:butt;stroke-linejoin:miter;stroke-opacity:1"
       id="path2997"
       sodipodi:sides="6"
       sodipodi:cx="825.71429"
       sodipodi:cy="332.36218"
       sodipodi:r1="340.38132"
       sodipodi:r2="251.5159"
       sodipodi:arg1="1.0658118"
       sodipodi:arg2="1.5894106"
       inkscape:flatsided="true"
       inkscape:rounded="0"
       inkscape:randomized="0"
       d="M 990.3887,630.25777 650.06635,623.92219 485.39194,326.02661 661.03989,34.466594 1001.3622,40.802171 1166.0366,338.69776 z"
       inkscape:transform-center-x="0.04589824"
       inkscape:transform-center-y="-29.64377"
       transform="translate(-246.05071,-332.31045)" />
    <path
       sodipodi:type="star"
       style="fill:#ffff00;fill-rule:evenodd;stroke:#000000;stroke-width:1px;stroke-linecap:butt;stroke-linejoin:miter;stroke-opacity:1"
       id="path2999"
       sodipodi:sides="5"
       sodipodi:cx="-749.5332"
       sodipodi:cy="682.64636"
       sodipodi:r1="345.63754"
       sodipodi:r2="164.59438"
       sodipodi:arg1="-2.8142969"
       sodipodi:arg2="-2.1859783"
       inkscape:flatsided="true"
       inkscape:rounded="-0.42"
       inkscape:randomized="0"
       d="m -1076.8226,571.52959 c -54.8628,161.59576 502.46995,-232.24921 331.82973,-234.49095 -170.64022,-2.24174 376.15389,406.10841 325.55518,243.12718 -50.5987,-162.98123 -269.9941,483.23798 -130.6256,384.7518 139.3685,-98.4862 -543.01941,-107.45089 -406.28624,-5.33748 136.73318,102.11346 -65.61037,-549.64631 -120.47307,-388.05055 z"
       inkscape:transform-center-x="-2.1573295"
       inkscape:transform-center-y="-6.9193339"
       transform="translate(-294.96454,-72.730984)" />
    <path
       sodipodi:type="star"
       style="fill:#ffff00;fill-rule:evenodd;stroke:#000000;stroke-width:1px;stroke-linecap:butt;stroke-linejoin:miter;stroke-opacity:1"
       id="path3003"
       sodipodi:sides="10"
       sodipodi:cx="-288.90363"
       sodipodi:cy="498.79858"
       sodipodi:r1="218.06197"
       sodipodi:r2="207.38925"
       sodipodi:arg1="0.87724429"
       sodipodi:arg2="1.1914036"
       inkscape:flatsided="true"
       inkscape:rounded="-1.89"
       inkscape:randomized="0"
       d="m -149.50257,666.48391 c 195.87058,-162.83217 -379.35918,66.51699 -125.1862,49.91283 254.172984,-16.60415 -346.00572,-169.16835 -130.61578,-33.20226 215.38994,135.96608 -180.48985,-340.23713 -86.15459,-103.63523 94.33526,236.6019 53.96702,-381.34689 -8.78527,-134.48306 -62.75228,246.86383 267.81032,-276.7951 71.93973,-113.96293 -195.87058,162.83217 379.359174,-66.51699 125.18619,-49.91283 -254.17298,16.60415 346.005727,169.16835 130.61579,33.20226 -215.38994,-135.96609 180.4898471,340.23713 86.154588,103.63523 -94.335258,-236.6019 -53.967018,381.34689 8.785267,134.48306 62.752281,-246.86384 -267.810315,276.7951 -71.939725,113.96293 z"
       transform="translate(0,111.11678)" />
    <path
       sodipodi:type="star"
       style="fill:#ff5555;fill-rule:evenodd;stroke:#000000;stroke-width:1px;stroke-linecap:butt;stroke-linejoin:miter;stroke-opacity:1"
       id="path3015"
       sodipodi:sides="6"
       sodipodi:cx="-798.02051"
       sodipodi:cy="1078.6261"
       sodipodi:r1="238.45245"
       sodipodi:r2="95.380981"
       sodipodi:arg1="0.49107705"
       sodipodi:arg2="0.87231995"
       inkscape:flatsided="false"
       inkscape:rounded="0"
       inkscape:randomized="0.1"
       d="m -603.0462,1173.2155 -145.63004,-8.9973 -48.1045,166.7278 -19.90309,-182.1783 -195.67827,54.3528 107.45632,-121.8195 -103.24032,-110.20494 146.41612,32.50574 66.21747,-186.49367 36.43719,178.8429 179.14494,-45.73693 -107.45709,116.539 z"
       transform="matrix(1.344618,0,0,1.344618,1496.725,-220.31978)" />
    <path
       transform="matrix(0.65155295,0,0,0.65155295,-864.32099,520.42606)"
       d="m -578.70283,1205.0175 -219.29412,-96.6819 -219.14055,97.0295 193.37599,-141.5734 25.54032,-238.29598 25.91813,238.25518 z"
       inkscape:randomized="0"
       inkscape:rounded="0"
       inkscape:flatsided="false"
       sodipodi:arg2="1.5700035"
       sodipodi:arg1="0.52280599"
       sodipodi:r2="29.70956"
       sodipodi:r1="253.13046"
       sodipodi:cy="1078.6261"
       sodipodi:cx="-798.02051"
       sodipodi:sides="3"
       id="path3017"
       style="fill:#800000;fill-rule:evenodd;stroke:#000000;stroke-width:1px;stroke-linecap:butt;stroke-linejoin:miter;stroke-opacity:1"
       sodipodi:type="star" />
    <path
       sodipodi:type="star"
       style="fill:#d40000;fill-rule:evenodd;stroke:#000000;stroke-width:1px;stroke-linecap:butt;stroke-linejoin:miter;stroke-opacity:1"
       id="path3019"
       sodipodi:sides="4"
       sodipodi:cx="-798.02051"
       sodipodi:cy="1078.6261"
       sodipodi:r1="271.95679"
       sodipodi:r2="75.624336"
       sodipodi:arg1="0.76756488"
       sodipodi:arg2="1.552963"
       inkscape:flatsided="false"
       inkscape:rounded="0.19"
       inkscape:randomized="0"
       d="m -602.31939,1267.4688 c -29.67588,30.7537 -151.62243,-113.9925 -194.35256,-113.2304 -42.73013,0.7621 -159.43761,149.7647 -190.19127,120.0888 -30.75368,-29.6759 113.9925,-151.6224 113.2304,-194.3525 -0.7621,-42.7302 -149.76468,-159.43766 -120.0888,-190.19131 29.67588,-30.75365 151.62242,113.99251 194.35255,113.23041 42.73013,-0.7621 159.43762,-149.76469 190.19127,-120.08881 30.75365,29.67587 -113.9925,151.62241 -113.2304,194.35251 0.7621,42.7302 149.76468,159.4377 120.08881,190.1913 z"
       transform="matrix(0.85489279,0,0,0.85489279,-236.13926,281.93458)" />
    <path
       transform="matrix(1.088069,0,0,1.088069,606.99718,59.526884)"
       d="m -667.30727,1262.7429 c 123.33394,-87.5606 -282.52111,-134.4592 -131.27502,-132.8034 151.24609,1.6559 -255.53851,39.6577 -134.15111,129.8975 121.38737,90.2398 40.57452,-310.24373 85.73731,-165.8885 45.16279,144.3553 -116.68237,-230.77661 -164.99481,-87.4447 -48.3124,143.3319 307.59755,-57.28195 184.2636,30.2786 -123.33394,87.5606 183.4248,-182.28539 32.17872,-183.94125 -151.24609,-1.65586 149.53121,274.84155 28.14385,184.60175 -121.38737,-90.23988 230.04513,118.118 184.88233,-26.2372 -45.16279,-144.35531 -215.18216,227.1433 -166.86973,83.8114 48.31243,-143.33188 -41.24909,255.2864 82.08486,167.7258 z"
       inkscape:randomized="0"
       inkscape:rounded="-0.81"
       inkscape:flatsided="false"
       sodipodi:arg2="1.581744"
       sodipodi:arg1="0.95342549"
       sodipodi:r2="51.316513"
       sodipodi:r1="225.79847"
       sodipodi:cy="1078.6261"
       sodipodi:cx="-798.02051"
       sodipodi:sides="5"
       id="path3021"
       style="fill:#ff2a2a;fill-rule:evenodd;stroke:#000000;stroke-width:1px;stroke-linecap:butt;stroke-linejoin:miter;stroke-opacity:1"
       sodipodi:type="star" />
    <path
       transform="matrix(1.344618,0,0,1.344618,-34.666261,363.54839)"
       d="m -649.9623,1181.3438 c 429.14104,-266.8212 -501.0878,388.3467 -84.20477,47.6458 416.88307,-340.70084 -643.10493,141.0188 -129.54774,119.2673 513.55711,-21.7515 -503.66289,-349.27778 -53.46436,-215.1884 450.19856,134.0894 -228.12353,-393.03661 -76.7428,26.9497 151.38075,419.9864 159.9024,-515.74774 64.22625,-61.7877 -95.67618,453.9601 38.90528,-575.49669 -124.58928,-139.83255 -163.4945,435.66415 480.67459,-320.57864 174.22982,14.56424 -306.44482,335.14291 407.31062,-372.02367 4.64134,-160.24844 -402.66926,211.77525 634.15685,29.87449 139.29773,166.59652 -494.85919,136.72203 541.46009,18.39405 18.5424,-159.00027 -522.91769,-177.3943 176.96724,611.7926 -13.19005,219.8171 -190.15731,-391.97548 332.98546,508.5573 215.23568,14.8269 -117.74977,-493.73034 -173.53323,668.3133 -186.95165,117.0537 -13.41841,-551.25974 -376.62367,276.1572 52.51743,9.3361 z"
       inkscape:randomized="0.25"
       inkscape:rounded="-3.76"
       inkscape:flatsided="false"
       sodipodi:arg2="1.1925935"
       sodipodi:arg1="0.7437946"
       sodipodi:r2="126.3798"
       sodipodi:r1="232.64989"
       sodipodi:cy="1078.6261"
       sodipodi:cx="-798.02051"
       sodipodi:sides="7"
       id="path3025"
       style="fill:#ff5555;fill-rule:evenodd;stroke:#000000;stroke-width:1px;stroke-linecap:butt;stroke-linejoin:miter;stroke-opacity:1"
       sodipodi:type="star" />
  </g>
</svg>
