<?xml version="1.0" encoding="UTF-8" standalone="no"?>
<!-- Created with Inkscape (http://www.inkscape.org/) -->

<svg
   xmlns:dc="http://purl.org/dc/elements/1.1/"
   xmlns:cc="http://creativecommons.org/ns#"
   xmlns:rdf="http://www.w3.org/1999/02/22-rdf-syntax-ns#"
   xmlns:svg="http://www.w3.org/2000/svg"
   xmlns="http://www.w3.org/2000/svg"
   xmlns:sodipodi="http://sodipodi.sourceforge.net/DTD/sodipodi-0.dtd"
   xmlns:inkscape="http://www.inkscape.org/namespaces/inkscape"
   width="744.09448819"
   height="1052.3622047"
   id="svg2"
   version="1.1"
   inkscape:version="0.48.2 r9819"
   sodipodi:docname="New document 1">
  <defs
     id="defs4">
    <inkscape:path-effect
       effect="skeletal"
       id="path-effect3011"
       is_visible="true"
       pattern="m -1040,393.57143 c 0,-2.76 2.24,-5 5,-5 2.76,0 5,2.24 5,5 0,2.76 -2.24,5 -5,5 -2.76,0 -5,-2.24 -5,-5 z"
       copytype="single_stretched"
       prop_scale="1"
       scale_y_rel="false"
       spacing="0"
       normal_offset="0"
       tang_offset="0"
       prop_units="false"
       vertical_pattern="false"
       fuse_tolerance="0" />
    <inkscape:path-effect
       effect="skeletal"
       id="path-effect3007"
       is_visible="true"
       pattern="m -597.14286,907.85714 c 0,-2.76 2.24,-5 5,-5 2.76,0 5,2.24 5,5 0,2.76 -2.24,5 -5,5 -2.76,0 -5,-2.24 -5,-5 z"
       copytype="single_stretched"
       prop_scale="1"
       scale_y_rel="false"
       spacing="0"
       normal_offset="0"
       tang_offset="0"
       prop_units="false"
       vertical_pattern="false"
       fuse_tolerance="0" />
    <inkscape:path-effect
       effect="skeletal"
       id="path-effect3003"
       is_visible="true"
       pattern="M 0,5 C 0,2.24 2.24,0 5,0 7.76,0 10,2.24 10,5 10,7.76 7.76,10 5,10 2.24,10 0,7.76 0,5 z"
       copytype="single_stretched"
       prop_scale="1"
       scale_y_rel="false"
       spacing="0"
       normal_offset="0"
       tang_offset="0"
       prop_units="false"
       vertical_pattern="false"
       fuse_tolerance="0" />
    <inkscape:path-effect
       effect="skeletal"
       id="path-effect2999"
       is_visible="true"
       pattern="M 0,5 10,10 10,0 z"
       copytype="single_stretched"
       prop_scale="1"
       scale_y_rel="false"
       spacing="0"
       normal_offset="0"
       tang_offset="0"
       prop_units="false"
       vertical_pattern="false"
       fuse_tolerance="0" />
    <inkscape:path-effect
       effect="skeletal"
       id="path-effect2995"
       is_visible="true"
       pattern="M 0,0 0,10 10,5 z"
       copytype="single_stretched"
       prop_scale="1"
       scale_y_rel="false"
       spacing="0"
       normal_offset="0"
       tang_offset="0"
       prop_units="false"
       vertical_pattern="false"
       fuse_tolerance="0" />
  </defs>
  <sodipodi:namedview
     id="base"
     pagecolor="#ffffff"
     bordercolor="#666666"
     borderopacity="1.0"
     inkscape:pageopacity="0.0"
     inkscape:pageshadow="2"
     inkscape:zoom="0.35"
     inkscape:cx="449.08293"
     inkscape:cy="-3935.4657"
     inkscape:document-units="px"
     inkscape:current-layer="layer1"
     showgrid="false"
     inkscape:window-width="808"
     inkscape:window-height="837"
     inkscape:window-x="623"
     inkscape:window-y="1"
     inkscape:window-maximized="0" />
  <metadata
     id="metadata7">
    <rdf:RDF>
      <cc:Work
         rdf:about="">
        <dc:format>image/svg+xml</dc:format>
        <dc:type
           rdf:resource="http://purl.org/dc/dcmitype/StillImage" />
        <dc:title></dc:title>
      </cc:Work>
    </rdf:RDF>
  </metadata>
  <g
     inkscape:label="Layer 1"
     inkscape:groupmode="layer"
     id="layer1">
    <path
       style="fill:none;stroke:#000000;stroke-width:1px;stroke-linecap:butt;stroke-linejoin:miter;stroke-opacity:1"
       d="m -542.85715,-250.49496 c 19.20012,-5.26132 38.25955,-10.84842 57.14286,-17.14285 5.71429,-1.90477 11.58281,-3.3976 17.14286,-5.71429 5.89732,-2.45722 11.42857,-5.71428 17.14286,-8.57143 3.80952,-1.90476 7.27081,-4.79034 11.42857,-5.71428 4.64851,-1.03301 9.55293,0.52586 14.28571,0 34.02979,-3.78109 -10.83917,-2.85715 22.85714,-2.85715 9.36967,0 26.00852,-1.87268 34.28572,2.85715 4.13449,2.36256 7.46643,5.93 11.42857,8.57143 1.77192,1.18128 3.94236,1.67586 5.71429,2.85714 1.30085,0.86724 10.96686,10.50515 11.42857,11.42857 7.08508,2.69635 1.61539,7.70331 2.85714,11.42857 0.67344,2.02031 2.34064,3.64828 2.85714,5.71429 0.69296,2.77183 0,5.71428 0,8.57143 0,6.66666 0,13.33333 0,20 0,17.14285 0,34.28571 0,51.42857 0,5.71428 0,11.42857 0,17.14285 0,2.85715 -0.90351,5.86091 0,8.57143 0.42592,1.27776 2.43123,1.57939 2.85715,2.85715 0.60233,1.80701 -0.60234,3.90727 0,5.71428 0.85183,2.55551 4.5096,3.30493 5.71428,5.71429 0.42592,0.85183 -0.67343,2.1837 0,2.85714 0.67344,0.67343 1.90476,0 2.85714,0 6.96918,0 16.23895,0.73535 22.85715,0 4.82651,-0.53628 9.52381,-1.90476 14.28571,-2.85714 4.76191,-0.95238 9.84806,-0.88485 14.28572,-2.85715 4.35148,-1.93399 7.46643,-5.93 11.42857,-8.57142 4.62061,-3.08041 9.84308,-5.23946 14.28571,-8.57143 3.23249,-2.42437 5.145,-6.42991 8.57143,-8.57143 4.34916,-2.71822 9.8024,-3.22356 14.28572,-5.71429 22.02686,-12.23714 1.8113,-4.15093 20,-17.14285 3.46583,-2.4756 7.73057,-3.60115 11.42857,-5.71429 5.96285,-3.40734 11.55436,-7.43679 17.14286,-11.42857 3.87492,-2.7678 7.81306,-5.47242 11.42857,-8.57143 3.06786,-2.62959 5.28345,-6.22287 8.57143,-8.57143 3.46583,-2.4756 7.81679,-3.45693 11.42857,-5.71428 4.03808,-2.52381 7.39048,-6.04763 11.42857,-8.57143 3.61177,-2.25736 7.81679,-3.45693 11.42857,-5.71429 8.07617,-5.04761 14.78097,-12.09525 22.857143,-17.14286 3.61177,-2.25736 7.61905,-3.80952 11.42857,-5.71428 3.80953,-1.90476 7.51377,-4.03652 11.42857,-5.71429 5.53637,-2.37273 11.50299,-3.59933 17.14286,-5.71428 4.80218,-1.80082 9.35432,-4.30532 14.28571,-5.71429 1.83148,-0.52328 3.80953,0 5.71429,0 2.85714,0 5.71429,0 8.57143,0 4.7619,0 9.52381,0 14.28571,0 1.90476,0 4.01062,-0.85183 5.7142899,0 2.85714,1.42857 5.71428,6.42857 8.5714299571428,8.57143 C 2.7470829,-262.72036 5.8900329,-261.2115 8.5714329,-259.06638 c 3.5466101,2.83729 10.0785501,10.23565 11.4285701,14.28571 0.90351,2.71052 -0.90351,5.8609 0,8.57143 1.08588,3.25764 4.17861,5.50009 5.71428,8.57143 1.34687,2.69374 1.90476,5.71428 2.85715,8.57143 0.95238,2.85714 1.90476,5.71428 2.85714,8.57142 0.95238,2.85715 1.73863,5.77515 2.85714,8.57143 3.04762,7.61905 3.8191,4.80977 5.71429,14.28572 0.56752,2.83762 0,13.89425 0,17.14285 0,1.64628 0.52068,13.24436 0,14.28572 -0.60234,1.20468 -2.04902,1.77965 -2.85715,2.85714 -2.06031,2.74709 -3.94758,5.62692 -5.71428,8.57143 -11.42857,19.04762 6.66667,-6.66667 -8.57143,8.57143 -8.50835,8.50835 4.27317,3.72181 -8.57143,11.42857 -2.5825,1.5495 -5.8776901,1.51027 -8.5714301,2.85714 -34.3096999,17.15485 12.2892001,-4.51637 -14.28571,11.42857 -2.5825099,1.54951 -5.9889199,1.30764 -8.5714299,2.85715 -2.30986,1.38591 -3.55929,4.09804 -5.71429,5.71428 -3.40734,2.555506 -7.88472,3.351716 -11.42857,5.714286 -1.12066,0.74711 -1.77964,2.04902 -2.85714,2.85714 -2.74709,2.06032 -5.82434,3.65397 -8.57143,5.71429 -3.23249,2.42436 -5.71428,5.71428 -8.57143,8.57143 -1.90476,1.90476 -4.09804,3.55929 -5.71428,5.71428 -1.27776,1.70367 -1.3513,4.20844 -2.85715,5.71429 -2.4281,2.4281 -6.14332,3.28618 -8.57142,5.71428 -3.36718,3.36718 -5.20426,8.0614 -8.57143,11.42857 -2.42811,2.42811 -6.66667,2.85715 -8.57143,5.71429 -2.17818,3.26727 -0.77596,8.09868 -2.85714,11.42857 -2.85536,4.56858 -7.92245,7.33809 -11.428573,11.42857 -7.43961,3.27819 -4.5804,12.1540697 -8.57143,17.1428597 -2.14512,2.68139 -6.80472,2.76978 -8.57143,5.71429001 -1.46999,2.44997999 1.06112,5.91862999 0,8.57141999 -1.00043,2.5010803 -4.32837,3.4044303 -5.71429,5.7142903 -6.63221,19.89665 1.88707,-1.40203 -8.57142,14.28571 -0.52829,0.79243 0.52828,2.06472 0,2.85715 -1.49422,2.24132 -3.80953,3.80952 -5.71429,5.71428 -0.95238,0.95238 -2.43123,1.57939 -2.85714,2.85715 -0.60234,1.80701 1.05657,4.12942 0,5.71428 -1.18129,1.77193 -4.20844,1.3513 -5.71429,2.85714 -0.67343,0.67344 0.42592,2.00531 0,2.85715 -0.60234,1.20467 -1.90476,1.90476 -2.85714,2.85714 0,1.90476 0.85183,4.01061 0,5.71429 -0.42592,0.85183 -2.18371,-0.67344 -2.85714,0 -0.67344,0.67343 0.42591,2.0053 0,2.85714 -0.60234,1.20468 -2.25481,1.65246 -2.85715,2.85714 -0.42592,0.85184 0.42592,2.00531 0,2.85714 -0.60234,1.20468 -2.2548,1.65247 -2.85714,2.85715 -0.0747,0.14947 -0.0747,8.42195 0,8.57143 0.60234,1.20467 1.90476,1.90476 2.85714,2.85714 0.95238,0.95238 1.65247,2.2548 2.85715,2.85714 0.85183,0.42592 2.1837,-0.67343 2.85714,0 1.50584,1.50585 1.35129,4.20844 2.85714,5.71429 0.58411,0.5841 7.4386,-0.56642 8.57143,0 3.07134,1.53567 5.41521,4.36162 8.57143,5.71428 3.60927,1.54683 7.65289,1.77838 11.42857,2.857154 5.79163,1.65475 11.29931,4.2534 17.14286,5.71428 1.84789,0.46197 3.809521,0 5.714283,0 5.71429,0 11.42857,0 17.14286,0 13.33333,0 26.66666,0 40,0 6.66666,0 13.33333,0 20,0 2.85714,0 5.71428,0 8.57143,0 1.9047599,0 4.0106099,0.85184 5.7142799,0 2.40936,-1.20468 3.5593,-4.09804 5.7142899571428,-5.71428 C 4.4135429,97.623446 12.385033,95.534066 17.142853,92.362186 c 3.362,-2.24133 5.20944,-6.3301 8.57143,-8.57143 0.79243,-0.52829 2.18371,0.67343 2.85715,0 1.50584,-1.50585 1.90476,-3.80953 2.85714,-5.71429 0.95238,-1.90476 1.67586,-3.94236 2.85714,-5.71428 5.77441,-8.66162 2.12049,7.27708 5.71429,-14.28572 0.62628,-3.75769 -1.20468,-7.81454 0,-11.42857 0.42591,-1.27775 1.90476,-1.90476 2.85714,-2.85714 1.90476,-2.85714 4.88145,-5.2401 5.71429,-8.57143 1.15493,-4.61973 -0.59065,-9.56058 0,-14.28571 1.03596,-8.28773 7.19835,-14.6187003 8.57142,-22.8571503 0.46972,-2.81827 -0.56033,-5.76977 0,-8.5714297 0.41765,-2.08823 1.90477,-3.80952 2.85715,-5.71428 2.85714,-5.71429 5.71428,-11.42857 8.57143,-17.14286 0.95238,-1.90476 2.06623,-3.73701 2.85714,-5.71428 2.23703,-5.59258 3.02054,-11.75538 5.71428,-17.14286 0.60234,-1.20468 2.11004,-1.73648 2.85715,-2.85714 1.18128,-1.77193 1.35129,-4.20844 2.85714,-5.71429 2.4965,-2.4965 12.05415,-4.5985 14.28571,-5.71429 2.40936,-1.20467 3.304937,-4.5096 5.714287,-5.71428 8.17059,-4.0853 16.93023,-2.85714 25.71429,-2.85714 8.57142,0 17.14285,0 25.71428,0 6.66667,0 13.33333,0 20,0 0.67895,0 10.7882,-0.32019 11.42857,0 1.20468,0.60233 1.65247,2.2548 2.85715,2.85714 0.85183,0.42592 2.1837,-0.67344 2.85714,0 1.50585,1.50584 1.67586,3.94236 2.85714,5.71428 0.74711,1.12067 2.25481,1.65247 2.85714,2.85715 0.43434,0.86867 0,9.45565 0,11.42857 0,7.61905 0,15.23809 0,22.85714 0,6.66667 0,13.33333 0,20 0,1.90476 0,3.8095197 0,5.7142897 0,1.90476 0.46198,3.86639 0,5.71428 -1.033,4.13201 -4.36741,7.38796 -5.71428,11.42857 -0.30117,0.9035103 0.30117,1.9536403 0,2.8571503 -0.67344,2.0203 -1.90476,3.80952 -2.85714,5.71428 -0.95239,1.90476 -1.67586,3.94236 -2.85715,5.71429 -0.74711,1.12066 -2.43122,1.57939 -2.85714,2.85714 -0.60234,1.80702 0.46197,3.8664 0,5.71429 -0.5165,2.066 -2.34064,3.64828 -2.85714,5.71428 -0.46198,1.84789 0.60234,3.90727 0,5.71429 -0.42592,1.27775 -2.25481,1.65246 -2.85715,2.85714 -0.42591,0.85184 0.30117,1.95364 0,2.85714 -1.34687,4.04061 -4.68128,7.29657 -5.71428,11.42858 -0.55727,2.22906 0,13.80807 0,17.14285 0,1.90476 0.46197,3.8664 0,5.71429 -0.5165,2.066 -2.34064,3.64828 -2.85714,5.71428 -0.56187,2.24748 0,14.171654 0,17.142864 0,0.95238 0,1.90476 0,2.85714 0,0.95238 -0.67344,2.18371 0,2.85715 0.67343,0.67343 1.90476,0 2.85714,0 0.95238,0 1.90476,0 2.85714,0 6.66667,0 13.33333,0 20,0 2.85714,0 5.79959,0.69296 8.57143,0 1.30666,-0.32667 1.90476,-1.90477 2.85714,-2.85715 0.95238,-0.95238 1.65247,-2.2548 2.85715,-2.85714 1.70367,-0.85183 4.36741,1.34687 5.71428,0 1.34687,-1.34687 -1.34687,-4.36741 0,-5.71428 0.67344,-0.67344 2.18371,0.67343 2.85714,0 1.34687,-1.346874 -1.34687,-4.367424 0,-5.714294 0.67344,-0.67344 2.18371,0.67343 2.85715,0 0.67343,-0.67344 -0.67344,-2.18371 0,-2.85714 0.67343,-0.67344 1.90476,0 2.85714,0 0,-0.95238 -0.67344,-2.18371 0,-2.85715 0.67344,-0.67343 2.18371,0.67344 2.85714,0 0.67344,-0.67343 -0.67343,-2.1837 0,-2.85714 0.67344,-0.67343 2.00531,0.42592 2.85715,0 1.20467,-0.60234 1.65246,-2.2548 2.85714,-2.85714 0.85183,-0.42592 2.18371,0.67343 2.85714,0 0.67344,-0.67344 -0.42592,-2.00531 0,-2.85714 0.60234,-1.20468 2.25481,-1.65247 2.85714,-2.85715 0.42592,-0.85183 -0.67343,-2.18371 0,-2.85714 0.67344,-0.67344 2.00531,0.42592 2.85715,0 1.20467,-0.60234 1.65246,-2.2548 2.85714,-2.85714 0.85184,-0.42592 2.00531,0.42591 2.85714,0 1.20468,-0.60234 1.90476,-1.90477 2.85715,-2.85715 1.90476,-1.90476 4.22006,-3.47295 5.71428,-5.71428 1.05657,-1.58486 -1.34687,-4.36742 0,-5.71429 0.67344,-0.67343 2.18371,0.67344 2.85714,0 1.50585,-1.50584 1.3513,-4.20844 2.85715,-5.71428 0.67343,-0.67344 2.1837,0.67343 2.85714,0 1.50585,-1.50585 1.3513,-4.20844 2.85714,-5.71429 1.50585,-1.50585 4.20844,-1.3513 5.71429,-2.85714 0.67343,-0.67344 -0.42592,-2.00531 0,-2.85714 0.60234,-1.20468 1.90476,-1.90477 2.85714,-2.85715 0.95238,-0.95238 2.25481,-1.65246 2.85714,-2.85714 0.42592,-0.85184 -0.30117,-1.95364 0,-2.85714 0.67344,-2.02031 2.18371,-3.69398 2.85715,-5.71429 0.30117,-0.90351 0,-1.90476 0,-2.85714 0.95238,-1.90476 2.06623,-3.73701 2.85714,-5.71429 1.11851,-2.79628 1.18656,-6.06555 2.85714,-8.5714303 0.52829,-0.79242 1.90476,0 2.85715,0 0.95238,-0.95238 2.2548,-1.65246 2.85714,-2.85714 0.42592,-0.85183 -0.30117,-1.95363 0,-2.85714 1.34687,-4.04060999 3.80952,-7.61905 5.71428,-11.42857 0.95239,-1.90477 2.34065,-3.6482797 2.85715,-5.7142897 2.47406,-9.89627 -3.61793,-1.71597 2.85714,-11.42857 0.74711,-1.12066 2.2548,-1.65247 2.85714,-2.85714 0.42592,-0.85184 0,-1.90477 0,-2.85715 0.95238,-1.90476 1.67586,-3.94236 2.85715,-5.71428 0.7471,-1.12067 2.43122,-1.57939 2.85714,-2.85714 4.12344,-12.37034 -5.46199,1.05012 2.85714,-11.42858 4.37594,-6.5639 1.632,1.22515 8.57143,-5.71428 0.67344,-0.67344 -0.67344,-2.18371 0,-2.85714 0.18308,-0.18309 10.89637,-5.35949 11.42857,-5.71429 1.12067,-0.74711 1.57939,-2.43123 2.85714,-2.85714 1.80702,-0.60234 3.90727,0.60234 5.71429,0 1.27775,-0.42592 1.90476,-1.90477 2.85714,-2.85715 3.26901,-3.269 3.38221,-3.98454 8.57143,-5.71428 1.80702,-0.60234 3.80953,0 5.71429,0 6.66666,0 13.33333,0 20,0 20.95238,0 41.90476,0 62.85714,0 14.28571,0 28.57143,0 42.85714,0 2.85715,0 5.71429,0 8.57143,0 2.85714,0 5.76977,-0.56033 8.57143,0 5.17126,-1.72208 5.31378,4.6284 8.57143,5.71428 1.30682,0.43561 10.15721,-0.63568 11.42857,0 1.20468,0.60234 1.65247,2.25481 2.85714,2.85715 0.85184,0.42591 2.18371,-0.67344 2.85715,0 0.67343,0.67343 -0.42592,2.0053 0,2.85714 0.60233,1.20468 1.90476,1.90476 2.85714,2.85714 0.95238,0.95238 1.65246,2.25481 2.85714,2.85715 0.85184,0.42591 2.18371,-0.67344 2.85714,0 1.50585,1.50584 1.67586,3.94236 2.85715,5.71428 2.53436,3.80155 8.74987,5.89273 11.42857,8.57143 0.67343,0.67343 -0.67344,2.18371 0,2.85714 1.50585,1.50585 4.20844,1.3513 5.71428,2.85715 1.50585,1.50584 1.3513,4.20843 2.85715,5.71428 0.67343,0.67344 1.95363,-0.30117 2.85714,0 2.02031,0.67344 3.94236,1.67586 5.71429,2.85714 1.12066,0.74711 1.57939,2.43123 2.85714,2.85715 1.80701,0.60234 3.86639,-0.46198 5.71428,0 13.79699,3.44924 -0.1416,1.35777 8.57143,5.71428 0.84739,0.4237 14.37934,0 17.14286,0 6.66667,0 13.33333,0 20,0 3.80952,0 7.69303,0.74711 11.42857,0 24.05622,-4.81124 0.0883,-0.0441 11.42857,-5.71428 2.69374,-1.34687 5.77514,-1.73863 8.57143,-2.85715 1.97727,-0.79091 3.62605,-2.43949 5.71429,-2.85714 3.81264,-0.76253 11.15021,1.84611 14.28571,-2.85714 1.05657,-1.58486 -1.34687,-4.36742 0,-5.71429 2.12959,-2.12959 5.77514,-1.73863 8.57143,-2.85714 3.95455,-1.58182 7.38796,-4.36742 11.42857,-5.71429 0.90351,-0.30117 1.90476,0 2.85714,0 2.85715,-0.95238 5.87769,-1.51027 8.57143,-2.85714 9.47595,-9.47595 -2.69374,1.34687 5.71429,-2.85714 1.20468,-0.60234 1.65246,-2.25481 2.85714,-2.85714 0.75126,-0.37564 9.93451,0 11.42857,0 0.95238,0 2.43123,-0.85184 2.85715,0 0.85183,1.70367 -0.46198,3.86639 0,5.71428 1.69899,6.79597 10.67254,16.53409 14.28571,22.85714 0.15526,0.27171 11.36336,22.7658597 11.42857,22.8571497 5.88738,8.24233001 13.2785,9.69503 17.14286,20.0000003 1.33761,3.56697 -0.8264,7.70976 0,11.42857 1.11258,5.0066 3.91347,9.48353 5.71428,14.28571 1.05748,2.81994 1.51028,5.87769 2.85715,8.57143 1.53567,3.07134 4.6284,5.31379 5.71428,8.57143 0.90351,2.71052 0,5.71429 0,8.57143 0.95238,4.7619 1.15202,9.7387 2.85715,14.28571 1.2057,3.21522 4.36162,5.41522 5.71428,8.57143 3.09366,7.21854 3.23078,15.406634 5.71429,22.857144 0.67343,2.02031 1.90476,3.80953 2.85714,5.71429 1.9048,1.90476 4.7139,3.21321 5.7143,5.71429 1.0611,2.65279 0,5.71428 0,8.57142 0,2.85715 0,5.71429 0,8.57143 0,11.42857 0,22.85715 0,34.28572 0,8 0,12.33518 0,20 0,3.80952 0.5387,7.65733 0,11.42857 -0.4259,2.98142 -2.0298,5.67561 -2.8572,8.57143 -1.0787,3.77568 -1.3103,7.8193 -2.8571,11.42857 -1.35266,3.15621 -4.6284,5.31378 -5.71429,8.57143 -0.9035,2.71052 0.90351,5.8609 0,8.57143 -1.08588,3.25764 -4.17861,5.50009 -5.71428,8.57142 -0.60567,1.21134 -5.87029,15.9483 -8.57143,20 -2.64143,3.96215 -5.93,7.46643 -8.57143,11.42858 -1.18128,1.77192 -1.57939,4.01061 -2.85714,5.71428 -1.61625,2.15499 -3.80953,3.80952 -5.71429,5.71429 -1.90476,1.90476 -3.80952,3.80952 -5.71428,5.71428 -0.8105,0.8105 -12.15769,12.15769 -14.28572,14.28572 -1.90476,1.90476 -3.37546,4.37781 -5.71428,5.71428 -4.45299,2.54456 -9.93656,2.99607 -14.28572,5.71429 -3.42643,2.14153 -5.28345,6.22283 -8.57143,8.57143 -3.46583,2.4756 -7.81679,3.4569 -11.42857,5.7143 -4.03808,2.5238 -7.46642,5.93 -11.42857,8.5714 -4.62061,3.0804 -9.94932,5.1023 -14.28571,8.5714 -5.25865,4.207 -8.6824,10.5502 -14.28572,14.2858 -3.26726,2.1781 -7.73822,1.5152 -11.42857,2.8571 -6.81643,2.4787 -13.16943,6.1319 -20,8.5714 -6.52951,2.332 -13.56246,3.1393 -20,5.7143 -7.90909,3.1636 -14.77592,8.7348 -22.85714,11.4286 -11.80392,3.9346 -31.07179,2.8571 -42.85714,2.8571 -22.85715,0 -45.71429,0 -68.57143,0 -8.57143,0 -17.14286,0 -25.71429,0 -11.78535,0 -31.05322,1.0775 -42.85714,-2.8571 -8.08122,-2.6938 -15.02754,-8.073 -22.85714,-11.4286 -48.31811,-20.7077 6.31177,3.0065 -28.57143,-5.7143 -11.42857,-2.8571 -8.57143,-5.7143 -17.14286,-8.5714 -11.42857,-3.8095 4.7619,4.7619 -2.85714,-2.8571 -0.67344,-0.6735 -2.18371,0.6734 -2.85715,0 -0.67343,-0.6735 0.67344,-2.1838 0,-2.8572 -0.67343,-0.6734 -2.55597,0.9035 -2.85714,0 -0.90351,-2.7105 1.27775,-6.0159 0,-8.5714 -1.80701,-3.614 -6.76441,-4.9574 -8.57143,-8.5714 -2.17176,-4.3436 -1.32147,-9.6788 -2.85714,-14.2858 -0.42592,-1.2777 -2.53048,-1.5504 -2.85714,-2.8571 -0.69296,-2.7718 0.56033,-5.7698 0,-8.57143 -0.41765,-2.08824 -1.90476,-3.80953 -2.85715,-5.71429 -0.95238,-2.85714 -2.2665,-5.61822 -2.85714,-8.57143 -0.37355,-1.86777 0.60234,-3.90727 0,-5.71428 -0.42592,-1.27775 -1.90476,-1.90476 -2.85714,-2.85714 -0.95238,-1.90477 -2.34064,-3.64829 -2.85714,-5.71429 -0.56187,-2.24748 0,-14.17164 0,-17.14286 0,-4.7619 0,-9.52381 0,-14.28571 0,-1.87745 -0.53734,-6.95943 0,-8.57143 3.45265,-10.35797 1.35561,-2.03342 5.71428,-8.57143 0.3548,-0.5322 5.5312,-11.24549 5.71429,-11.42857 1.50584,-1.50585 3.94236,-1.67586 5.71428,-2.85714 2.24133,-1.49422 3.47296,-4.22007 5.71429,-5.71429 14.43373,-9.62249 0.0662,-0.0221 8.57143,-2.85714 2.0203,-0.67344 3.64828,-2.34064 5.71428,-2.85714 1.84789,-0.46198 3.8664,0.46197 5.71429,0 5.67396,-1.41849 11.46889,-7.15294 17.14286,-8.57143 1.84789,-0.46198 3.84651,0.37355 5.71428,0 24.05622,-4.81125 0.0883,-0.0441 11.42857,-5.71429 0.85184,-0.42592 1.90476,0 2.85715,0 1.90476,0 3.90727,0.60234 5.71428,0 1.27775,-0.42592 1.65247,-2.2548 2.85714,-2.85714 0.85184,-0.42592 1.90477,0 2.85715,0 1.90476,0 4.01061,0.85183 5.71428,0 0.85184,-0.42592 -0.67343,-2.18371 0,-2.85714 0.95875,-0.95875 4.75554,0.95874 5.71429,0 0.67343,-0.67344 -0.67344,-2.18371 0,-2.85715 0.67343,-0.67343 2.00531,0.42592 2.85714,0 1.20468,-0.60234 1.65247,-2.2548 2.85714,-2.85714 1.70752,-0.85376 5.71429,1.88083 5.71429,-2.85714 0,-0.95238 -1.90476,0 -2.85714,0 -0.95238,0 -1.90476,0 -2.85715,0 -6.66666,0 -13.33333,0 -20,0 -14.28571,0 -28.57142,0 -42.85714,0 -2.56596,0 -16.59835,-0.36301 -17.14286,0 -2.24132,1.49422 -3.30493,4.50961 -5.71428,5.71428 -1.70367,0.85184 -3.80953,0 -5.71429,0 -2.85714,1.90476 -5.71428,3.80953 -8.57143,5.71429 -8.55166,5.70111 -17.35136,11.16934 -25.71428,17.14286 -3.87492,2.7678 -8.0614,5.20425 -11.42857,8.57142 -3.36718,3.36718 -5.20426,8.0614 -8.57143,11.42858 -3.36718,3.36717 -8.0614,5.20425 -11.42857,8.57142 -3.36718,3.36718 -5.01234,8.26494 -8.57143,11.42858 -5.133,4.56266 -11.51661,7.49019 -17.14286,11.42857 -33.75923,23.63146 20.58643,-11.35552 -34.28571,20 -5.96285,3.40734 -11.00019,8.35723 -17.14286,11.42857 -7.27809,3.63904 -15.30199,5.54937 -22.85714,8.57143 -6.73435,2.69374 -13.16038,6.15744 -20,8.57143 -9.3763,3.30928 -19.13853,5.42717 -28.57143,8.57147 -7.71958,2.5731 -15.050647,6.2754 -22.857137,8.5714 -8.42373,2.4775 -17.14286,3.8095 -25.71429,5.7143 -19.0831,4.2407 -29.35499,7.3704 -48.57143,8.5714 -7.6042101,0.4753 -15.23809014,0 -22.8571401,0 -9.5238099,0 -19.0476199,0 -28.5714299,0 -32.38095,0 -64.761903,0 -97.142853,0 -75.2381,0 -150.4762,0 -225.71429,0"
       id="path2985"
       inkscape:connector-curvature="0" />
    <path
       style="fill:none;stroke:#000000;stroke-width:1px;stroke-linecap:butt;stroke-linejoin:miter;stroke-opacity:1"
       d="m -491.42857,783.79075 c -2.26063,-20.76698 3.93728,-42.16027 11.42857,-57.14285 5.85867,-11.71733 95.72092,-15.35549 111.42857,-11.42857 5.75607,1.43901 17.56166,5.92368 22.85714,8.57142 16.71587,8.35794 43.10477,23.10477 54.28572,34.28572 25.46202,25.46202 17.14286,142.12585 17.14286,182.85714 0,11.74333 -1.56581,58.4342 2.85714,62.85719 9.3439,9.3439 34.55297,7.2764 48.57143,14.2857 9.08993,4.5449 32.46871,0 42.85714,0 4.54975,0 25.67588,2.8955 28.57143,0 2.38095,-2.381 0.47619,-9.0477 2.85714,-11.4286 1.76506,-1.7651 13.05634,-11.82697 14.28572,-14.28572 7.0225,-14.045 2.85714,-101.46271 2.85714,-122.85714 0,-10.38843 -4.54497,-33.76721 0,-42.85714 3.15433,-6.30867 5.20055,-7.54396 8.57143,-14.28572 1.18941,-2.37882 -1.81232,-9.61625 0,-11.42857 0.95238,-0.95238 7.61904,-1.90476 8.57143,-2.85714 1.34687,-1.34687 -1.34687,-4.36742 0,-5.71429 1.34687,-1.34687 4.36741,1.34687 5.71428,0 5.0297,-5.0297 7.24995,-7.91069 14.285716,-11.42857 4.744507,-2.37225 5.385645,-11.26425 11.428571,-14.28571 7.70349,-3.85175 30.845261,-5.90873 40,-2.85715 16.405568,5.46853 30.220455,15.11023 45.7142859,22.85715 16.2613341,8.13066 24.6717151,7.52885 37.1428571,20 3.580944,3.58094 13.296679,2.80216 17.142857,8.57143 7.66813,11.50219 4.626577,29.25315 8.571429,37.14285 4.356516,8.71303 2.265039,-5.22555 5.714285,8.57143 0.692959,2.77184 -1.277753,6.01592 0,8.57143 4.778928,9.55785 11.98692,41.74045 5.714286,54.28571 -9.427792,18.85559 -31.880045,31.88005 -42.857143,42.85715 -2.818057,2.81805 -3.632079,9.34636 -5.714285,11.42857 -1.34687,1.34687 -4.367416,-1.34687 -5.714286,0 -2.020309,2.02031 0,16.82641 0,20 0,25.56143 -4.151083,21.56323 11.428571,37.14283 2.020305,2.0203 6.015923,-1.2777 8.571429,0 4.204974,2.1025 15.490529,6.7298 22.857143,8.5715 15.951988,3.988 30.159928,10.3971 45.714284,14.2857 12.78989,3.1974 89.8327,1.5958 97.14286,-5.7143 2.89705,-2.8971 8.48275,-31.2512 11.42857,-37.1429 1.74899,-3.498 -1.24001,-10.5657 0,-14.2857 5.53932,-16.61795 14.2439,-31.30312 20,-48.57142 2.07636,-6.22909 -0.73133,-17.47443 2.85714,-22.85714 1.18129,-1.77193 4.20844,-1.3513 5.71429,-2.85714 0.95238,-0.95238 1.90476,-7.61905 2.85714,-8.57143 12.02356,-12.02356 38.63172,-30.37222 54.28572,-34.28572 7.08823,-1.77205 4.34033,-3.94222 11.42857,-5.71428 9.98572,-2.49643 23.94402,0 34.28571,0 21.27361,0 47.7537,-4.16355 68.57143,0 8.2004,1.64008 14.60736,7.19646 22.85714,8.57143 2.81827,0.46971 5.91864,-1.06112 8.57143,0 4.10049,1.64019 10.20597,8.70874 14.28572,11.42857 8.02913,5.35276 13.83439,7.21745 17.14285,17.14286 4.85042,14.55126 6.71176,61.72439 2.85715,77.14285 C 483.3326,1001.8889 480,1007.7773 480,1018.0765 c 0,5.4541 -3.64251,7.285 -5.71429,11.4285 -1.02037,2.0408 -5.8633,74.1367 -5.71428,74.2858 1.34687,1.3468 3.80952,0 5.71428,0 5.22367,0 4.33346,4.3016 8.57143,5.7142 4.28572,1.4286 10,-1.4285 14.28572,0 7.03805,2.3461 14.9436,5.9336 22.85714,8.5715 13.04848,4.3495 34.66758,0 48.57143,0 3.80952,0 8.73483,2.6937 11.42857,0 1.90476,-1.9048 0.95238,-6.6667 2.85714,-8.5715 3.22655,-3.2265 13.04643,-8.95 14.28572,-11.4285 1.96477,-3.9296 3.43044,-10.8584 8.57143,-14.2857 23.94869,-15.9658 64.84529,-35.4049 77.14285,-60 6.65442,-13.3089 -1.64565,-29.3488 2.85715,-42.85719 8.82418,-26.47256 2.21181,-62.21181 22.85714,-82.85714 5.91153,-5.91153 -9.0336,0.23108 2.85714,-5.71429 4.30709,-2.15354 8.88126,-3.01206 14.28572,-5.71428 7.45934,-3.72968 76.40475,0 88.57142,0 2.43951,0 18.20441,-1.79559 20,0 2.47382,2.47382 11.60654,10.26694 14.28572,14.28571 1.05657,1.58486 -0.60234,3.90727 0,5.71429 0.98469,2.95406 7.86777,7.16412 8.57143,8.57143 5.25635,10.5127 -0.97064,36.17221 8.57143,45.71428 3.57768,3.57769 13.1629,10.30576 17.14285,14.28572 1.79559,1.79559 17.5605,0 20,0 4.08597,0 25.64859,2.92284 28.57143,0 1.90476,-1.90477 -1.90476,-9.52381 0,-11.42858 6.16142,-6.16141 15.21206,-23.32031 25.71429,-28.57142 4.53417,-2.26709 35.73217,-5.23214 42.85714,-2.85715 4.0406,1.34687 7.2521,4.87899 11.4286,5.71429 4.6694,0.93388 9.7681,-1.50585 14.2857,0 2.5555,0.85183 3.101,5.06096 5.7143,5.71428 27.2686,6.81717 40.2792,23.41553 51.4285,45.71429 3.7392,7.47823 10.7428,12.91406 14.2858,19.99996 2.6581,5.3162 -1.8952,14.3146 0,20 6.8984,20.6955 -0.8238,-4.5046 5.7142,8.5715 7.2145,14.4289 -5.1464,38.8464 0,54.2857 1.1673,3.5017 5.4012,54.5989 2.8572,57.1428 -4.8411,4.8411 -11.092,10.419 -14.2857,20 -2.1243,6.3727 1.5578,27.0136 -2.8572,31.4286 -5.3033,5.3033 -21.7892,26.4357 -25.7143,34.2857 -0.8658,1.7316 -1.6598,7.3742 -2.8571,8.5715 -2.8507,2.8507 -9.3231,4.3605 -11.4286,8.5714 -1.7561,3.5122 0.6551,9.6725 -2.8571,11.4286 -3.9914,1.9956 -7.8934,2.1791 -11.4286,5.7142 -0.4626,0.4626 -2.5108,8.3983 -2.8571,8.5715 -1.7037,0.8518 -4.0106,-0.8519 -5.7143,0 -4.4493,2.2246 -14.4841,13.0059 -20,17.1428 -2.4094,1.807 -5.98894,1.3077 -8.57144,2.8572 -16.96188,10.1771 -32.17957,27.0673 -51.42857,34.2857 -47.72703,17.8976 -105.03473,35.8641 -154.28572,45.7143 -6.71726,1.3434 -13.33236,6.9045 -20,8.5714 -12.6743,3.1686 -114.44691,2.8249 -128.57143,0 -5.77748,-1.1555 -26.4512,-15.0226 -28.57143,-17.1429 -0.45392,-0.4539 -11.17459,-24.6983 -11.42857,-25.7142 -2.13656,-8.5463 -4.68945,-50.6212 0,-60 2.01663,-4.0333 5.62437,-4.2408 8.57143,-5.7143 15.79201,-7.896 24.31594,-21.4588 34.28572,-31.4286 2.31301,-2.313 0,-19.2232 0,-22.8571 0,-2.2372 1.42564,-12.8601 0,-14.2858 -4.6782,-4.6782 -37.70313,0 -45.71429,0 -22.42544,0 -41.09501,7.0762 -62.85714,11.4286 -20.04921,4.0099 -45.29498,0 -65.71429,0 -45.71428,0 -91.42857,0 -137.14286,0 -36.19047,0 -72.38095,0 -108.57142,0 -12.38096,0 -24.76191,0 -37.14286,0 -3.80953,0 -15.2381,0 -11.42857,0"
       id="path2989"
       inkscape:connector-curvature="0" />
    <path
       style="fill:none;stroke:#000000;stroke-width:1px;stroke-linecap:butt;stroke-linejoin:miter;stroke-opacity:1"
       d="m -551.42857,1655.2193 c 9.79178,-39.2745 19.48914,-96.632 45.71428,-122.8571 33.22644,-33.2265 91.49834,-42.8572 140,-42.8572 285.903141,0 -9.46946,322.4082 128.57143,391.4286 126.68932,63.3447 411.42857,-441.4946 411.42857,-191.4286 0,29.455 12.92879,96.9996 0,122.8572 -23.21832,46.4366 -60,76.249 -60,140 0,126.5283 270.9477,-303.0175 288.57143,-297.1429 109.04646,36.3488 -38.54642,381.4203 68.57143,345.7143 126.32882,-42.1096 76.56409,-268.5714 214.28572,-268.5714 58.22061,0 10.73444,162.163 42.85714,194.2857 80.50703,80.507 122.97898,-145.5925 182.85714,-85.7143 139.46303,139.463 -12.62351,369.7664 -102.85714,460 -71.06122,71.0612 -283.56416,-47.1283 -308.57143,-97.1428 -32.99242,-65.9849 205.40125,-26.0274 97.14286,-134.2858 -21.57202,-21.572 -434.14235,34.2858 -571.428574,34.2858"
       id="path2991"
       inkscape:connector-curvature="0" />
    <path
       style="fill:#000000;fill-rule:evenodd;stroke:none"
       d="m -504.83165,2748.2185 9.6633,2.573 c 0.90191,-3.4617 2.36282,-6.9023 4.04546,-10.3647 2.09778,-4.2888 4.56225,-8.4596 7.21791,-12.5712 6.61961,-10.2447 14.3178,-19.8685 22.49069,-29.1552 9.61413,-10.9149 19.91031,-21.2505 30.70269,-31.0613 5e-5,0 10e-5,-10e-5 1.4e-4,-10e-5 11.42664,-10.3846 23.39749,-20.1579 35.91903,-29.1476 12.18157,-8.7416 24.84947,-16.7517 38.11876,-23.5101 11.96421,-6.0817 24.35283,-11.2078 37.1801,-14.2261 10.98327,-2.5539 22.27446,-3.6717 32.92423,-1.6351 4.88502,0.9155 9.63256,2.4726 13.98827,4.7182 4.4725,2.2943 8.58833,5.3415 12.18264,8.922 5e-5,1e-4 9e-5,1e-4 1.3e-4,1e-4 6.41602,6.4126 12.20595,13.3873 16.8042,21.0201 3.8975,6.4646 6.95879,13.4097 8.82134,20.6291 2e-5,1e-4 3e-5,1e-4 5e-5,2e-4 1.72406,6.6423 2.44827,13.5636 2.21804,20.4573 0,1e-4 -1e-5,2e-4 -1e-5,2e-4 -0.22514,6.8954 -1.41168,13.8026 -3.26494,20.5637 -3.96463,14.5253 -10.99277,28.2632 -18.96179,41.499 -8.54247,14.1486 -18.29701,27.6665 -28.1174,41.252 -9.51971,13.1565 -19.2155,26.3714 -27.86351,40.4169 -4e-5,0 -7e-5,1e-4 -1.1e-4,1e-4 -3.93303,6.3872 -7.64489,12.9817 -10.86676,19.8733 -3e-5,1e-4 -6e-5,1e-4 -9e-5,2e-4 -2.9413,6.2815 -5.46619,12.8585 -7.18488,19.7362 -1.58887,6.3435 -2.42154,12.972 -2.12037,19.6617 0.31194,6.6443 1.81182,13.2205 4.43603,19.342 2.96891,6.8764 7.21169,13.0464 12.1382,18.4407 3e-5,0 5e-5,0 7e-5,0 6.13796,6.7261 13.22611,12.3781 20.63848,17.2917 8.87691,5.9131 18.38482,11.0788 28.54867,14.8086 8.47285,3.1095 17.42535,5.1405 26.5597,5.6217 8.27655,0.4257 16.60372,-0.4713 24.5958,-2.6366 7.9755,-2.1693 15.54096,-5.5315 22.55915,-9.6881 6e-5,-1e-4 1.2e-4,-1e-4 1.7e-4,-1e-4 7.46263,-4.4187 14.33548,-9.6766 20.70733,-15.3848 6.89947,-6.1771 13.2556,-12.8777 19.22963,-19.837 13.12925,-15.2966 24.57936,-31.8223 35.50831,-48.514 11.50298,-17.5582 22.420131,-35.4106 33.692667,-52.9559 10.744802,-16.7157 21.735436,-33.2055 34.116024,-48.5137 5.610266,-6.9373 11.49543,-13.6133 17.82915,-19.7863 5.802517,-5.6516 11.959813,-10.8873 18.603309,-15.3294 6.130763,-4.0963 12.66872642,-7.532 19.5454465,-9.8577 6.6993015,-2.2721 13.7547845,-3.497 20.7976375,-3.5029 6.2e-5,0 1.23e-4,0 1.85e-4,0 2.569602,0 5.091815,0.2539 7.45517,0.885 2.073157,0.55 4.055014,1.378 5.813323,2.4974 2.3e-5,0 4.6e-5,0 6.9e-5,10e-5 1.700799,1.0717 3.244054,2.4437 4.578675,4.0094 1.413626,1.6528 2.600592,3.5622 3.610232,5.6039 2.38839,4.7997 3.652285,10.269 4.499078,15.8954 1.013936,6.8892 1.25034,13.9537 1.189213,21.0752 0,0 -10e-7,10e-5 -10e-7,10e-5 -0.07587,8.2444 -0.602961,16.5182 -1.304033,24.8106 -0.767296,9.0627 -1.758221,18.128 -2.793469,27.2096 -2.141704,18.7727 -4.518478,37.6057 -5.861061,56.6035 -1.217739,17.007 -1.785144,34.3628 0.895803,51.5396 10e-6,0 2.1e-5,1e-4 3.1e-5,2e-4 1.107173,7.1137 2.869934,14.2545 5.820672,21.0286 2.601346,5.9895 6.277171,11.6529 11.19778,16.2363 5.02711,4.6294 11.174229,7.8608 17.673027,9.6119 3.4e-5,0 6.7e-5,0 1.01e-4,0 8.07226,2.1569 16.419382,2.3068 24.445381,1.4534 4e-5,0 7e-5,0 1e-4,0 11.01602,-1.1502 21.69154,-4.0038 31.98411,-7.5193 14.05213,-4.7886 27.57631,-10.8665 40.74571,-17.4761 1.96196,-0.997 3.67962,-2.2364 5.2056,-3.5451 1.91097,-1.626 3.63353,-3.388 5.23202,-5.1884 4.1502,-4.6708 7.72393,-9.7158 11.07709,-14.7883 2e-5,0 4e-5,-1e-4 6e-5,-1e-4 4.30255,-6.4976 8.28446,-13.1648 12.13968,-19.8652 4e-5,0 7e-5,-1e-4 1e-4,-1e-4 4.54743,-7.9017 8.92313,-15.8838 13.24204,-23.879 9.95523,-18.4284 19.64303,-36.9656 29.63098,-55.3078 10.65022,-19.5569 21.59491,-38.9309 33.41897,-57.7326 11.17081,-17.7569 23.05229,-35.0531 36.6233,-50.8975 6.04284,-7.0554 12.41427,-13.8044 19.28043,-19.9752 6.16104,-5.5336 12.70086,-10.6113 19.74748,-14.7886 6.31504,-3.7397 13.03114,-6.7699 20.04494,-8.5272 6.63099,-1.6664 13.5552,-2.1815 20.29524,-1.3233 7.24185,0.9066 14.29967,3.3966 20.80275,6.9155 2e-5,1e-4 5e-5,1e-4 8e-5,1e-4 7.9138,4.2805 15.0322,10.0676 21.51072,16.5159 3.15569,3.1359 5.74936,6.8819 7.87244,10.9025 2.35188,4.4589 4.11201,9.2668 5.51024,14.2083 3.31648,11.7168 4.58478,24.0282 5.26634,36.3921 0.78505,14.4237 0.61916,28.9281 0.2934,43.459 -0.34748,15.4294 -0.92607,30.8843 -1.14865,46.3759 -0.21782,15.0603 -0.12999,30.1802 1.02841,45.2746 0,1e-4 0,1e-4 10e-6,1e-4 1.03211,13.5281 2.90925,27.1334 6.89799,40.2539 1.77596,5.8375 4.00398,11.5764 6.85973,17.0318 2.67347,5.1084 5.92325,9.9555 9.81986,14.2763 5e-5,10e-5 10e-5,10e-5 1.4e-4,2e-4 3.84712,4.2614 8.31968,7.9619 13.25889,10.909 5.31102,3.1627 11.09789,5.4367 17.04811,6.9131 6.26841,1.5628 12.83142,2.0692 19.28945,1.2779 6.17189,-0.7671 12.13936,-2.6948 17.64889,-5.4483 5.86542,-2.9326 11.22233,-6.7227 16.13067,-10.9384 5.43087,-4.6608 10.35944,-9.8355 14.95667,-15.2354 10.41831,-12.2373 19.30516,-25.6063 27.8518,-39.0557 9.20068,-14.4706 17.97078,-29.1628 27.22687,-43.5003 3e-5,0 7e-5,-10e-5 1.1e-4,-2e-4 8.8897,-13.7634 18.16171,-27.2715 28.91321,-39.487 4.89913,-5.5667 10.10305,-10.8492 15.7519,-15.5829 5.25123,-4.3987 10.88449,-8.3285 16.93579,-11.4211 5.80169,-2.9658 11.99982,-5.1573 18.38287,-6.2846 6e-5,-1e-4 1.3e-4,-1e-4 1.9e-4,-1e-4 6.64965,-1.18 13.50959,-1.199 20.21476,-0.1933 7.7555,1.1596 15.31203,3.6675 22.50175,6.9728 8.89571,4.0916 17.23619,9.3997 25.13489,15.3037 9.4182,7.0314 17.16616,16.2135 23.57023,26.2004 4e-5,1e-4 7e-5,1e-4 1.1e-4,2e-4 6.82536,10.6531 12.17622,22.2423 16.76502,34.1196 4.70447,12.1836 8.57921,24.699 12.18102,37.3043 3.3879,11.8595 6.50103,23.8226 9.91795,35.7249 0,0 10e-6,1e-4 2e-5,1e-4 6.37317,22.222 10.32657,45.2591 9.61483,68.2882 -0.30144,9.8259 -1.46397,19.627 -3.64031,29.1993 -2.0411,8.9797 -4.97723,17.7578 -8.80768,26.1279 -7.53481,16.4765 -18.61249,31.2688 -31.81899,43.7378 -14.32612,13.5279 -31.03521,24.4285 -48.65439,33.3928 -20.01599,10.1811 -41.2407,17.9117 -62.86497,24.1325 -7e-5,0 -1.3e-4,0 -1.9e-4,1e-4 -24.36718,7.0086 -49.27802,12.0837 -74.36037,15.9674 -6e-5,10e-5 -1.3e-4,10e-5 -1.9e-4,10e-5 -56.92087,8.8136 -114.65576,11.6743 -172.30047,11.9949 -61.92179,0.3435 -123.84071,-2.4639 -185.62342,-6.8718 -59.19071,-4.2231 -118.26703,-9.9904 -177.265004,-16.4282 -3.3e-5,0 -6.5e-5,0 -9.8e-5,-10e-5 -26.253847,-2.8648 -52.493347,-5.865 -78.730806,-8.8847 -22.8361368,-2.6283 -45.670423,-5.2792 -68.521774,-7.778 -3.3e-5,0 -6.5e-5,0 -9.8e-5,0 -18.516224,-2.0247 -37.043465,-3.9739 -55.60741,-5.5055 -7.36472,-0.6077 -14.73575,-1.147 -22.11521,-1.5364 -5.95232,-0.3141 -11.91127,-0.5388 -17.87164,-0.5312 5.96037,0.01 11.91813,0.2475 17.86917,0.5768 7.37783,0.4082 14.74663,0.9663 22.10914,1.5926 18.558452,1.579 37.078689,3.5752 55.589022,5.6471 22.843851,2.557 45.6704803,5.2661 68.500143,7.9527 26.229871,3.0866 52.462499,6.154 78.711076,9.086 6.5e-5,0 1.3e-4,0 1.95e-4,10e-5 58.986014,6.5889 118.056844,12.5079 177.255234,16.8836 61.78981,4.5673 123.733,7.5341 185.7081,7.349 6e-5,0 1.3e-4,0 1.9e-4,0 57.69093,-0.1713 115.51564,-2.8903 172.59615,-11.5764 7e-5,0 1.3e-4,0 1.9e-4,0 25.15484,-3.8279 50.16373,-8.8577 74.66019,-15.8343 21.73868,-6.1901 43.11611,-13.9179 63.33036,-24.1305 17.7981,-8.9897 34.72376,-19.9786 49.30944,-33.6689 13.4546,-12.6305 24.76344,-27.66 32.50762,-44.4604 3.93009,-8.532 6.94832,-17.4767 9.05238,-26.6278 2.24214,-9.7539 3.45286,-19.7281 3.78332,-29.717 0,-1e-4 0,-1e-4 0,-2e-4 0.76898,-23.4036 -3.16073,-46.7488 -9.55011,-69.1957 -3.37321,-11.8632 -6.45523,-23.8321 -9.82585,-35.7471 -3.58009,-12.6585 -7.45215,-25.272 -12.1748,-37.603 -4.60071,-12.0195 -10.01809,-23.814 -16.96955,-34.741 -6.52101,-10.259 -14.51204,-19.7504 -24.30973,-27.131 -8.01603,-6.032 -16.54677,-11.4838 -25.7104,-15.7354 -7.41153,-3.4402 -15.27262,-6.0617 -23.41968,-7.312 -7.05625,-1.0799 -14.29578,-1.0749 -21.3546,0.1542 -6e-5,0 -1.3e-4,0 -2e-4,0 -6.77051,1.1844 -13.31035,3.4716 -19.40579,6.5736 -6.34792,3.2313 -12.21844,7.2962 -17.64475,11.8262 -5.83661,4.8706 -11.18787,10.2696 -16.19189,15.9317 -10.97234,12.4163 -20.39301,26.0507 -29.35124,39.8572 -9.34093,14.3896 -18.15412,29.0681 -27.35169,43.4522 -4e-5,0 -7e-5,1e-4 -1.1e-4,2e-4 -8.55913,13.3782 -17.36991,26.5758 -27.61552,38.5322 -4.51647,5.2705 -9.30672,10.2812 -14.5395,14.7421 -5e-5,1e-4 -10e-5,1e-4 -1.4e-4,2e-4 -4.72999,4.0288 -9.81215,7.6172 -15.30311,10.3329 -5.1414,2.544 -10.65813,4.3199 -16.29412,4.9949 -5.89026,0.7168 -11.93436,0.2257 -17.73458,-1.2287 -5.58102,-1.4064 -10.97318,-3.5342 -15.86328,-6.4721 -4.54945,-2.7274 -8.67898,-6.1646 -12.23126,-10.1181 -2e-5,0 -4e-5,0 -6e-5,0 -3.60802,-4.0109 -6.63532,-8.5635 -9.15447,-13.3935 -3e-5,-10e-5 -5e-5,-2e-4 -8e-5,-2e-4 -2.69272,-5.1643 -4.80153,-10.6525 -6.50349,-16.2809 -3.83439,-12.6704 -5.61593,-25.9551 -6.61548,-39.3018 -1.10767,-14.8811 -1.15278,-29.8599 -0.90089,-44.857 0.26045,-15.4189 0.8782,-30.8586 1.26624,-46.3348 0.36671,-14.5658 0.56803,-29.193 -0.18749,-43.8335 -0.63791,-12.5291 -1.93282,-25.2011 -5.35029,-37.4854 -1.44618,-5.1965 -3.32284,-10.3347 -5.86148,-15.2007 -2.29418,-4.4019 -5.17892,-8.5648 -8.7482,-12.1538 -6.6965,-6.7267 -14.18994,-12.8247 -22.64229,-17.4499 -6e-5,0 -1.2e-4,0 -1.8e-4,-10e-5 -6.9728,-3.814 -14.6304,-6.5195 -22.60637,-7.5594 -7.43446,-0.9548 -15.00672,-0.4205 -22.23774,1.3842 -7.61787,1.9064 -14.81338,5.1122 -21.47887,9.0546 -7.43277,4.3918 -14.26936,9.6601 -20.63436,15.3595 -7.09826,6.3521 -13.65247,13.2534 -19.82666,20.4309 -13.85651,16.1086 -25.94463,33.5935 -37.23557,51.456 -11.96471,18.9219 -23.01993,38.3715 -33.74755,57.9549 -2e-5,1e-4 -3e-5,1e-4 -5e-5,1e-4 -10.06616,18.3746 -19.80477,36.8935 -29.78106,55.2485 -4.32802,7.9627 -8.69787,15.8868 -13.22398,23.7044 -3.84163,6.6338 -7.77381,13.1835 -11.98946,19.5109 -3.30694,4.9551 -6.71661,9.7623 -10.58226,14.0723 -1.48464,1.6538 -3.00679,3.2122 -4.63004,4.5773 -1.31251,1.0936 -2.62515,2.0601 -3.98922,2.7261 -13.03339,6.4918 -26.3124,12.4267 -40.00437,17.0454 -10.04494,3.3805 -20.26651,6.1068 -30.61429,7.1375 -7.527805,0.7344 -15.100472,0.6271 -22.114337,-1.3209 -5.8e-5,0 -1.17e-4,0 -1.75e-4,0 -5.572318,-1.5336 -10.81523,-4.2829 -14.961066,-8.1599 -4.136956,-3.8159 -7.286348,-8.7664 -9.624248,-14.0992 -2.657896,-6.0825 -4.246789,-12.6912 -5.302066,-19.4365 -10e-6,0 -2e-5,-10e-5 -2.9e-5,-2e-4 -2.550789,-16.3536 -1.918314,-33.2052 -0.704562,-50.0471 1.368906,-18.7488 3.784422,-37.4773 5.978127,-56.2994 1.061475,-9.1002 2.082265,-18.2289 2.883175,-27.4013 0.733355,-8.3871 1.290184,-16.8327 1.393158,-25.3284 0.0932,-7.3249 -0.148549,-14.7492 -1.206162,-22.1581 -0.84363,-6.041 -2.30719,-12.2096 -5.101976,-17.9987 -1.206606,-2.4858 -2.707435,-4.8873 -4.552773,-7.0803 -1.760965,-2.0873 -3.837112,-3.932 -6.178167,-5.4274 -2.431694,-1.5418 -5.07625,-2.6669 -7.801319,-3.3877 -3.6e-5,0 -7.1e-5,0 -1.07e-4,0 -3.084367,-0.8119 -6.215789,-1.1484 -9.281764,-1.1444 -6.9e-5,0 -1.38e-4,0 -2.07e-4,0 -7.861121,-0.01 -15.686798,1.3257 -23.1069122,3.8255 -7.5895729,2.5634 -14.7047425,6.2608 -21.2736268,10.6436 -7.110157,4.7408 -13.627178,10.24 -19.679586,16.1188 -6.610207,6.4165 -12.70869,13.2917 -18.467251,20.3826 -12.69634,15.6347 -23.889434,32.3171 -34.716051,49.0827 -11.377985,17.6107 -22.329015,35.4173 -33.789685,52.8114 -10.90881,16.547 -22.19947,32.7764 -35.02177,47.6164 -2e-5,0 -5e-5,0 -7e-5,0 -5.82749,6.7454 -11.95862,13.1838 -18.55258,19.0493 -6.09131,5.4147 -12.55794,10.3493 -19.4857,14.414 -6.50357,3.8147 -13.41526,6.8796 -20.59477,8.7975 -7.17403,1.9249 -14.6589,2.7119 -22.06849,2.3097 -8.19506,-0.4335 -16.34801,-2.3238 -24.16466,-5.1974 -9.40136,-3.4565 -18.31978,-8.3532 -26.78546,-14.0019 -6.99412,-4.6907 -13.55471,-9.9183 -19.05323,-16.0134 -4.3876,-4.8681 -8.11685,-10.2721 -10.59816,-16.1379 -2.21155,-5.1841 -3.47241,-10.7893 -3.72191,-16.4286 -0.26551,-5.7086 0.50208,-11.5221 1.92342,-17.2193 1.54988,-6.1963 3.90771,-12.2512 6.68374,-18.1732 10e-6,0 3e-5,0 4e-5,-10e-5 3.04906,-6.4935 6.62176,-12.7906 10.44999,-18.9832 2e-5,0 4e-5,0 5e-5,-1e-4 8.42764,-13.6312 18.03618,-26.641 27.60774,-39.8113 9.86597,-13.562 19.78799,-27.2547 28.62522,-41.785 8.26822,-13.558 15.65435,-28.0221 20.03803,-43.6937 2.04156,-7.327 3.35335,-14.9245 3.63946,-22.6367 0,0 0,-10e-5 1e-5,-10e-5 0.28153,-7.7292 -0.51705,-15.5103 -2.44351,-23.0371 -1e-5,0 -2e-5,-1e-4 -3e-5,-1e-4 -2.10189,-8.168 -5.48322,-15.9303 -9.78308,-23.078 -5.06372,-8.4116 -11.29242,-15.987 -18.11981,-22.8178 -5e-5,-1e-4 -1e-4,-1e-4 -1.5e-4,-2e-4 -4.22531,-4.239 -9.09737,-7.8566 -14.45301,-10.632 -5.2198,-2.6935 -10.80909,-4.5549 -16.51315,-5.6289 -12.3783,-2.2898 -24.96151,-1.1746 -36.78713,1.6347 -13.79929,3.2427 -26.90723,8.5938 -39.32924,14.901 -13.80389,6.9956 -26.90435,15.2226 -39.41241,24.1601 -5e-5,0 -1.1e-4,1e-4 -1.6e-4,1e-4 -12.86639,9.1895 -25.15075,19.1643 -36.85826,29.752 -5e-5,10e-5 -1e-4,10e-5 -1.5e-4,2e-4 -11.05785,9.9976 -21.63442,20.5635 -31.54427,31.7533 -8.41506,9.4938 -16.43246,19.4846 -23.45052,30.261 -2.82096,4.33 -5.4903,8.8357 -7.83293,13.5767 -1.88475,3.7921 -3.58468,7.8406 -4.76285,12.1909 z"
       id="path2993"
       inkscape:path-effect="#path-effect2995"
       inkscape:original-d="m -500,2749.505 c 14.52371,-54.5456 177.62378,-205.2333 242.85714,-140 117.00282,117.0029 -164.84999,232.9572 -34.28571,320 154.19262,102.7951 198.317053,-225.7142 319.999999,-225.7142 98.058871,0 -92.842676,354.9927 148.571431,234.2857 47.23028,-23.6152 152.81374,-370.0434 271.42857,-251.4286 52.12472,52.1247 -27.03426,261.0986 71.42857,285.7143 103.34702,25.8367 128.76776,-269.8528 271.42857,-162.8572 37.69449,28.2709 50.17265,89.89 62.85714,134.2858 115.17642,403.1174 -833.206375,205.7142 -1000,205.7142"
       inkscape:connector-curvature="0" />
    <path
       style="fill:#000000;fill-rule:evenodd;stroke:none"
       d="m -508.57143,3795.2193 c 5.11594,-17.3064 9.72584,-34.7598 14.83978,-52.0654 4.66453,-15.7844 9.76616,-31.4775 16.47989,-46.4965 6.39981,-14.3166 14.37155,-27.9911 24.42361,-40.0121 10.87237,-13.0036 24.12849,-23.9371 38.67182,-32.6389 15.70618,-9.3968 31.71699,-18.3121 48.29393,-26.0467 6e-5,0 1.2e-4,0 1.8e-4,-10e-5 11.9877,-5.5926 24.27401,-10.6284 37.03309,-14.038 8.84725,-2.3619 17.97623,-4.0067 27.07414,-3.4685 3.46255,0.2042 6.9084,0.7447 10.20951,1.7639 2.90522,0.8966 5.69616,2.1698 8.22606,3.8408 2.40693,1.5887 4.5751,3.5371 6.43685,5.7424 1.91838,2.2715 3.51557,4.8118 4.83199,7.4883 3e-5,10e-5 6e-5,10e-5 9e-5,2e-4 2.99651,6.0878 4.57275,12.8084 5.49405,19.5687 0,0 1e-5,1e-4 1e-5,1e-4 1.1013,8.1018 1.24341,16.3189 0.98579,24.512 0,1e-4 0,1e-4 -10e-6,2e-4 -0.29505,9.3581 -1.14361,18.6967 -2.2175,28.0089 -2.34325,20.3174 -5.76765,40.505 -8.72537,60.7711 -10e-6,1e-4 -2e-5,2e-4 -3e-5,2e-4 -1.45134,9.9435 -2.80597,19.9081 -3.83714,29.9141 0,0 0,1e-4 -1e-5,1e-4 -0.94856,9.2017 -1.63568,18.4473 -1.70209,27.7161 -0.0589,8.0561 0.33456,16.1607 1.78477,24.124 1.20778,6.6536 3.19193,13.2735 6.67281,19.1517 1.56234,2.6343 3.43716,5.0965 5.63099,7.2553 2.18713,2.1506 4.68447,3.9824 7.39042,5.4271 6e-5,1e-4 1.2e-4,1e-4 1.8e-4,1e-4 2.92199,1.5586 6.06476,2.6662 9.27972,3.3877 3.71193,0.8329 7.51276,1.1704 11.2939,1.1738 5.78498,0 11.51988,-1.1745 16.93317,-3.1253 3e-5,0 7e-5,-10e-5 1e-4,-10e-5 6.02455,-2.1704 11.67743,-5.2438 16.98457,-8.7653 12.77504,-8.4769 23.74611,-19.3507 33.9303,-30.7109 5e-5,0 9e-5,-1e-4 1.3e-4,-1e-4 12.02872,-13.4105 22.97269,-27.7379 33.53427,-42.293 11.16208,-15.3814 21.86752,-31.0761 32.61047,-46.728 10.172781,-14.8205 20.341869,-29.634 31.102328,-43.9956 2e-5,0 4e-5,0 6e-5,-10e-5 8.971015,-11.9688 18.251169,-23.731 28.953002,-34.0581 4.193636,-4.0454 8.601203,-7.8559 13.41464,-11.0352 3.900318,-2.5691 8.056406,-4.7523 12.483192,-5.8628 3.762475,-0.9449 7.752018,-1.0556 11.4105414,0.01 6.04e-5,0 1.208e-4,0 1.812e-4,0 4.0077929,1.1347 7.6023641,3.6243 10.6303733,6.6421 2.29e-5,0 4.57e-5,0 6.85e-5,0 3.1841457,3.1775 5.5345526,7.1788 7.3672533,11.3977 2.2070343,5.0985 3.6477823,10.5366 4.7363223,16.0538 2.755448,13.9839 3.291927,28.3627 3.443755,42.7231 0.17535,17.0735 -0.430834,34.1653 -0.966218,51.2755 -0.555596,17.7316 -1.102231,35.4909 -0.861399,53.272 10e-7,1e-4 10e-7,1e-4 2e-6,1e-4 0.218122,16.2946 1.021246,32.6755 3.807566,48.8223 1.209235,7.0079 2.818261,13.9816 5.112882,20.7621 2.2e-5,10e-5 4.4e-5,2e-4 6.5e-5,2e-4 2.030345,6.0068 4.625287,11.8826 8.082718,17.2817 3.138411,4.9025 7.040713,9.3781 11.72435,12.9424 4.727951,3.5864 10.190075,6.1477 15.923352,7.5993 6.70357,1.6904 13.663083,1.9506 20.457673,1.3401 8.706008,-0.7778 17.209869,-2.8868 25.424552,-5.6188 4e-5,0 7e-5,-1e-4 1e-4,-1e-4 15.30016,-5.074 30.01969,-12.2124 43.00524,-21.8851 6e-5,0 1.1e-4,-10e-5 1.6e-4,-10e-5 11.13887,-8.3057 20.86609,-18.4529 28.84845,-29.8116 4e-5,-1e-4 8e-5,-2e-4 1.2e-4,-2e-4 7.65249,-10.8952 13.73001,-22.7979 18.76762,-35.0491 2e-5,0 3e-5,0 4e-5,-1e-4 5.06527,-12.3139 9.12769,-24.9775 12.92693,-37.6623 3.78176,-12.6201 7.30171,-25.2813 11.31975,-37.7474 3.9001,-12.0922 8.25894,-24.0208 13.86439,-35.3177 3e-5,-1e-4 6e-5,-2e-4 9e-5,-2e-4 5.4719,-11.024 12.174,-21.4512 20.4693,-30.4239 3e-5,-10e-5 5e-5,-10e-5 7e-5,-10e-5 8.83956,-9.5762 19.51663,-17.4377 31.19605,-23.2604 6.83887,-3.3744 14.01201,-6.1404 21.31502,-6.3879 2.74123,-0.1017 5.47805,0.1599 8.04329,0.9114 2.37908,0.6894 4.64333,1.8057 6.6599,3.2603 2.10605,1.5127 3.96549,3.4151 5.59464,5.5218 1.82016,2.3561 3.33918,4.98 4.65943,7.7283 3e-5,0 6e-5,1e-4 8e-5,1e-4 3.20621,6.6692 5.18031,13.9582 6.7277,21.3676 1.89203,9.1077 3.02556,18.3955 3.87866,27.7334 0.978,10.7253 1.54596,21.5029 1.98439,32.3017 1e-5,10e-5 1e-5,2e-4 1e-5,2e-4 0.96341,23.7512 1.27924,47.5729 2.43519,71.4112 0,10e-5 10e-6,10e-5 10e-6,2e-4 1.11729,23.1385 2.85723,46.4005 7.4486,69.2693 1e-5,0 2e-5,10e-5 2e-5,10e-5 2.0173,10.0507 4.62813,20.048 8.31766,29.7075 3.24961,8.5234 7.39873,16.825 12.94458,24.2437 5.06655,6.7773 11.40155,12.7102 18.84354,16.9605 7.86801,4.4627 16.7362,6.8933 25.65732,7.5667 11.18348,0.839 22.34358,-0.7792 33.01132,-3.5594 7e-5,0 1.3e-4,0 2e-4,-1e-4 14.39491,-3.7382 28.12559,-9.507 41.31032,-16.0869 3e-5,0 6e-5,0 9e-5,0 12.85064,-6.415 24.0217,-15.9653 32.61818,-27.4235 8.67778,-11.5883 14.8739,-24.759 19.63804,-38.2285 5.13273,-14.4823 8.74335,-29.3859 11.93396,-44.2712 3.28922,-15.3259 6.11507,-30.6899 9.42939,-45.8896 3.19522,-14.6329 6.79148,-29.138 11.92332,-43.0393 2e-5,-1e-4 4e-5,-2e-4 6e-5,-2e-4 4.74515,-12.8234 10.79764,-25.1767 19.18854,-35.6847 4.06347,-5.1011 8.66593,-9.7624 13.75881,-13.7811 5.31629,-4.1996 11.18504,-7.711 17.38666,-10.4798 6e-5,0 1.2e-4,0 1.7e-4,-1e-4 6.91631,-3.0911 14.26286,-5.2645 21.76535,-6.7024 4e-5,0 7e-5,0 10e-5,0 8.81005,-1.6882 17.83824,-2.3553 26.88687,-2.3475 4.59833,0.01 9.19424,0.8691 13.39672,2.6144 4.20102,1.7267 8.0711,4.354 11.4969,7.4961 3.79635,3.4827 7.04718,7.6261 9.90945,12.0674 3e-5,10e-5 7e-5,10e-5 10e-5,2e-4 3.25828,5.0651 5.97113,10.5225 8.34653,16.1588 10e-6,0 3e-5,0 4e-5,10e-5 5.63693,13.374 9.31526,27.598 12.21388,42.0084 3.3369,16.6322 5.49955,33.5207 7.07361,50.4861 3.24855,35.028 3.95035,70.2977 3.78033,105.5779 -0.0729,14.9377 -0.33145,29.8843 -0.63642,44.8402 0,0 0,1e-4 0,1e-4 -0.22249,10.8946 -0.51875,21.8267 -0.53283,32.7999 -0.0352,23.8494 -2.85809,47.7088 -9.18542,70.6097 -5.77085,20.9048 -14.48247,40.9995 -25.91208,59.4009 -11.20675,18.0527 -25.01336,34.4843 -40.59265,48.9982 -16.15396,15.051 -34.20538,28.0628 -53.31234,39.2689 -6e-5,10e-5 -1.1e-4,10e-5 -1.7e-4,10e-5 -20.33483,11.9248 -41.87182,21.8085 -64.01292,30.0903 -3e-5,0 -6e-5,0 -9e-5,10e-5 -23.63357,8.8386 -47.96105,15.842 -72.61561,21.4388 -53.21259,12.0818 -107.82277,17.6947 -162.47979,19.1377 -57.1463,1.5038 -114.40139,-1.6398 -171.16514,-8.6397 -7e-5,0 -1.3e-4,0 -2e-4,0 -54.897142,-6.7726 -109.355012,-17.1362 -162.687355,-31.6314 -6.5e-5,-1e-4 -1.29e-4,-1e-4 -1.93e-4,-1e-4 -24.570448,-6.6781 -48.888071,-14.2443 -72.793957,-22.911 -3.2e-5,0 -6.3e-5,0 -9.4e-5,0 -21.843041,-7.9197 -43.339411,-16.7405 -64.215181,-26.8021 -18.4723,-8.9056 -36.45902,-18.7479 -53.4573,-30.0209 -14.52752,-9.6421 -28.34881,-20.2669 -40.51086,-32.475 l -7.07106,7.071 c 12.82593,12.7799 27.18878,23.7892 42.14008,33.6355 17.49536,11.5308 35.89296,21.5464 54.69362,30.5447 21.25049,10.1735 43.06808,19.0655 65.1814,27.0178 6.3e-5,0 1.26e-4,0 1.9e-4,1e-4 24.203805,8.705 48.787353,16.288 73.593326,22.9623 6.4e-5,0 1.29e-4,0 1.94e-4,0 53.834816,14.485 108.74395,24.7945 164.04521,31.4741 57.18289,6.9098 114.8787,9.9295 172.48139,8.2726 55.08738,-1.5798 110.22536,-7.3996 164.04601,-19.7484 24.94267,-5.7239 49.59644,-12.8921 73.59127,-21.9302 6e-5,0 1.2e-4,-1e-4 1.9e-4,-1e-4 22.48114,-8.4666 44.39832,-18.5983 65.15022,-30.83 6e-5,-10e-5 1.1e-4,-10e-5 1.7e-4,-10e-5 19.5042,-11.495 37.97008,-24.8872 54.55402,-40.404 15.99969,-14.9718 30.18201,-31.9485 41.72199,-50.6275 11.76294,-19.0504 20.70049,-39.8049 26.59652,-61.3785 6.45172,-23.6268 9.29803,-48.1224 9.26285,-72.5237 0,0 0,-10e-5 0,-10e-5 -0.0141,-10.8517 0.25453,-21.7402 0.44985,-32.6666 0,0 0,-1e-4 0,-2e-4 0.26805,-14.971 0.48961,-29.954 0.5256,-44.9484 0.0872,-35.3942 -0.71302,-70.8819 -4.07375,-106.219 -1.62707,-17.1153 -3.86581,-34.2258 -7.3005,-51.1477 -2e-5,-1e-4 -3e-5,-1e-4 -4e-5,-2e-4 -2.96483,-14.6437 -6.80589,-29.2677 -12.69707,-43.1998 -2.48783,-5.883 -5.38484,-11.6553 -8.8974,-17.1021 -3.07998,-4.7843 -6.68632,-9.3279 -10.97325,-13.2669 -3.88837,-3.5735 -8.38031,-6.5812 -13.3596,-8.6384 -5.01289,-2.053 -10.39927,-3.056 -15.76839,-3.0467 -9.36101,0.01 -18.77551,0.7351 -28.04322,2.5267 -7.89974,1.527 -15.68678,3.8603 -23.08548,7.1801 -7e-5,0 -1.3e-4,0 -1.9e-4,1e-4 -6.63842,2.9816 -12.92429,6.767 -18.6384,11.3003 -5.4679,4.3424 -10.38184,9.339 -14.69474,14.7866 -8.86883,11.2279 -15.19424,24.1407 -20.01756,37.371 -5.23313,14.3211 -8.86688,29.0906 -12.0393,43.8412 -3.30185,15.3307 -6.09038,30.7064 -9.3189,45.9321 -3.14149,14.7961 -6.64947,29.476 -11.62928,43.6087 -3e-5,0 -5e-5,1e-4 -7e-5,1e-4 -4.63613,13.1299 -10.53949,25.8303 -18.76932,36.8258 -8.09159,10.8323 -18.60774,19.8844 -30.66267,25.9222 -12.971,6.498 -26.34478,12.1723 -40.24876,15.8046 -4e-5,0 -7e-5,0 -10e-5,0 -10.30202,2.6814 -20.89496,4.2768 -31.31954,3.4875 -8.26517,-0.6218 -16.4307,-2.8142 -23.55142,-6.8593 -6.76533,-3.8141 -12.60442,-9.282 -17.34952,-15.5667 -5.21823,-6.9111 -9.16724,-14.8035 -12.33931,-23.0124 -3.59082,-9.3103 -6.15098,-19.0416 -8.16349,-28.9061 -2e-5,0 -3e-5,-1e-4 -4e-5,-2e-4 -4.58126,-22.4623 -6.3501,-45.4872 -7.53137,-68.5414 0,0 0,-1e-4 0,-1e-4 -1.21086,-23.7259 -1.58565,-47.5365 -2.61163,-71.3668 -0.46605,-10.8341 -1.06603,-21.6851 -2.08023,-32.5198 -0.88076,-9.4264 -2.06243,-18.8757 -4.02207,-28.2144 -1.58335,-7.5843 -3.68802,-15.1976 -7.11562,-22.3344 -3e-5,0 -6e-5,-1e-4 -9e-5,-2e-4 -1.41933,-2.9531 -3.10181,-5.8267 -5.14873,-8.4764 -2e-5,0 -5e-5,0 -7e-5,0 -1.83612,-2.3789 -3.99425,-4.5598 -6.48933,-6.3574 -2.40741,-1.7283 -5.10623,-3.0479 -7.96294,-3.8714 -3.07452,-0.8782 -6.25714,-1.1862 -9.38165,-1.0516 -3e-5,0 -7e-5,0 -1e-4,0 -8.2147,0.3778 -15.94301,3.308 -22.99486,6.879 -12.09572,6.0649 -23.14481,14.2498 -32.31454,24.2245 -8.58137,9.3486 -15.46994,20.1039 -21.03512,31.411 -3e-5,1e-4 -6e-5,1e-4 -9e-5,2e-4 -5.69798,11.5731 -10.09851,23.6901 -13.99295,35.8889 -4.01736,12.5755 -7.51309,25.2695 -11.24885,37.8513 -3.75712,12.6474 -7.74693,25.2048 -12.71153,37.3493 -4.9387,12.0767 -10.85839,23.7604 -18.29905,34.3959 -2e-5,0 -4e-5,0 -6e-5,0 -7.74833,11.0813 -17.19298,20.9881 -28.00547,29.0881 -5e-5,10e-5 -1.1e-4,10e-5 -1.6e-4,2e-4 -12.60372,9.4518 -26.98732,16.4613 -41.99397,21.4896 -8.04827,2.6889 -16.297109,4.767 -24.664793,5.5254 -3.3e-5,0 -6.5e-5,0 -9.8e-5,0 -6.520955,0.5876 -13.119711,0.3733 -19.379603,-1.2056 -5.336397,-1.34 -10.42254,-3.7041 -14.794787,-7.011 -4.351091,-3.2793 -8.015747,-7.4766 -11.007786,-12.1071 -3.302547,-5.113 -5.802964,-10.7562 -7.796546,-16.5819 -2.248574,-6.5789 -3.835895,-13.3958 -5.046575,-20.2896 -2.791245,-15.895 -3.62092,-32.1206 -3.884781,-48.346 -10e-7,-10e-5 -2e-6,-2e-4 -4e-6,-2e-4 -0.28495,-17.6945 0.217076,-35.4136 0.727643,-53.1456 0.493212,-17.1038 1.057034,-34.2356 0.839152,-51.3892 -0.178697,-14.4087 -0.768172,-28.9462 -3.599595,-43.1855 -1.117109,-5.6252 -2.62522,-11.2309 -4.936452,-16.5536 -1.911082,-4.416 -4.4462857,-8.6671 -7.9170956,-12.1445 -4.88e-5,-10e-5 -9.76e-5,-10e-5 -1.464e-4,-2e-4 -3.23731665,-3.2475 -7.1913555,-5.9345 -11.7025951,-7.2358 -6.8e-5,0 -1.36e-4,0 -2.04e-4,0 -4.1512139,-1.1702 -8.5592809,-1.0544 -12.6686689,0 -4.783733,1.2332 -9.175961,3.5347 -13.196755,6.2175 -2.8e-5,0 -5.7e-5,0 -8.5e-5,1e-4 -4.97081,3.3078 -9.47964,7.2188 -13.721391,11.338 -10.820502,10.5042 -20.149192,22.3786 -29.107775,34.4032 -4e-5,0 -8e-5,10e-5 -1.2e-4,10e-5 -10.760333,14.4376 -20.90901,29.2997 -31.044409,44.1459 -10.70631,15.6818 -21.36205,31.3883 -32.46404,46.767 -10.50814,14.5548 -21.37529,28.8586 -33.30896,42.2274 -5e-5,1e-4 -9e-5,1e-4 -1.4e-4,2e-4 -10.11624,11.3265 -20.94699,22.1302 -33.52363,30.5082 -5.21896,3.4767 -10.7456,6.5046 -16.60926,8.6288 -5.26303,1.906 -10.81209,3.0668 -16.37871,3.0707 -3.68851,0 -7.37539,-0.312 -10.95329,-1.1082 -3.09619,-0.6889 -6.11154,-1.7405 -8.89793,-3.2207 -2e-5,0 -5e-5,0 -8e-5,-10e-5 -2.57979,-1.369 -4.96445,-3.1086 -7.05188,-5.1515 -2.0967,-2.0502 -3.89797,-4.4063 -5.40937,-6.937 -3.38076,-5.6519 -5.32135,-12.1059 -6.5368,-18.6489 -1.45054,-7.8339 -1.85662,-15.8505 -1.8212,-23.8554 0.0421,-9.207 0.70386,-18.4119 1.62619,-27.5913 1.00313,-9.9803 2.33075,-19.9308 3.75595,-29.8699 0,0 10e-6,-10e-5 10e-6,-10e-5 2.90467,-20.2546 6.2804,-40.4641 8.57786,-60.8254 1.05311,-9.3323 1.88042,-18.7026 2.15379,-28.1013 0,0 0,-10e-5 0,-10e-5 0.23997,-8.2268 0.0742,-16.4987 -1.05566,-24.6721 -10e-6,-10e-5 -10e-6,-2e-4 -2e-5,-2e-4 -0.94044,-6.8199 -2.56332,-13.6322 -5.6295,-19.838 -1.35006,-2.7304 -2.9935,-5.3273 -4.9697,-7.6576 -1.91957,-2.2627 -4.15455,-4.2604 -6.6365,-5.8904 -2.60937,-1.7126 -5.47574,-3.0126 -8.45252,-3.9222 -3.38067,-1.0327 -6.89232,-1.576 -10.40797,-1.7731 -9.22758,-0.5155 -18.43228,1.1609 -27.31227,3.5612 -12.81097,3.4596 -25.12116,8.5397 -37.11277,14.1722 -3e-5,0 -6e-5,10e-5 -9e-5,10e-5 -16.58501,7.7893 -32.58989,16.7534 -48.28134,26.1951 -6e-5,0 -1.1e-4,0 -1.7e-4,10e-5 -14.5656,8.7636 -27.8312,19.7633 -38.70153,32.8292 -10.04828,12.0795 -17.99995,25.798 -24.37098,40.1478 -6.68318,15.0526 -11.74791,30.7651 -16.37351,46.5635 -5.07145,17.3208 -9.63742,34.7844 -14.71015,52.1035 z"
       id="path2997"
       inkscape:path-effect="#path-effect2999"
       inkscape:original-d="m -508.57143,3795.2193 c 21.40719,-72.7508 30.36868,-133.0783 94.28572,-171.4285 289.81236,-173.8875 44.18938,225.7142 174.28571,225.7142 88.3274,0 185.757213,-277.0999 242.8571429,-220 49.2475911,49.2476 -45.3918849,326.5592 102.8571471,277.1429 135.81138,-45.2705 76.93368,-199.8954 180,-251.4286 136.38142,-68.1907 -33.76439,412.5965 208.57142,291.4286 105.4142,-52.7071 24.68079,-268.5714 185.71429,-268.5714 83.81607,0 68.57143,250.5967 68.57143,317.1428 0,412.5622 -817.379088,322.6209 -1000,140"
       inkscape:connector-curvature="0" />
    <path
       style="fill:#000000;fill-rule:evenodd;stroke:none"
       d="m -548.57143,4606.6479 c -0.0934,-0.026 0.22564,-1.6911 1.16765,-4.8944 0.94202,-3.2032 2.51675,-7.9531 5.29125,-13.939 2.7745,-5.9859 6.76439,-13.2244 12.70188,-21.0051 2.96875,-3.8904 6.42555,-7.9086 10.45647,-11.9056 4.03091,-3.9971 8.63663,-7.9738 13.8869,-11.7271 9.17467,-6.5532 20.23627,-12.4438 33.10636,-16.7466 6.43504,-2.1514 13.31488,-3.9037 20.57534,-5.129 7.26045,-1.2254 14.90206,-1.9237 22.81415,-1.9596 13.49509,-0.067 27.86314,0.5007 42.85217,2.7774 10.58793,1.6055 21.53678,4.0823 32.30705,8.3709 8.05729,3.2063 16.01565,7.5015 23.11766,13.361 5.88703,4.8649 11.08763,10.8204 15.13334,17.6742 3.80277,6.4557 6.56363,13.6169 8.37503,21.0957 1.85093,7.6389 2.76621,15.5879 3.05526,23.6373 0.3029,8.3731 -0.0473,16.8775 -0.76968,25.4533 -0.73787,8.7733 -1.86233,17.6384 -3.14885,26.6006 -2.51184,17.5092 -5.70458,35.4141 -7.81519,53.9131 -0.97145,8.517 -1.7099,17.1537 -1.89849,25.8906 -0.17162,8.0294 0.10737,16.1395 1.24332,24.1946 1.04748,7.4133 2.8135,14.7867 5.66571,21.773 2.75094,6.7481 6.53783,13.1516 11.33945,18.7663 5.13467,6.021 11.4539,11.1562 18.44657,15.3378 8.29926,4.9653 17.5473,8.6028 27.19139,11.3433 10.38007,2.9239 21.14111,4.9524 31.9455,4.6433 8.1609,-0.2343 16.36479,-1.8536 23.6706,-5.4378 6.60484,-3.2051 12.50178,-8.0399 17.38428,-13.8103 5.2219,-6.1661 9.33812,-13.4025 12.78284,-21.0574 3.82962,-8.5317 6.7809,-17.589 9.32326,-26.888 2.75893,-10.1049 4.99719,-20.4835 7.06145,-31.0286 4.30679,-22.0146 7.79004,-44.7208 12.65537,-67.6979 2.3484,-11.0925 5.02265,-22.2567 8.36811,-33.3657 3.13497,-10.4169 6.87693,-20.8071 11.64514,-30.8837 4.4279,-9.3645 9.79243,-18.4639 16.44114,-26.7578 6.39834,-7.9776 14.026777,-15.1215 22.768983,-20.8259 9.236626,-6.0094 19.583174,-10.3132 30.370377,-12.912 12.702737,-3.0536 25.891735,-3.8743 38.97245,-3.2307 16.3981796,0.8001 32.718274,3.7695 48.759091,7.9247 20.294386,5.2508 40.264308,12.3911 59.965075,20.5735 16.547494,6.8494 32.450034,16.2919 45.751334,29.1016 11.18441,10.8111 20.20091,23.8986 26.67968,38.2172 6.35225,14.0622 10.39152,29.0811 13.10738,44.2664 2.8223,15.7342 4.32648,31.6963 5.56233,47.6697 1.25964,16.2187 2.23436,32.4956 3.90431,48.7355 1.64424,15.9451 3.9297,31.8789 7.91358,47.4312 3.90848,15.2467 9.47433,30.1598 17.39613,43.7959 8.3503,14.4083 19.39934,27.3851 32.38786,38.1894 11.30672,9.3731 23.42589,18.0123 36.3076,25.1805 12.88171,7.1682 26.52595,12.8654 40.87813,16.3105 11.64526,2.8138 23.69948,4.1121 35.66926,3.4396 11.21393,-0.6235 22.38097,-2.9778 32.93564,-7.0207 6e-5,-1e-4 1.2e-4,-1e-4 1.9e-4,-1e-4 21.86736,-8.3176 40.87521,-24.0628 55.60425,-43.0923 17.54981,-22.6932 29.34675,-49.9544 37.1204,-78.4183 2.69794,-9.8361 3.52187,-20.3047 3.54111,-30.8876 0,-1e-4 0,-2e-4 0,-2e-4 0.002,-12.5195 -1.30627,-25.1153 -3.50833,-37.6282 -1e-5,0 -2e-5,-10e-5 -4e-5,-2e-4 -2.37198,-13.4507 -5.80653,-26.7668 -10.2727,-39.7791 -4.44162,-12.9291 -9.88211,-25.5438 -16.57936,-37.477 -6.24894,-11.1174 -13.53447,-21.6546 -22.28393,-30.7751 -5e-5,0 -10e-5,-1e-4 -1.5e-4,-1e-4 -7.90356,-8.2175 -16.9746,-15.3294 -27.17328,-19.8801 -9.81976,-4.4153 -20.81041,-6.3707 -31.55105,-5.4328 -12.78089,1.0498 -25.27377,6.0588 -36.71235,12.8794 -24.91186,14.9625 -48.44618,32.588 -70.23569,52.4035 -19.8861,18.0807 -38.33585,37.9926 -55.77061,58.9678 -16.45102,19.793 -32.01805,40.5561 -47.57724,61.555 -14.85255,20.0501 -29.72239,40.3462 -45.64305,60.0683 -15.36899,19.0448 -31.780454,37.5491 -50.05017,54.397 -18.380973,16.9479 -38.684802,32.0835 -60.813338,44.345 -24.2699824,13.4328 -50.545335,23.2916 -77.677127,29.7498 -32.761169,7.7921 -66.602455,10.8352 -100.404885,10.829 -9e-5,0 -1.7e-4,0 -2.6e-4,0 -12.51598,-0.018 -24.80763,-2.0044 -36.71934,-4.7077 -8e-5,0 -1.6e-4,0 -2.5e-4,-1e-4 -14.81797,-3.3427 -29.3229,-7.932 -43.48317,-13.3385 -8e-5,0 -1.6e-4,0 -2.3e-4,0 -15.66404,-5.9767 -30.96751,-12.9954 -45.77486,-21.0044 -15.0672,-8.1464 -29.65944,-17.3452 -43.40451,-27.7984 -13.10529,-9.9592 -25.48807,-21.1182 -36.31223,-33.8173 -4.98511,-5.8391 -9.6357,-12.0423 -13.76619,-18.6064 -4.10709,-6.5269 -7.69284,-13.4 -10.58001,-20.6125 -5.52835,-13.8339 -8.15487,-28.9014 -7.02465,-43.8623 1.32605,-16.6951 7.18015,-32.6271 15.6382,-46.6635 5e-5,-10e-5 9e-5,-10e-5 1.4e-4,-2e-4 5.94153,-9.9157 13.32623,-19.0229 22.07655,-26.6906 8.28438,-7.2415 17.69993,-13.0899 27.73399,-17.4154 10.36106,-4.4591 21.27233,-7.3335 32.26368,-8.9651 11.93215,-1.7737 23.95859,-2.1588 35.83994,-1.6205 27.2388,1.2402 53.84612,6.9643 79.52956,14.4281 29.36727,8.518 57.77726,19.4354 85.47404,31.3749 29.252983,12.6069 57.760595,26.4243 85.775538,40.7435 27.132806,13.8676 53.801075,28.2365 80.249066,42.612 23.01924,12.5112 45.821676,25.0689 68.777276,36.9643 9.35708,4.8484 18.72062,9.5753 28.17217,13.9968 7.59861,3.5518 15.19421,6.918 22.90894,9.7232 18.72214,6.8182 37.02679,14.3424 55.18743,21.8266 22.26649,9.1746 44.35404,18.404 66.41566,27.3063 50.25071,20.2717 100.4062,39.0554 151.18043,53.138 25.51795,7.0778 51.16273,12.9694 76.91081,16.8575 24.20186,3.6493 48.48594,5.5765 72.45434,4.464 22.02172,-1.032 43.80568,-4.618 63.9761,-12.1771 19.48274,-7.289 37.41258,-18.4448 51.87735,-32.9057 4.95018,-4.9373 9.19843,-10.5857 12.68187,-16.6641 3.59069,-6.2611 6.37334,-13.0032 8.46564,-19.9601 4.61058,-15.2787 5.83539,-31.5035 5.13509,-47.5528 -0.82711,-18.7713 -4.21161,-37.2494 -9.46549,-55.1483 -5.25389,-17.899 -12.37713,-35.2189 -20.72591,-51.6964 -8.73732,-17.2023 -18.9793,-33.4838 -30.73385,-48.3848 -11.20392,-14.1921 -23.74518,-27.155 -37.81623,-37.8781 -12.9002,-9.814 -27.08103,-17.7956 -42.20309,-22.2088 -14.40848,-4.218 -29.7475,-5.046 -44.10386,-1.8528 -19.66195,4.3737 -38.53801,11.7938 -54.26105,23.3473 -13.71078,10.0247 -24.90917,23.222 -33.06308,37.9112 -8.51568,15.3133 -13.91695,32.181 -17.59195,49.2513 -4.03508,18.7942 -5.96184,37.8859 -7.10279,56.8654 -1.21284,20.2527 -1.46903,40.3897 -1.74139,60.3466 -0.27196,20.0918 -0.52195,40.0252 -1.70353,59.7359 -1.11192,18.6455 -3.04873,37.1768 -7.1121,55.1562 -3.69375,16.4111 -9.33415,32.4708 -18.1967,46.6478 -20.45533,32.6114 -45.37976,61.157 -73.11695,84.7241 -28.33437,24.0661 -59.40762,42.937 -91.05963,57.4536 -34.58473,15.8609 -69.79676,26.6579 -104.11426,34.1721 -38.83771,8.5054 -76.579594,12.8715 -112.425079,14.9558 -22.450956,1.305 -44.1641312,1.7237 -65.08874,1.5205 -20.924608,-0.2033 -41.060756,-1.029 -60.368759,-2.2618 -38.616002,-2.4658 -73.911962,-6.523 -105.678022,-10.9546 -33.97006,-4.7379 -63.94522,-9.9747 -89.82295,-14.9265 -25.87773,-4.9518 -47.65793,-9.6266 -65.2087,-13.5625 -17.55077,-3.9359 -30.87207,-7.139 -39.80354,-9.3607 -8.93148,-2.2217 -13.47321,-3.4651 -13.43618,-3.6225 0.037,-0.1574 4.65204,0.7748 13.6516,2.6884 8.99957,1.9135 22.3839,4.8117 39.98636,8.4453 17.60247,3.6337 39.42314,8.0092 65.32032,12.6642 25.89719,4.6549 55.87085,9.5973 89.8042,14.043 31.73502,4.1566 66.96488,7.9439 105.455677,10.15 19.245398,1.103 39.304053,1.8016 60.132631,1.8812 20.8285789,0.08 42.427186,-0.4592 64.740989,-1.8797 35.621326,-2.2668 73.064023,-6.7849 111.496993,-15.3933 33.9564,-7.6069 68.72208,-18.4275 102.75043,-34.2115 31.13435,-14.441 61.64096,-33.1245 89.35807,-56.8538 27.13531,-23.2229 51.49872,-51.332 71.46564,-83.3963 8.29737,-13.2788 13.57689,-28.6129 17.14474,-44.4993 3.89772,-17.4292 5.72108,-35.5696 6.77981,-54.0095 1.11239,-19.4818 1.29985,-39.2966 1.51687,-59.3977 0.21322,-19.9563 0.41717,-40.2073 1.58554,-60.7041 1.09013,-19.2006 3.01681,-38.6812 7.10871,-58.0518 3.71019,-17.611 9.33496,-35.2157 18.28212,-51.4815 8.62868,-15.6599 20.54902,-29.7524 35.25161,-40.5867 16.86745,-12.3719 36.75346,-20.3094 57.27229,-24.8647 15.84403,-3.518 32.56526,-2.6863 48.23962,1.8895 16.34026,4.7839 31.45604,13.1939 44.98355,23.4977 14.76032,11.2244 27.83956,24.6612 39.41637,39.2961 12.16007,15.3607 22.74202,32.1012 31.74756,49.761 8.62087,16.8654 15.97721,34.6694 21.42183,53.1549 5.44462,18.4855 8.97749,37.6526 9.90729,57.2218 0.80412,16.7812 -0.51184,33.9937 -5.42015,50.5302 -2.24593,7.5429 -5.28568,14.9171 -9.2396,21.8574 -3.84512,6.745 -8.56785,13.035 -14.108,18.588 -15.44828,15.4521 -34.43949,27.3356 -55.0649,35.069 -21.28827,7.9692 -44.00169,11.7812 -66.74944,12.8418 -24.73981,1.1643 -49.63447,-0.7608 -74.27312,-4.4609 -26.21996,-3.9318 -52.24277,-9.8705 -78.03725,-16.9989 -51.31976,-14.1827 -101.84148,-33.0295 -152.25202,-53.3209 -22.14278,-8.9105 -44.26132,-18.1288 -66.50603,-27.2718 -18.16262,-7.4639 -36.34947,-14.9247 -54.82942,-21.6345 -8.1262,-2.9552 -15.98981,-6.4253 -23.71064,-10.0339 -9.62985,-4.4973 -19.1153,-9.2754 -28.53682,-14.1497 -23.10966,-11.9549 -45.978928,-24.5276 -68.973682,-37.007 -26.436186,-14.3462 -53.0401943,-28.6607 -80.053914,-42.4478 -27.899022,-14.2382 -56.218751,-27.9499 -85.209074,-40.4255 -27.46118,-11.8143 -55.48874,-22.5816 -84.32183,-30.924 -25.24621,-7.2903 -51.08237,-12.8783 -77.20717,-14.0214 -11.37283,-0.5002 -22.76034,-0.1453 -33.92176,1.5294 -10.26763,1.5427 -20.35192,4.184 -29.78185,8.2642 -9.11649,3.9377 -17.6577,9.2368 -25.11155,15.7661 -7.89543,6.8971 -14.61562,15.2124 -20.08498,24.3148 -4e-5,0 -8e-5,1e-4 -1.2e-4,2e-4 -7.75101,12.9787 -13.13769,27.454 -14.23918,42.2894 -1.04295,13.2655 1.35825,26.8422 6.3455,39.3926 2.61342,6.5888 5.92297,12.9183 9.75143,18.9824 3.85027,6.0986 8.21865,11.9185 12.9196,17.4562 10.23604,12.0372 22.09879,22.7055 34.7516,32.3434 13.27399,10.1032 27.43332,19.0249 42.10545,26.9661 14.4212,7.8024 29.32652,14.6413 44.58076,20.4648 8e-5,1e-4 1.5e-4,1e-4 2.3e-4,1e-4 13.80218,5.2656 27.85125,9.7206 42.11716,12.9357 8e-5,0 1.6e-4,0 2.4e-4,0 11.52957,2.5823 23.08834,4.4904 34.52519,4.4724 8e-5,0 1.6e-4,0 2.4e-4,0 33.21091,-0.01 66.282703,-2.9471 98.104596,-10.5269 26.325978,-6.2657 51.769383,-15.7884 75.183412,-28.7472 21.359684,-11.808 41.035572,-26.474 58.925456,-42.9371 17.800941,-16.3787 33.895436,-34.5233 49.094076,-53.314 15.74307,-19.4701 30.54464,-39.6503 45.43386,-59.7155 15.59313,-21.0189 31.2891,-41.914 47.9595,-61.9455 17.66892,-21.2328 36.44805,-41.4545 56.75319,-59.8934 22.25768,-20.2077 46.31575,-38.1856 71.80236,-53.4622 12.30761,-7.4271 26.17376,-12.8622 40.81562,-14.1632 12.42609,-1.0481 24.98318,1.1903 36.25302,6.271 11.56086,5.2469 21.60436,13.0652 30.10157,21.9989 5e-5,1e-4 1.1e-4,2e-4 1.6e-4,2e-4 9.40738,9.8674 17.14814,21.0477 23.65608,32.7076 6.99331,12.5113 12.64677,25.646 17.22114,39.0389 4.60738,13.4778 8.14479,27.2672 10.58266,41.1984 10e-6,1e-4 2e-5,1e-4 4e-5,2e-4 2.27043,12.9486 3.60796,26.0828 3.59651,39.2389 0,1e-4 0,2e-4 0,2e-4 0.008,11.0813 -0.94085,22.3572 -3.90974,33.2995 -7.98622,29.3223 -20.36034,57.63 -38.81748,81.5371 -15.53902,20.1436 -35.88751,36.8223 -59.5801,45.905 -7e-5,0 -1.3e-4,0 -2e-4,10e-5 -11.44494,4.3591 -23.51347,6.8834 -35.63906,7.5368 -12.93407,0.69 -25.84243,-0.7103 -38.23602,-3.7402 -15.22577,-3.745 -29.58938,-9.7528 -43.04417,-17.2414 -13.4548,-7.4886 -26.00077,-16.4579 -37.59606,-26.1698 -13.73374,-11.4643 -25.40079,-25.2324 -34.24976,-40.5529 -8.35155,-14.4922 -14.17677,-30.1348 -18.18558,-45.9919 -4.08572,-16.1501 -6.40801,-32.4929 -8.02867,-48.6715 -1.65552,-16.4797 -2.60006,-32.8241 -3.81496,-48.9509 -1.20181,-15.8901 -2.63434,-31.5805 -5.3504,-46.8697 -2.62681,-14.7419 -6.43144,-29.1317 -12.41527,-42.395 -6.06226,-13.4609 -14.46962,-25.7558 -24.86936,-35.8354 -12.35104,-12.0186 -27.41975,-20.974 -43.240541,-27.6114 -19.448196,-8.1296 -39.054149,-15.2087 -58.888814,-20.3916 -15.682367,-4.0929 -31.4823716,-7.0313 -47.217495,-7.8287 -12.538701,-0.6302 -25.027878,0.085 -36.888392,2.924 -10.044324,2.399 -19.64569,6.3436 -28.136271,11.8475 -8.053281,5.2038 -15.143891,11.8163 -21.145028,19.2347 -6.254579,7.7278 -11.355989,16.3433 -15.641799,25.3005 -4.61235,9.6474 -8.26384,19.7018 -11.36827,29.8688 -3.30839,10.8423 -5.97323,21.8127 -8.33733,32.7775 -4.89444,22.7043 -8.45493,45.3758 -12.87784,67.5465 -2.1172,10.6193 -4.43232,21.1463 -7.28943,31.4656 -2.62471,9.4926 -5.72586,18.852 -9.76586,27.7829 -3.62147,8.0248 -8.08423,15.7414 -13.80609,22.4867 -5.39275,6.3521 -11.98973,11.6823 -19.46603,15.3034 -8.29206,3.9771 -17.33574,5.7568 -26.20262,5.942 -11.65845,0.2443 -22.99685,-1.9107 -33.7122,-5.0141 -10.00827,-2.8745 -19.70822,-6.7611 -28.53355,-12.075 -7.45442,-4.4905 -14.21765,-10.0584 -19.77904,-16.6204 -5.18801,-6.1371 -9.24682,-13.0675 -12.16698,-20.3449 -3.01315,-7.5196 -4.85461,-15.3337 -5.90173,-23.1044 -1.13877,-8.4348 -1.39045,-16.8304 -1.16526,-25.0623 0.24318,-8.9577 1.0395,-17.7475 2.0716,-26.3589 2.24111,-18.7039 5.53963,-36.624 8.14033,-54.0162 1.33081,-8.9052 2.49758,-17.6691 3.27627,-26.3057 0.76021,-8.444 1.15898,-16.7592 0.91345,-24.8982 -0.23813,-7.8228 -1.06018,-15.4787 -2.78377,-22.7728 -1.68536,-7.1293 -4.23763,-13.9179 -7.76632,-19.9859 -3.73615,-6.4394 -8.58509,-12.0728 -14.0905,-16.6924 -6.64684,-5.5866 -14.22692,-9.7393 -21.96882,-12.9035 -10.36465,-4.2333 -21.0299,-6.7293 -31.42219,-8.4048 -14.71316,-2.3683 -28.91062,-3.0555 -42.30019,-3.1227 -7.73471,-0.036 -15.21763,0.5721 -22.33711,1.6957 -7.11948,1.1237 -13.87606,2.7628 -20.20447,4.7953 -12.65684,4.0651 -23.57183,9.6963 -32.65713,16.002 -5.1969,3.6038 -9.77664,7.4378 -13.80182,11.3016 -4.02517,3.8638 -7.49648,7.7581 -10.49423,11.5352 -5.99549,7.5544 -10.10027,14.6103 -13.01524,20.4549 -2.91497,5.8446 -4.65618,10.494 -5.77404,13.6215 -1.11787,3.1276 -1.6226,4.7417 -1.71596,4.716 z"
       id="path3001"
       inkscape:path-effect="#path-effect3003"
       inkscape:original-d="m -548.57143,4606.6479 c 14.43989,-52.5147 63.30069,-85.7143 120,-85.7143 258.10801,0 -0.11784,261.599 174.28572,311.4286 198.587885,56.7394 1.52708,-405.7923 351.428567,-260 148.691713,61.9549 36.800493,241.6194 151.428573,337.1428 107.67685,89.7307 210.82683,42.2064 245.71428,-85.7142 19.99621,-73.3195 -41.93325,-259.983 -151.42857,-194.2858 -214.62787,128.7768 -205.0347,371.4286 -505.71428,371.4286 -81.15695,0 -290.07795,-101.2986 -217.14286,-222.8571 96.86746,-161.4458 453.309709,97.3074 562.85714,137.1428 127.96088,46.5313 419.58139,200.4186 542.85715,77.1429 84.08549,-84.0855 -38.42667,-336.2227 -162.85715,-308.5714 -182.31378,40.5141 -76.6453,285.4896 -142.85714,391.4285 -164.7139,263.5423 -570.62139,198.0051 -817.14286,140"
       inkscape:connector-curvature="0" />
    <path
       style="fill:#000000;fill-rule:evenodd;stroke:none"
       d="m 637.14284,5729.505 c 0.003,0.2964 -3.502,0.6459 -10.24263,0.9144 -6.74063,0.2685 -16.72094,0.4586 -29.64428,0.1669 -12.92334,-0.2917 -28.79573,-1.0595 -47.21771,-3.045 -18.42198,-1.9855 -39.39933,-5.1831 -62.33963,-10.7607 -11.13847,-2.7083 -22.73889,-6.006 -34.62382,-10.1311 -11.88493,-4.1251 -24.05474,-9.0774 -36.27117,-15.1505 -10.29414,-5.1156 -20.61673,-11.0593 -30.67867,-17.992 -10.06194,-6.9327 -19.86334,-14.8545 -29.04624,-23.9378 -4.26596,-4.2196 -8.43296,-8.7206 -12.28076,-13.6403 -2.99351,-3.8196 -5.81068,-7.9496 -8.15021,-12.4908 -1.83771,-3.5495 -3.35455,-7.4329 -4.20329,-11.6271 -0.70344,-3.4847 -0.84362,-7.1765 -0.22711,-10.8764 0,0 0,0 1e-5,0 0.60127,-3.4619 1.86379,-6.7638 3.66034,-9.7352 1.91053,-3.1421 4.29301,-5.8808 6.90706,-8.235 2.95441,-2.6701 6.17652,-4.9392 9.49359,-6.9147 3.77891,-2.2568 7.7115,-4.1948 11.69957,-5.9211 9.33417,-4.0401 19.09579,-7.1059 28.95253,-9.7818 11.31481,-3.0791 22.87816,-5.6625 34.57129,-8.0824 12.47429,-2.5828 25.13195,-4.9758 37.9088,-7.4128 12.85054,-2.4515 25.82968,-4.9402 38.87232,-7.6994 12.45358,-2.6352 24.96003,-5.502 37.40682,-8.9119 11.30123,-3.0988 22.53855,-6.6099 33.458,-11.0055 9.44819,-3.8136 18.64551,-8.2108 26.96948,-13.8495 7.02592,-4.7858 13.46396,-10.3771 18.07188,-17.1418 2.01706,-2.9349 3.70846,-6.0839 4.96389,-9.3772 0.0716,-0.1879 0.14182,-0.3762 0.21056,-0.565 1.30811,-3.5715 2.11464,-7.34 2.43639,-11.1473 0.36,-4.1964 0.11572,-8.4851 -0.56208,-12.7338 -0.7888,-4.9413 -2.19886,-9.8269 -3.98514,-14.6101 -4.70031,-12.6212 -11.95553,-24.2593 -19.94051,-35.3055 -11.48364,-15.84 -24.63656,-30.2161 -38.19579,-43.8302 -5.34577,-5.2999 -11.08194,-9.9564 -17.45053,-12.6868 -10e-6,0 -3e-5,0 -4e-5,-1e-4 -2.54416,-1.105 -5.1579,-1.9189 -7.7704,-2.3055 -2.41125,-0.3627 -4.86134,-0.3885 -7.22956,-0.05 -2.37069,0.3301 -4.71982,1.0372 -6.95885,2.028 -2.40082,1.0595 -4.6926,2.4829 -6.86106,4.1294 -5.14434,3.8838 -9.42245,9.0441 -13.22193,14.5947 -5.26453,7.7149 -9.43283,16.0578 -12.91359,24.681 -3.48075,8.6231 -6.27406,17.5263 -8.74361,26.4 -6.67998,24.1885 -10.27528,48.3871 -12.33499,71.7626 -2.54227,28.9303 -2.54752,56.6124 -0.8749,82.4883 0.99136,15.3088 2.57371,29.9895 4.6734,43.9406 2.09968,13.951 4.71619,27.1727 7.73356,39.5999 3.65505,15.0391 7.89172,28.9193 12.54216,41.4675 4.65044,12.5481 9.71082,23.7678 14.87926,33.6405 5.41643,10.3383 10.96809,19.1993 16.20493,26.5732 5.23684,7.3739 10.15385,13.2741 14.31417,17.8884 4.16031,4.6144 7.55896,7.955 9.84761,10.2153 2.28865,2.2603 3.4629,3.449 3.33378,3.6068 -0.12912,0.1578 -1.55879,-0.72 -4.12557,-2.7002 -2.56678,-1.9801 -6.26691,-5.0714 -10.76197,-9.4864 -4.49505,-4.415 -9.78043,-10.1658 -15.40593,-17.4506 -5.62549,-7.2848 -11.58617,-16.117 -17.39204,-26.4869 -5.54344,-9.8938 -10.98552,-21.184 -16.00538,-33.839 -5.01986,-12.6551 -9.61356,-26.6785 -13.58674,-41.8756 -3.28609,-12.5582 -6.162,-25.9342 -8.50531,-40.0566 -2.3433,-14.1223 -4.15346,-28.9912 -5.34966,-44.4971 -2.02485,-26.2084 -2.32157,-54.306 -0.006,-83.7343 1.864,-23.7622 5.35204,-48.5069 12.04358,-73.4451 2.4265,-9.1143 5.26998,-18.3699 8.90584,-27.4702 3.63586,-9.1002 8.06422,-18.0451 13.70442,-26.4985 4.08629,-6.1415 9.02735,-12.0627 15.23862,-16.8887 2.65315,-2.0516 5.57415,-3.8671 8.75289,-5.3049 2.98298,-1.3465 6.17902,-2.3128 9.50213,-2.8028 3.32852,-0.4823 6.70978,-0.4672 10.02186,0.022 3.56731,0.533 6.99731,1.5672 10.2148,2.9684 2e-5,0 4e-5,0 6e-5,0 7.91506,3.4826 14.67885,8.8007 20.49534,14.6631 13.82256,13.7677 27.34351,28.4955 39.30974,44.9058 8.33739,11.4017 16.03113,23.8076 21.25931,37.6326 1.98924,5.2735 3.57337,10.7968 4.50651,16.5256 0.80496,4.9392 1.0827,10.0367 0.66082,15.1615 -0.38873,4.6627 -1.38491,9.2968 -3.00692,13.7438 -0.0859,0.2345 -0.17351,0.4683 -0.26273,0.7014 -1.56373,4.0854 -3.62407,7.935 -6.06976,11.4798 -5.62249,8.0896 -12.9435,14.545 -20.72273,19.7472 -9.1552,6.1533 -18.97652,10.8661 -28.84903,14.8047 -11.41641,4.5663 -23.02011,8.1758 -34.56395,11.3046 -12.72182,3.4511 -25.42345,6.3281 -37.99813,8.9448 -13.17398,2.7421 -26.22541,5.1956 -39.09514,7.5949 -12.80012,2.3868 -25.41901,4.7115 -37.80076,7.2096 -11.61439,2.3445 -23.00241,4.8188 -34.05989,7.7592 -9.65285,2.5732 -19.01398,5.43 -27.77981,9.1694 -3.73418,1.5928 -7.3311,3.3262 -10.69815,5.3116 -2.95276,1.7466 -5.71561,3.6428 -8.12175,5.8044 -2.1103,1.9041 -3.96426,3.9626 -5.32335,6.207 -1.27039,2.0811 -2.17636,4.3574 -2.58257,6.6659 0,0 0,0 0,0 -0.46108,2.4723 -0.36015,5.1149 0.12004,7.7202 0.58521,3.1839 1.81238,6.3313 3.33645,9.4014 1.96161,3.9281 4.45843,7.6351 7.1847,11.206 3.50953,4.5866 7.40246,8.8652 11.45186,12.961 8.69973,8.7993 18.053,16.5232 27.70039,23.3297 9.6474,6.8065 19.58901,12.6957 29.53381,17.8138 11.81233,6.0771 23.63531,11.0856 35.22096,15.307 11.58564,4.2214 22.93428,7.6556 33.85891,10.5292 22.51301,5.9221 43.18756,9.5329 61.39036,11.9749 18.20279,2.4419 33.93934,3.7093 46.77557,4.5258 12.83622,0.8165 22.7782,1.1762 29.50257,1.4731 6.72437,0.2969 10.23578,0.5285 10.23896,0.8249 z"
       id="path3005"
       inkscape:path-effect="#path-effect3007"
       inkscape:original-d="m 637.14284,5729.505 c -94.3768,1.0138 -209.7112,-15.4255 -277.14284,-82.8571 -150.03913,-150.0392 467.94534,-32.0547 208.57144,-291.4286 -104.3989,-104.3989 -160.658,311.6694 -14.2857,431.4286"
       inkscape:connector-curvature="0" />
    <path
       style="fill:#000000;fill-rule:evenodd;stroke:none"
       d="m 194.2857,5532.3622 c 0.0753,0.1316 -0.68184,0.7255 -2.19448,1.8101 -1.51265,1.0847 -3.7796,2.6635 -6.6704,4.845 -2.89081,2.1815 -6.404,4.9707 -10.37607,8.4929 -3.97207,3.5222 -8.40145,7.7832 -13.11463,12.8423 -4.18097,4.4894 -8.58925,9.6044 -13.18002,15.348 -4.59078,5.7435 -9.36192,12.1179 -14.35537,19.0394 -3.98274,5.5231 -8.10611,11.3993 -12.44134,17.5679 -4.33524,6.1685 -8.88175,12.6299 -13.76683,19.2838 0,0 -1e-5,0 -2e-5,0 -8.263025,11.2614 -17.485034,23.1419 -28.698962,34.5437 -4.513461,4.5743 -9.6548,8.6926 -15.31534,12.2474 -5.66054,3.5547 -11.840436,6.5459 -18.388263,8.8594 -12.595808,4.4456 -26.423686,6.5232 -40.5929428,6.4633 -14.1186812,-0.051 -28.6290762,-2.1315 -43.0286982,-6.0327 -13.969069,-3.7788 -27.89573,-9.2603 -41.302632,-16.5106 -12.462944,-6.7333 -24.531362,-15.0274 -35.436842,-25.1534 -9.80218,-9.0879 -18.68777,-19.7633 -25.32834,-32.1428 -6.06482,-11.3026 -10.04254,-24.1167 -10.58945,-37.5108 -0.51078,-13.8559 2.78682,-27.8313 9.06923,-40.4201 3.10949,-6.2323 7.52432,-11.7953 12.8851,-16.3022 5.51051,-4.6086 11.79185,-8.0992 18.31647,-10.6981 2e-5,0 3e-5,0 5e-5,0 7.23548,-2.8924 14.771603,-4.8279 22.335776,-6.1799 8.403692,-1.5093 16.909849,-2.3537 25.415966,-2.8243 18.764443,-1.0388 37.705231,-0.3956 56.6813153,0.538 19.3773317,0.9468 38.8690487,2.2875 58.4848757,2.9097 0.774059,0.024 1.548236,0.047 2.322506,0.07 17.107039,0.4917 33.970659,0.4802 50.327921,-1.5897 7.42106,-0.9403 14.6839,-2.2886 21.59518,-4.4169 6.12854,-1.8979 11.9682,-4.3453 17.06755,-7.6975 4.71186,-3.0917 8.85216,-6.9612 11.88663,-11.4691 3.29611,-4.8178 5.40306,-10.5068 6.52322,-16.3865 1.42317,-7.4441 1.23687,-15.2551 0.31119,-23.0141 -1.26443,-10.4345 -3.98969,-20.68 -7.29666,-30.7032 -0.57083,-1.6819 -1.38023,-3.2301 -2.44458,-4.4308 0,0 -1e-5,0 -2e-5,-1e-4 -0.99653,-1.1718 -2.32229,-2.1489 -3.79026,-2.8904 -1e-5,0 -2e-5,0 -4e-5,0 -1.63358,-0.8348 -3.54511,-1.3516 -5.57026,-1.6848 -1e-5,0 -3e-5,0 -4e-5,0 -2.36474,-0.3798 -4.8616,-0.4201 -7.41694,-0.2791 -6.41508,0.3526 -12.8442,1.9872 -19.20136,4.0576 -7.93979,2.6082 -15.59253,6.0235 -23.00858,9.8291 -8.626885,4.4319 -16.871333,9.4151 -24.76548,14.7419 -8.674366,5.855 -16.902462,12.1259 -24.667266,18.7161 -8.173189,6.9455 -15.856448,14.2142 -22.889505,21.8033 -7.033057,7.5892 -13.4159249,15.4989 -19.0283204,23.7164 -5.4742112,8.0154 -10.1853072,16.2972 -13.7726146,24.8212 -3.426036,8.1551 -5.849074,16.5105 -6.788463,24.8257 -0.929756,8.2034 -0.419959,16.3932 1.645827,23.9554 2.267443,8.3949 6.4582774,16.0749 11.6602349,22.657 6.7261414,8.5249 15.1227621,15.2935 23.7867401,20.8962 12.454758,8.0413 25.51536,13.6635 38.00797,18.1615 9.840688,3.5392 19.361184,6.3356 28.40683,8.6624 9.045646,2.3268 17.617047,4.1829 25.606407,5.7535 11.35486,2.2311 21.54048,3.8706 30.40945,5.1694 8.86896,1.2989 16.42211,2.2547 22.54094,3.0141 6.11882,0.7594 10.80407,1.3204 13.95404,1.7552 3.14997,0.4348 4.76515,0.7425 4.751,0.9406 -0.0142,0.1981 -1.65722,0.2814 -4.8408,0.2304 -3.18359,-0.051 -7.90804,-0.2351 -14.07963,-0.6272 -6.17159,-0.3921 -13.79099,-0.9902 -22.75125,-1.9447 -8.96027,-0.9545 -19.26221,-2.2632 -30.77426,-4.1825 -8.09865,-1.3494 -16.806671,-2.9984 -26.03114,-5.14 -9.224468,-2.1417 -18.966012,-4.775 -29.087666,-8.1828 -12.849093,-4.321 -26.41474,-9.886 -39.612538,-18.0781 -9.2014718,-5.7029 -18.2518471,-12.8092 -25.78015,-22.0099 -5.841181,-7.1502 -10.595325,-15.6202 -13.310938,-25.0812 -2.424452,-8.5278 -3.130523,-17.6672 -2.187515,-26.7806 0.954476,-9.1966 3.462609,-18.3156 7.058133,-27.0735 3.750206,-9.1501 8.6364013,-17.9702 14.2960279,-26.4071 5.7921844,-8.6348 12.3615587,-16.9326 19.5849571,-24.8698 7.223399,-7.9372 15.100831,-15.5137 23.469078,-22.7161 7.954961,-6.8549 16.400149,-13.3854 25.320172,-19.4925 8.113321,-5.5563 16.638091,-10.7781 25.612439,-15.458 7.700115,-4.0197 15.77963,-7.6674 24.30193,-10.5278 6.77493,-2.292 13.98944,-4.1157 21.58385,-4.6218 3.05463,-0.2028 6.22691,-0.1452 9.44798,0.3335 2e-5,0 4e-5,0 6e-5,0 2.78019,0.4054 5.62256,1.2039 8.36673,2.535 2e-5,1e-4 4e-5,1e-4 6e-5,1e-4 2.52221,1.2327 4.84713,2.9665 6.7863,5.1659 1e-5,0 3e-5,0 4e-5,0 1.99013,2.307 3.4334,4.9422 4.33964,7.6915 3.49527,10.3835 6.4002,21.2373 7.83427,32.5484 1.08179,8.418 1.26538,17.2216 -0.32911,26.01 -1.27913,7.0265 -3.8745,13.9596 -8.00229,20.1209 -3.87827,5.7155 -8.93526,10.5102 -14.63809,14.2328 -6.1089,3.9815 -12.78543,6.836 -19.57036,8.9098 -7.63243,2.3448 -15.45589,3.8241 -23.2699,4.8066 -17.178,2.1623 -34.563641,2.2094 -51.869711,1.6929 -0.783278,-0.023 -1.565797,-0.048 -2.347533,-0.073 -19.864676,-0.6338 -39.410127,-1.9891 -58.6593656,-2.9539 -18.8883844,-0.9403 -37.4756924,-1.6188 -55.6514024,-0.6415 -8.22946,0.4429 -16.338026,1.2185 -24.231045,2.6201 -7.105893,1.2682 -14.009813,2.9974 -20.450323,5.5683 -1e-5,0 -3e-5,0 -4e-5,0 -5.77918,2.3162 -11.19309,5.2573 -15.72261,9.0649 -4.38076,3.6592 -8.01074,8.1793 -10.52112,13.1868 -5.64614,11.2683 -8.68643,23.6875 -8.2519,35.7957 0.36831,11.7438 3.90697,23.249 9.31213,33.5485 5.95225,11.3372 14.16422,21.2934 23.3121,29.9398 10.196774,9.6226 21.605952,17.586 33.458578,24.1329 12.754739,7.0383 26.030675,12.4091 39.364086,16.1596 13.747683,3.861 27.5437245,6.0061 40.9252399,6.2013 13.4192191,0.1876 26.4179931,-1.565 38.1645261,-5.5586 6.083295,-2.0656 11.83817,-4.7461 17.111082,-7.943 5.272912,-3.197 10.064013,-6.9104 14.262437,-11.048 11.04275,-10.8549 20.298987,-22.3661 28.713171,-33.3581 0,0 10e-6,0 2e-5,0 4.96957,-6.4957 9.63155,-12.8349 14.10253,-18.903 4.47097,-6.0682 8.75033,-11.8657 12.90021,-17.32 5.19851,-6.8356 10.20198,-13.1394 15.03183,-18.8091 4.82986,-5.6697 9.48396,-10.7076 13.90357,-15.1042 4.98391,-4.9597 9.68228,-9.091 13.90276,-12.4549 4.22048,-3.3639 7.96161,-5.9663 11.05618,-7.9382 3.09457,-1.9719 5.54135,-3.3182 7.21841,-4.1564 1.67706,-0.8381 2.58349,-1.1715 2.65876,-1.0399 z"
       id="path3009"
       inkscape:path-effect="#path-effect3011"
       inkscape:original-d="m 194.2857,5532.3622 c -50.0261,28.6024 -75.8096,90.0953 -117.142801,131.4285 -73.8786004,73.8785 -265.966349,-22.3531 -214.285759,-125.7143 46.562899,-93.1258 360.19676,57.7333 297.14286,-131.4285 -25.3007,-75.9022 -411.11285,214.7164 22.8571,245.7143"
       inkscape:connector-curvature="0" />
  </g>
</svg>
